<svg width="16" height="16" viewBox="0 0 16 16" fill="none" xmlns="http://www.w3.org/2000/svg">
<path fill-rule="evenodd" clip-rule="evenodd" d="M11.3333 2.66667V2C11.3333 1.63181 11.6318 1.33334 12 1.33334C12.3682 1.33334 12.6667 1.63181 12.6667 2V2.66667H13.3333C14.4379 2.66667 15.3333 3.5621 15.3333 4.66667V6.66667V8V11.3333C15.3333 13.5425 13.5425 15.3333 11.3333 15.3333H4.66666C2.45752 15.3333 0.666656 13.5425 0.666656 11.3333V8V6.66667V4.66667C0.666656 3.5621 1.56209 2.66667 2.66666 2.66667H3.99999V2C3.99999 1.63181 4.29847 1.33334 4.66666 1.33334C5.03485 1.33334 5.33332 1.63181 5.33332 2V2.66667H11.3333ZM1.99999 6.66667H14V4.66667C14 4.29848 13.7015 4 13.3333 4H12.6667C12.6667 4.36819 12.3682 4.66667 12 4.66667C11.6318 4.66667 11.3333 4.36819 11.3333 4H5.33332C5.33332 4.36819 5.03485 4.66667 4.66666 4.66667C4.29847 4.66667 3.99999 4.36819 3.99999 4H2.66666C2.29847 4 1.99999 4.29848 1.99999 4.66667V6.66667ZM1.99999 8V11.3333C1.99999 12.8061 3.1939 14 4.66666 14H11.3333C12.8061 14 14 12.8061 14 11.3333V8H1.99999Z" fill="#1C75BA"/>
</svg>
