<svg width="40" height="40" viewBox="0 0 40 40" fill="none" xmlns="http://www.w3.org/2000/svg">
<g clip-path="url(#clip0_224_47)">
<path d="M29.9999 10C30.8409 9.99973 31.6509 10.3173 32.2675 10.8892C32.8841 11.461 33.2618 12.2447 33.3249 13.0833L33.3333 13.3333V15C34.1742 14.9997 34.9842 15.3173 35.6008 15.8892C36.2175 16.461 36.5952 17.2447 36.6583 18.0833L36.6666 18.3333V21.6667C36.6669 22.5076 36.3492 23.3176 35.7774 23.9342C35.2056 24.5509 34.4218 24.9286 33.5833 24.9917L33.3333 25V26.6667C33.3335 27.5076 33.0159 28.3176 32.4441 28.9342C31.8723 29.5509 31.0885 29.9286 30.2499 29.9917L29.9999 30H6.66659C5.82562 30.0003 5.01564 29.6827 4.39901 29.1108C3.78237 28.539 3.40466 27.7553 3.34159 26.9167L3.33325 26.6667V13.3333C3.33299 12.4924 3.6506 11.6824 4.22241 11.0658C4.79423 10.4491 5.57799 10.0714 6.41659 10.0083L6.66659 10H29.9999ZM29.9999 13.3333H6.66659V26.6667H29.9999V13.3333ZM9.99992 15C10.4419 15 10.8659 15.1756 11.1784 15.4882C11.491 15.8007 11.6666 16.2246 11.6666 16.6667V23.3333C11.6666 23.7754 11.491 24.1993 11.1784 24.5118C10.8659 24.8244 10.4419 25 9.99992 25C9.55789 25 9.13397 24.8244 8.82141 24.5118C8.50885 24.1993 8.33325 23.7754 8.33325 23.3333V16.6667C8.33325 16.2246 8.50885 15.8007 8.82141 15.4882C9.13397 15.1756 9.55789 15 9.99992 15ZM14.9999 15C15.4081 15.0001 15.8021 15.1499 16.1072 15.4212C16.4123 15.6925 16.6072 16.0662 16.6549 16.4717L16.6666 16.6667V23.3333C16.6661 23.7581 16.5035 24.1667 16.2118 24.4756C15.9202 24.7845 15.5217 24.9704 15.0976 24.9953C14.6735 25.0202 14.256 24.8822 13.9302 24.6096C13.6044 24.3369 13.3951 23.9502 13.3449 23.5283L13.3333 23.3333V16.6667C13.3333 16.2246 13.5088 15.8007 13.8214 15.4882C14.134 15.1756 14.5579 15 14.9999 15Z" fill="#02243D"/>
</g>
<defs>
<clipPath id="clip0_224_47">
<rect width="40" height="40" fill="white"/>
</clipPath>
</defs>
</svg>
