<svg width="40" height="40" viewBox="0 0 40 40" fill="none" xmlns="http://www.w3.org/2000/svg">
<g clip-path="url(#clip0_224_43)">
<path fill-rule="evenodd" clip-rule="evenodd" d="M6.66659 10C5.78253 10 4.93468 10.3512 4.30956 10.9763C3.68444 11.6014 3.33325 12.4493 3.33325 13.3333V26.6667C3.33325 27.5507 3.68444 28.3986 4.30956 29.0237C4.93468 29.6488 5.78253 30 6.66659 30H29.9999C30.884 30 31.7318 29.6488 32.3569 29.0237C32.9821 28.3986 33.3333 27.5507 33.3333 26.6667V25C34.2173 25 35.0652 24.6488 35.6903 24.0237C36.3154 23.3986 36.6666 22.5507 36.6666 21.6667V18.3333C36.6666 17.4493 36.3154 16.6014 35.6903 15.9763C35.0652 15.3512 34.2173 15 33.3333 15V13.3333C33.3333 12.4493 32.9821 11.6014 32.3569 10.9763C31.7318 10.3512 30.884 10 29.9999 10H6.66659ZM6.66659 13.3333H29.9999V26.6667H6.66659V13.3333Z" fill="#02243D"/>
</g>
<defs>
<clipPath id="clip0_224_43">
<rect width="40" height="40" fill="white"/>
</clipPath>
</defs>
</svg>
