<svg width="40" height="40" viewBox="0 0 40 40" fill="none" xmlns="http://www.w3.org/2000/svg">
<path d="M25.0001 33.205L15.0001 29.705L8.40341 32.255C7.97675 32.4139 7.58064 32.3678 7.21508 32.1167C6.84953 31.8656 6.66675 31.5122 6.66675 31.0567V10.6733C6.66675 10.3756 6.73897 10.1039 6.88341 9.85835C7.02786 9.61279 7.23786 9.44224 7.51341 9.34668L15.0001 6.79501L25.0001 10.295L31.5967 7.74501C32.0234 7.58612 32.4195 7.61612 32.7851 7.83501C33.1506 8.0539 33.3334 8.38057 33.3334 8.81501V29.455C33.3334 29.7739 33.2451 30.0506 33.0684 30.285C32.8929 30.5206 32.6562 30.6861 32.3584 30.7817L25.0001 33.205ZM24.1667 31.1717V11.6717L15.8334 8.76335V28.2633L24.1667 31.1717ZM25.8334 31.1717L31.6667 29.25V9.50001L25.8334 11.6733V31.1717ZM8.33341 30.5L14.1667 28.2633V8.76335L8.33341 10.75V30.5Z" fill="#02243D"/>
</svg>
