<svg width="40" height="40" viewBox="0 0 40 40" fill="none" xmlns="http://www.w3.org/2000/svg">
<path d="M23.3334 34.1666H16.6668C16.3366 34.1623 16.0211 34.0292 15.7876 33.7958C15.5542 33.5623 15.4211 33.2468 15.4168 32.9166V20L6.50009 7.81665C6.35915 7.63342 6.27334 7.41384 6.25267 7.18361C6.23201 6.95339 6.27736 6.72204 6.38342 6.51665C6.48967 6.31185 6.64983 6.13996 6.84663 6.01953C7.04342 5.8991 7.26937 5.83471 7.50009 5.83331H32.5001C32.7308 5.83471 32.9567 5.8991 33.1535 6.01953C33.3503 6.13996 33.5105 6.31185 33.6168 6.51665C33.7228 6.72204 33.7682 6.95339 33.7475 7.18361C33.7268 7.41384 33.641 7.63342 33.5001 7.81665L24.5834 20V32.9166C24.5791 33.2468 24.446 33.5623 24.2125 33.7958C23.979 34.0292 23.6636 34.1623 23.3334 34.1666ZM17.9168 31.6666H22.0834V19.5833C22.0821 19.3177 22.1702 19.0594 22.3334 18.85L30.0001 8.33331H10.0001L17.7001 18.85C17.8633 19.0594 17.9514 19.3177 17.9501 19.5833L17.9168 31.6666Z" fill="#02243D"/>
</svg>
