<svg width="40" height="40" viewBox="0 0 40 40" fill="none" xmlns="http://www.w3.org/2000/svg">
<g clip-path="url(#clip0_216_158)">
<path d="M18.7023 2.44864C18.796 2.10191 19.0234 1.80647 19.3346 1.62706C19.6457 1.44765 20.0153 1.3989 20.3623 1.4915L37.5623 6.09721C37.9101 6.1897 38.2069 6.41654 38.3875 6.72783C38.5681 7.03913 38.6176 7.4094 38.5252 7.75721L31.9252 32.3801C31.8315 32.7274 31.6037 33.0234 31.2919 33.2029C30.9801 33.3823 30.6098 33.4307 30.2623 33.3372L13.0623 28.7315C12.7151 28.6384 12.4189 28.4113 12.239 28.1001C12.059 27.7888 12.0098 27.4189 12.1023 27.0715L18.7023 2.44864Z" stroke="#02243D" stroke-width="2.07143" stroke-linecap="round" stroke-linejoin="round"/>
<path d="M17.4513 7.24286L2.43415 11.2686C2.08689 11.3617 1.79077 11.5888 1.61078 11.9C1.4308 12.2112 1.38166 12.5812 1.47415 12.9286L8.06844 37.5514C8.16213 37.8988 8.38992 38.1947 8.70173 38.3742C9.01354 38.5537 9.38387 38.602 9.7313 38.5086L18.3313 36.2057" stroke="#02243D" stroke-width="2.07143" stroke-linecap="round" stroke-linejoin="round"/>
</g>
<defs>
<clipPath id="clip0_216_158">
<rect width="40" height="40" fill="white"/>
</clipPath>
</defs>
</svg>
