<svg width="40" height="40" viewBox="0 0 40 40" fill="none" xmlns="http://www.w3.org/2000/svg">
<g clip-path="url(#clip0_167_499)">
<path d="M20.111 12.2222C15.7777 12.2222 12.3333 15.6667 12.3333 20C12.3333 24.3333 15.7777 27.7778 20.111 27.7778C24.4444 27.7778 27.8888 24.3333 27.8888 20C27.8888 15.6667 24.4444 12.2222 20.111 12.2222ZM20.111 25.5556C16.9999 25.5556 14.5555 23.1111 14.5555 20C14.5555 16.8889 16.9999 14.4445 20.111 14.4445C23.2221 14.4445 25.6666 16.8889 25.6666 20C25.6666 23.1111 23.2221 25.5556 20.111 25.5556Z" fill="#02243D"/>
<path d="M36.4444 16.3333L33.3333 15.3333L32.6666 13.6667L34.2222 10.7778C34.5555 10.1111 34.4444 9.22223 33.8888 8.66667L31.2222 6.00001C30.6666 5.44445 29.7777 5.33334 29.1111 5.66667L26.2222 7.22223L24.5555 6.55556L23.5555 3.44445C23.3333 2.77778 22.6666 2.22223 21.8888 2.22223H18.1111C17.3333 2.22223 16.6666 2.77778 16.5555 3.55556L15.5555 6.66667C14.8888 6.77778 14.3333 7.00001 13.7777 7.33334L10.8888 5.77778C10.2222 5.44445 9.33328 5.55556 8.77772 6.11112L6.11106 8.77778C5.5555 9.33334 5.44439 10.2222 5.77772 10.8889L7.22217 13.6667C6.99995 14.2222 6.77772 14.8889 6.5555 15.4445L3.44439 16.4445C2.77772 16.6667 2.22217 17.3333 2.22217 18.1111V21.8889C2.22217 22.6667 2.77772 23.3333 3.5555 23.5556L6.66661 24.5556L7.33328 26.2222L5.77772 29.1111C5.44439 29.7778 5.5555 30.6667 6.11106 31.2222L8.77772 33.8889C9.33328 34.4445 10.2222 34.5556 10.8888 34.2222L13.7777 32.6667L15.4444 33.3333L16.4444 36.5556C16.6666 37.2222 17.3333 37.7778 18.1111 37.7778H21.8888C22.6666 37.7778 23.3333 37.2222 23.5555 36.5556L24.5555 33.3333L26.2222 32.6667L29.1111 34.2222C29.7777 34.5556 30.6666 34.4445 31.2222 33.8889L33.8888 31.2222C34.4444 30.6667 34.5555 29.7778 34.2222 29.1111L32.6666 26.2222L33.3333 24.5556L36.5555 23.5556C37.2222 23.3333 37.7777 22.6667 37.7777 21.8889V18.1111C37.7777 17.3333 37.2222 16.5556 36.4444 16.3333ZM35.5555 21.5556L31.5555 22.7778L31.4444 23.3333L30.4444 25.6667L30.1111 26.2222L32.1111 29.8889L29.8888 32.1111L26.2222 30.1111L25.6666 30.4445C24.8888 30.8889 24.1111 31.2222 23.3333 31.4445L22.7777 31.5556L21.5555 35.5556H18.4444L17.2222 31.5556L16.6666 31.4445L14.3333 30.4445L13.7777 30.1111L10.1111 32.1111L7.88883 29.8889L9.88883 26.2222L9.5555 25.6667C9.11106 24.8889 8.77772 24.1111 8.5555 23.3333L8.44439 22.7778L4.44439 21.5556V18.4445L8.22217 17.3333L8.44439 16.7778C8.66661 15.8889 8.99995 15.1111 9.44439 14.3333L9.77772 13.7778L7.88883 10.1111L10.1111 7.8889L13.6666 9.8889L14.2222 9.55556C14.9999 9.11112 15.7777 8.77778 16.6666 8.55556L17.2222 8.33334L18.4444 4.44445H21.5555L22.7777 8.33334L23.3333 8.55556C24.1111 8.77778 24.8888 9.11112 25.6666 9.55556L26.2222 9.8889L29.8888 7.8889L32.1111 10.1111L30.1111 13.7778L30.4444 14.3333C30.8888 15.1111 31.2222 15.8889 31.4444 16.6667L31.5555 17.2222L35.5555 18.4445V21.5556Z" fill="#02243D"/>
</g>
<defs>
<clipPath id="clip0_167_499">
<rect width="40" height="40" fill="white"/>
</clipPath>
</defs>
</svg>
