<svg width="40" height="40" viewBox="0 0 40 40" fill="none" xmlns="http://www.w3.org/2000/svg">
<path d="M14.9999 26.95L9.21658 21.1667C8.90495 20.855 8.48229 20.68 8.04158 20.68C7.60087 20.68 7.17821 20.855 6.86658 21.1667C6.55495 21.4783 6.37988 21.901 6.37988 22.3417C6.37988 22.5599 6.42286 22.776 6.50637 22.9776C6.58988 23.1792 6.71228 23.3624 6.86658 23.5167L13.8333 30.4833C14.4833 31.1333 15.5333 31.1333 16.1833 30.4833L33.8166 12.85C34.1282 12.5384 34.3033 12.1157 34.3033 11.675C34.3033 11.2343 34.1282 10.8116 33.8166 10.5C33.505 10.1884 33.0823 10.0133 32.6416 10.0133C32.2009 10.0133 31.7782 10.1884 31.4666 10.5L14.9999 26.95Z" fill="#02243D"/>
</svg>
