<svg width="40" height="40" viewBox="0 0 40 40" fill="#E2E2E2" xmlns="http://www.w3.org/2000/svg">
<g clip-path="url(#clip0_174_78)">
<path d="M19.9999 2.77783C10.1999 2.77783 2.22217 9.75561 2.22217 18.3334C2.22217 26.9112 10.1999 33.8889 19.9999 33.8889C21.8334 33.8868 23.6579 33.6326 25.4222 33.1334L31.5666 37.0445C31.7344 37.1521 31.928 37.2126 32.1271 37.2197C32.3263 37.2268 32.5237 37.1802 32.6987 37.0848C32.8736 36.9893 33.0197 36.8486 33.1216 36.6773C33.2235 36.506 33.2774 36.3105 33.2777 36.1112V28.6334C34.668 27.2997 35.7774 25.7014 36.5407 23.9325C37.304 22.1636 37.7057 20.2599 37.7222 18.3334C37.7777 9.75561 29.7999 2.77783 19.9999 2.77783ZM31.4333 27.3445C31.3216 27.4481 31.2324 27.5736 31.1712 27.7131C31.11 27.8526 31.0782 28.0033 31.0777 28.1556V34.0889L26.2111 30.9889C26.0753 30.9031 25.9226 30.8478 25.7634 30.8267C25.6041 30.8056 25.4423 30.8192 25.2888 30.8667C23.5763 31.3986 21.7932 31.6683 19.9999 31.6667C11.4222 31.6667 4.44439 25.6889 4.44439 18.3334C4.44439 10.9778 11.4222 5.00005 19.9999 5.00005C28.5777 5.00005 35.5555 10.9778 35.5555 18.3334C35.5302 20.039 35.1507 21.7208 34.441 23.272C33.7314 24.8232 32.7072 26.21 31.4333 27.3445Z" fill="#AEAEAE"/>
<path d="M27.7778 17.2222H12.2222C11.9275 17.2222 11.6449 17.3392 11.4365 17.5476C11.2281 17.756 11.1111 18.0386 11.1111 18.3333C11.1111 18.628 11.2281 18.9106 11.4365 19.119C11.6449 19.3273 11.9275 19.4444 12.2222 19.4444H27.7778C28.0724 19.4444 28.3551 19.3273 28.5634 19.119C28.7718 18.9106 28.8889 18.628 28.8889 18.3333C28.8889 18.0386 28.7718 17.756 28.5634 17.5476C28.3551 17.3392 28.0724 17.2222 27.7778 17.2222Z" fill="#AEAEAE"/>
<path d="M24.1666 22.7778H15.8333C15.5386 22.7778 15.256 22.8949 15.0476 23.1033C14.8392 23.3116 14.7222 23.5943 14.7222 23.8889C14.7222 24.1836 14.8392 24.4662 15.0476 24.6746C15.256 24.883 15.5386 25.0001 15.8333 25.0001H24.1666C24.4613 25.0001 24.7439 24.883 24.9523 24.6746C25.1607 24.4662 25.2777 24.1836 25.2777 23.8889C25.2777 23.5943 25.1607 23.3116 24.9523 23.1033C24.7439 22.8949 24.4613 22.7778 24.1666 22.7778Z" fill="#AEAEAE"/>
<path d="M12.5332 13.889H27.4666C27.7612 13.889 28.0439 13.7719 28.2522 13.5635C28.4606 13.3552 28.5777 13.0725 28.5777 12.7779C28.5777 12.4832 28.4606 12.2006 28.2522 11.9922C28.0439 11.7838 27.7612 11.6667 27.4666 11.6667H12.5332C12.2385 11.6667 11.9559 11.7838 11.7476 11.9922C11.5392 12.2006 11.4221 12.4832 11.4221 12.7779C11.4221 13.0725 11.5392 13.3552 11.7476 13.5635C11.9559 13.7719 12.2385 13.889 12.5332 13.889Z" fill="#AEAEAE"/>
</g>
<defs>
<clipPath id="clip0_174_78">
<rect width="40" height="40" fill="white"/>
</clipPath>
</defs>
</svg>
