<svg width="40" height="40" viewBox="0 0 40 40" fill="none" xmlns="http://www.w3.org/2000/svg">
<path d="M11.0266 35C10.2799 35 9.64436 34.7378 9.11992 34.2133C8.59547 33.6889 8.33325 33.0539 8.33325 32.3083V17.6917C8.33325 16.9472 8.59547 16.3122 9.11992 15.7867C9.64436 15.2622 10.2799 15 11.0266 15H13.3333V11.6667C13.3333 9.81 13.9805 8.235 15.2749 6.94167C16.5683 5.64722 18.1433 5 19.9999 5C21.8566 5 23.4321 5.64722 24.7266 6.94167C26.021 8.23611 26.6677 9.81111 26.6666 11.6667V15H28.9749C29.7194 15 30.3544 15.2622 30.8799 15.7867C31.4044 16.3111 31.6666 16.9467 31.6666 17.6933V32.3083C31.6666 33.0528 31.4044 33.6878 30.8799 34.2133C30.3555 34.7378 29.7205 35 28.9749 35H11.0266ZM11.0266 33.3333H28.9749C29.2738 33.3333 29.5194 33.2372 29.7116 33.045C29.9038 32.8528 29.9999 32.6072 29.9999 32.3083V17.6917C29.9999 17.3928 29.9038 17.1472 29.7116 16.955C29.5194 16.7628 29.2738 16.6667 28.9749 16.6667H11.0249C10.726 16.6667 10.4805 16.7628 10.2883 16.955C10.096 17.1472 9.99992 17.3933 9.99992 17.6933V32.3083C9.99992 32.6072 10.096 32.8528 10.2883 33.045C10.4805 33.2372 10.7266 33.3333 11.0266 33.3333ZM19.9999 27.5C20.7033 27.5 21.2955 27.2589 21.7766 26.7767C22.2588 26.2956 22.4999 25.7033 22.4999 25C22.4999 24.2967 22.2588 23.7044 21.7766 23.2233C21.2944 22.7422 20.7021 22.5011 19.9999 22.5C19.2977 22.4989 18.7055 22.74 18.2233 23.2233C17.741 23.7044 17.4999 24.2967 17.4999 25C17.4999 25.7033 17.741 26.2956 18.2233 26.7767C18.7044 27.2589 19.2966 27.5 19.9999 27.5ZM14.9999 15H24.9999V11.6667C24.9999 10.2778 24.5138 9.09722 23.5416 8.125C22.5694 7.15278 21.3888 6.66667 19.9999 6.66667C18.611 6.66667 17.4305 7.15278 16.4583 8.125C15.486 9.09722 14.9999 10.2778 14.9999 11.6667V15Z" fill="#02243D"/>
</svg>
