<svg width="40" height="40" viewBox="0 0 40 40" fill="none" xmlns="http://www.w3.org/2000/svg">
<path d="M25.1884 5.34999L25.3451 5.48833L34.5117 14.655C34.7927 14.9375 34.9632 15.3112 34.9923 15.7085C35.0214 16.1059 34.9072 16.5005 34.6705 16.8209C34.4337 17.1413 34.09 17.3663 33.7016 17.4551C33.3132 17.5439 32.9059 17.4907 32.5534 17.305L27.2667 22.59L24.8934 28.9183C24.8309 29.0853 24.742 29.2412 24.6301 29.38L24.5134 29.5133L22.0134 32.0133C21.7262 32.3 21.3442 32.4721 20.9392 32.4973C20.5342 32.5224 20.1339 32.399 19.8134 32.15L19.6551 32.0117L15.0001 27.3583L8.67838 33.6783C8.37845 33.9772 7.97599 34.1508 7.55275 34.1637C7.1295 34.1766 6.7172 34.028 6.39959 33.7479C6.08198 33.4679 5.88288 33.0774 5.84272 32.6559C5.80256 32.2343 5.92437 31.8133 6.18338 31.4783L6.32172 31.3217L12.6417 25L7.98839 20.345C7.70142 20.058 7.52904 19.6762 7.50357 19.2711C7.4781 18.8661 7.6013 18.4657 7.85005 18.145L7.98839 17.9883L10.4884 15.4883C10.6141 15.3621 10.7593 15.2569 10.9184 15.1767L11.0817 15.1067L17.4084 12.7317L22.6934 7.44833C22.5132 7.11138 22.4542 6.72274 22.5264 6.3475C22.5985 5.97226 22.7975 5.63322 23.0898 5.38716C23.3821 5.14109 23.7502 5.00296 24.1322 4.99589C24.5143 4.98882 24.8871 5.11491 25.1884 5.34999Z" fill="#02243D"/>
</svg>
