<svg width="40" height="40" viewBox="0 0 40 40" fill="none" xmlns="http://www.w3.org/2000/svg">
<path fill-rule="evenodd" clip-rule="evenodd" d="M17.4999 3.33337C15.2409 3.33357 13.0147 3.87398 11.007 4.90953C8.99935 5.94508 7.26842 7.44574 5.95866 9.2863C4.6489 11.1269 3.79828 13.254 3.47778 15.4901C3.15728 17.7263 3.37618 20.0067 4.11623 22.141C4.85628 24.2754 6.09601 26.2018 7.732 27.7596C9.36798 29.3174 11.3528 30.4613 13.5208 31.096C15.6888 31.7307 17.9772 31.8378 20.195 31.4082C22.4128 30.9787 24.4957 30.025 26.2699 28.6267L32.3566 34.7134C32.6709 35.017 33.0919 35.185 33.5289 35.1812C33.9659 35.1774 34.384 35.0021 34.693 34.6931C35.002 34.3841 35.1773 33.966 35.1811 33.529C35.1849 33.092 35.0169 32.671 34.7133 32.3567L28.6266 26.27C30.2733 24.1811 31.2985 21.6707 31.5851 19.0263C31.8717 16.3818 31.4079 13.7101 30.247 11.3169C29.086 8.92365 27.2747 6.90563 25.0204 5.49376C22.7661 4.08188 20.1599 3.3332 17.4999 3.33337ZM6.6666 17.5C6.6666 14.6269 7.80797 11.8714 9.83961 9.83972C11.8713 7.80807 14.6268 6.66671 17.4999 6.66671C20.3731 6.66671 23.1286 7.80807 25.1603 9.83972C27.1919 11.8714 28.3333 14.6269 28.3333 17.5C28.3333 20.3732 27.1919 23.1287 25.1603 25.1604C23.1286 27.192 20.3731 28.3334 17.4999 28.3334C14.6268 28.3334 11.8713 27.192 9.83961 25.1604C7.80797 23.1287 6.6666 20.3732 6.6666 17.5Z" fill="#02243D"/>
</svg>
