<svg width="24" height="24" viewBox="0 0 24 24" fill="none" xmlns="http://www.w3.org/2000/svg">
    <g clip-path="url(#clip0_2432_220)">
        <path d="M12.0667 7.33334C9.46669 7.33334 7.40002 9.40001 7.40002 12C7.40002 14.6 9.46669 16.6667 12.0667 16.6667C14.6667 16.6667 16.7334 14.6 16.7334 12C16.7334 9.40001 14.6667 7.33334 12.0667 7.33334ZM12.0667 15.3333C10.2 15.3333 8.73336 13.8667 8.73336 12C8.73336 10.1333 10.2 8.66668 12.0667 8.66668C13.9334 8.66668 15.4 10.1333 15.4 12C15.4 13.8667 13.9334 15.3333 12.0667 15.3333Z" fill="#CDCDCD"/>
        <path d="M21.8667 9.80001L20 9.20001L19.6 8.20001L20.5334 6.46668C20.7334 6.06668 20.6667 5.53334 20.3334 5.20001L18.7334 3.60001C18.4 3.26668 17.8667 3.20001 17.4667 3.40001L15.7334 4.33334L14.7334 3.93334L14.1334 2.06668C14 1.66668 13.6 1.33334 13.1334 1.33334H10.8667C10.4 1.33334 10 1.66668 9.93337 2.13334L9.33337 4.00001C8.93337 4.06668 8.60004 4.20001 8.26671 4.40001L6.53337 3.46668C6.13337 3.26668 5.60004 3.33334 5.26671 3.66668L3.66671 5.26668C3.33337 5.60001 3.26671 6.13334 3.46671 6.53334L4.33337 8.20001C4.20004 8.53334 4.06671 8.93334 3.93337 9.26668L2.06671 9.86668C1.66671 10 1.33337 10.4 1.33337 10.8667V13.1333C1.33337 13.6 1.66671 14 2.13337 14.1333L4.00004 14.7333L4.40004 15.7333L3.46671 17.4667C3.26671 17.8667 3.33337 18.4 3.66671 18.7333L5.26671 20.3333C5.60004 20.6667 6.13337 20.7333 6.53337 20.5333L8.26671 19.6L9.26671 20L9.86671 21.9333C10 22.3333 10.4 22.6667 10.8667 22.6667H13.1334C13.6 22.6667 14 22.3333 14.1334 21.9333L14.7334 20L15.7334 19.6L17.4667 20.5333C17.8667 20.7333 18.4 20.6667 18.7334 20.3333L20.3334 18.7333C20.6667 18.4 20.7334 17.8667 20.5334 17.4667L19.6 15.7333L20 14.7333L21.9334 14.1333C22.3334 14 22.6667 13.6 22.6667 13.1333V10.8667C22.6667 10.4 22.3334 9.93334 21.8667 9.80001ZM21.3334 12.9333L18.9334 13.6667L18.8667 14L18.2667 15.4L18.0667 15.7333L19.2667 17.9333L17.9334 19.2667L15.7334 18.0667L15.4 18.2667C14.9334 18.5333 14.4667 18.7333 14 18.8667L13.6667 18.9333L12.9334 21.3333H11.0667L10.3334 18.9333L10 18.8667L8.60004 18.2667L8.26671 18.0667L6.06671 19.2667L4.73337 17.9333L5.93337 15.7333L5.73337 15.4C5.46671 14.9333 5.26671 14.4667 5.13337 14L5.06671 13.6667L2.66671 12.9333V11.0667L4.93337 10.4L5.06671 10.0667C5.20004 9.53334 5.40004 9.06668 5.66671 8.60001L5.86671 8.26668L4.73337 6.06668L6.06671 4.73334L8.20004 5.93334L8.53337 5.73334C9.00004 5.46668 9.46671 5.26668 10 5.13334L10.3334 5.00001L11.0667 2.66668H12.9334L13.6667 5.00001L14 5.13334C14.4667 5.26668 14.9334 5.46668 15.4 5.73334L15.7334 5.93334L17.9334 4.73334L19.2667 6.06668L18.0667 8.26668L18.2667 8.60001C18.5334 9.06668 18.7334 9.53334 18.8667 10L18.9334 10.3333L21.3334 11.0667V12.9333Z" fill="#CDCDCD"/>
    </g>
    <defs>
        <clipPath id="clip0_2432_220">
            <rect width="24" height="24" fill="white"/>
        </clipPath>
    </defs>
</svg>

