<svg width="40" height="40" viewBox="0 0 40 40" fill="none" xmlns="http://www.w3.org/2000/svg">
<path d="M26.66 25.676L35.654 16.83L35.768 16.7C35.9356 16.4729 36.0162 16.1933 35.9953 15.9118C35.9744 15.6304 35.8533 15.3658 35.654 15.166L26.66 6.32396L26.536 6.21796C25.816 5.67796 24.756 6.19796 24.756 7.15596V11.416L24.306 11.446C17.18 12.01 13.006 16.52 12.01 24.7C11.882 25.75 13.086 26.408 13.866 25.712C16.728 23.156 19.686 21.568 22.756 20.932C23.248 20.8293 23.7427 20.7513 24.24 20.698L24.756 20.652V24.844L24.766 25.008C24.886 25.914 25.984 26.34 26.66 25.676ZM24.452 13.44L26.756 13.286V9.21996L33.648 15.996L26.756 22.776V18.462L24.044 18.706H24.028C20.622 19.072 17.408 20.436 14.374 22.71C14.97 20.032 15.988 18.018 17.326 16.576C18.986 14.786 21.306 13.692 24.452 13.44ZM11 7.99996C9.67392 7.99996 8.40215 8.52675 7.46447 9.46443C6.52678 10.4021 6 11.6739 6 13V29C6 30.326 6.52678 31.5978 7.46447 32.5355C8.40215 33.4732 9.67392 34 11 34H27C28.3261 34 29.5979 33.4732 30.5355 32.5355C31.4732 31.5978 32 30.326 32 29V27C32 26.7347 31.8946 26.4804 31.7071 26.2929C31.5196 26.1053 31.2652 26 31 26C30.7348 26 30.4804 26.1053 30.2929 26.2929C30.1054 26.4804 30 26.7347 30 27V29C30 29.7956 29.6839 30.5587 29.1213 31.1213C28.5587 31.6839 27.7956 32 27 32H11C10.2044 32 9.44129 31.6839 8.87868 31.1213C8.31607 30.5587 8 29.7956 8 29V13C8 12.2043 8.31607 11.4413 8.87868 10.8786C9.44129 10.316 10.2044 9.99996 11 9.99996H17C17.2652 9.99996 17.5196 9.8946 17.7071 9.70707C17.8946 9.51953 18 9.26518 18 8.99996C18 8.73475 17.8946 8.48039 17.7071 8.29286C17.5196 8.10532 17.2652 7.99996 17 7.99996H11Z" fill="#02243D"/>
</svg>
