<svg width="40" height="40" viewBox="0 0 40 40" fill="none" xmlns="http://www.w3.org/2000/svg">
<path d="M3.43339 16.7667C4.28339 17.6167 5.63339 17.7 6.55006 16.9334C14.3334 10.5334 25.6334 10.5334 33.4334 16.9167C34.3667 17.6834 35.7334 17.6167 36.5834 16.7667C37.5667 15.7834 37.5001 14.15 36.4167 13.2667C26.9001 5.48337 13.1334 5.48337 3.60006 13.2667C2.51673 14.1334 2.43339 15.7667 3.43339 16.7667ZM16.3667 29.7L18.8167 32.15C19.4667 32.8 20.5167 32.8 21.1667 32.15L23.6167 29.7C24.4001 28.9167 24.2334 27.5667 23.2334 27.05C22.2253 26.5324 21.1083 26.2624 19.9751 26.2624C18.8418 26.2624 17.7249 26.5324 16.7167 27.05C15.7667 27.5667 15.5834 28.9167 16.3667 29.7ZM10.1501 23.4834C10.9667 24.3 12.2501 24.3834 13.2001 23.7C15.1885 22.2932 17.5643 21.5377 20.0001 21.5377C22.4358 21.5377 24.8116 22.2932 26.8001 23.7C27.7501 24.3667 29.0334 24.3 29.8501 23.4834L29.8667 23.4667C30.8667 22.4667 30.8001 20.7667 29.6501 19.95C23.9167 15.8 16.1001 15.8 10.3501 19.95C9.20006 20.7834 9.13339 22.4667 10.1501 23.4834Z" fill="#02243D"/>
</svg>
