<svg width="20" height="20" viewBox="0 0 17 16" fill="none" xmlns="http://www.w3.org/2000/svg">
    <path d="M8.89731 1.362C9.61398 1.41266 10.27 1.54933 10.726 1.99933C11.1913 2.458 11.3393 3.13 11.3393 3.96C11.3393 4.248 11.3013 4.59666 11.2613 4.91866L11.2106 5.3L11.1733 5.586H12.54C13.0413 5.586 13.504 5.658 13.8973 5.85533C14.3053 6.05933 14.6053 6.38 14.8006 6.80933C15.168 7.61866 15.162 8.81466 14.9493 10.4053L14.9153 10.6653C14.826 11.3387 14.75 11.9133 14.6513 12.3853C14.5406 12.9153 14.3886 13.3827 14.1073 13.752C13.514 14.5307 12.5106 14.6667 11.052 14.6667C9.49798 14.6667 8.33198 14.388 7.35598 14.1173L6.95465 14.004C6.27265 13.8107 5.71998 13.6533 5.16131 13.6133C5.13316 13.9018 4.99864 14.1694 4.78396 14.3642C4.56928 14.5589 4.28981 14.6667 3.99998 14.6667H2.99998C2.69056 14.6667 2.39381 14.5437 2.17502 14.325C1.95623 14.1062 1.83331 13.8094 1.83331 13.5V6.5C1.83331 5.856 2.35598 5.33333 2.99998 5.33333H3.99998C4.29589 5.33334 4.58073 5.4458 4.79685 5.64793C5.01296 5.85006 5.1442 6.12675 5.16398 6.422C5.28361 6.40876 5.4009 6.37938 5.51265 6.33466C6.15331 6.058 7.36198 5.312 7.36198 3.53466V2.83266C7.36198 2.01933 8.02998 1.30066 8.89731 1.362ZM5.16665 12.612C5.87265 12.6547 6.55265 12.8487 7.24531 13.0467L7.62398 13.1533C8.56131 13.4133 9.62798 13.6667 11.052 13.6667C12.57 13.6667 13.0546 13.484 13.312 13.146C13.456 12.9573 13.5706 12.6673 13.672 12.1807C13.7626 11.7473 13.8333 11.214 13.9246 10.5293L13.958 10.2733C14.1713 8.67333 14.1266 7.74333 13.89 7.22333C13.7833 6.98866 13.64 6.84466 13.45 6.74933C13.2466 6.64733 12.9566 6.586 12.54 6.586H10.96C10.506 6.586 10.098 6.206 10.1526 5.70066C10.17 5.53866 10.196 5.34266 10.2226 5.14466L10.2693 4.79333C10.3093 4.472 10.3393 4.17933 10.3393 3.96C10.3393 3.21 10.1973 2.882 10.024 2.71133C9.84065 2.53133 9.50798 2.408 8.82731 2.35933C8.59331 2.34333 8.36198 2.542 8.36198 2.83266V3.53466C8.36198 5.90133 6.70331 6.91 5.90865 7.25266C5.66065 7.35933 5.40598 7.40733 5.16665 7.426V12.612ZM2.99998 13.6667H3.99998C4.04418 13.6667 4.08658 13.6491 4.11783 13.6178C4.14909 13.5866 4.16665 13.5442 4.16665 13.5V6.5C4.16665 6.45579 4.14909 6.4134 4.11783 6.38215C4.08658 6.35089 4.04418 6.33333 3.99998 6.33333H2.99998C2.95578 6.33333 2.91338 6.35089 2.88213 6.38215C2.85087 6.4134 2.83331 6.45579 2.83331 6.5V13.5C2.83331 13.592 2.90798 13.6667 2.99998 13.6667Z" fill="#1F7C4A" />
</svg>