<svg width="20" height="20" viewBox="0 0 16 16" fill="none" xmlns="http://www.w3.org/2000/svg">
    <path d="M8.39731 14.638C7.52998 14.6993 6.86198 13.9807 6.86198 13.1673V12.4653C6.86198 10.688 5.65331 9.942 5.01265 9.66534C4.90087 9.62085 4.78358 9.5917 4.66398 9.57867C4.64403 9.8738 4.51273 10.1503 4.29663 10.3523C4.08053 10.5543 3.79578 10.6667 3.49998 10.6667H2.49998C2.19056 10.6667 1.89381 10.5438 1.67502 10.325C1.45623 10.1062 1.33331 9.80942 1.33331 9.5V2.5C1.33331 1.856 1.85598 1.33334 2.49998 1.33334H3.49998C3.78981 1.33329 4.06928 1.44113 4.28396 1.63584C4.49864 1.83056 4.63316 2.09821 4.66131 2.38667C5.21998 2.34667 5.77265 2.18934 6.45465 1.996L6.85598 1.88267C7.83198 1.61267 8.99798 1.33334 10.552 1.33334C12.0106 1.33334 13.014 1.46934 13.6073 2.248C13.8886 2.61734 14.0406 3.08467 14.1513 3.61467C14.25 4.08667 14.326 4.66134 14.4153 5.33467L14.4493 5.59467C14.662 7.18534 14.668 8.38134 14.3006 9.19067C14.1053 9.62 13.8053 9.94067 13.3973 10.1447C13.004 10.342 12.5413 10.414 12.04 10.414H10.6733L10.7106 10.7L10.7613 11.0813C10.8013 11.4033 10.8393 11.752 10.8393 12.04C10.8393 12.87 10.6913 13.542 10.226 14.0013C9.76998 14.4507 9.11398 14.5873 8.39731 14.638ZM4.66665 3.388V8.574C4.92198 8.59067 5.17265 8.64934 5.40865 8.74734C6.20331 9.09 7.86198 10.0987 7.86198 12.4653V13.1673C7.86198 13.458 8.09331 13.6567 8.32731 13.6407C9.00798 13.5927 9.34065 13.4687 9.52398 13.2887C9.69731 13.118 9.83931 12.79 9.83931 12.04C9.83931 11.8213 9.80931 11.528 9.76931 11.2067L9.72265 10.8553C9.69598 10.6573 9.66998 10.462 9.65265 10.2993C9.59798 9.794 10.006 9.414 10.46 9.414H12.04C12.4566 9.414 12.7466 9.35267 12.95 9.25067C13.14 9.156 13.2833 9.01134 13.39 8.77667C13.6266 8.25667 13.6713 7.326 13.458 5.72734L13.4246 5.47067C13.3333 4.786 13.2626 4.25267 13.172 3.81934C13.0706 3.33267 12.956 3.04267 12.812 2.854C12.5546 2.516 12.07 2.33334 10.552 2.33334C9.12798 2.33334 8.06131 2.586 7.12398 2.84734C6.99687 2.88245 6.87065 2.918 6.74531 2.954C6.05265 3.15134 5.37265 3.34534 4.66665 3.388ZM2.49998 2.33334C2.45578 2.33334 2.41338 2.3509 2.38213 2.38215C2.35087 2.41341 2.33331 2.4558 2.33331 2.5V9.5C2.33331 9.592 2.40798 9.66667 2.49998 9.66667H3.49998C3.54418 9.66667 3.58658 9.64911 3.61783 9.61785C3.64909 9.5866 3.66665 9.54421 3.66665 9.5V2.5C3.66665 2.4558 3.64909 2.41341 3.61783 2.38215C3.58658 2.3509 3.54418 2.33334 3.49998 2.33334H2.49998Z" fill="#FF4E4E" />
</svg>