<svg width="24" height="24" viewBox="0 0 24 24" fill="none" xmlns="http://www.w3.org/2000/svg">
<path d="M15.88 14.71L12 10.83L8.12001 14.71C7.73001 15.1 7.10001 15.1 6.71001 14.71C6.32001 14.32 6.32001 13.69 6.71001 13.3L11.3 8.70999C11.69 8.31999 12.32 8.31999 12.71 8.70999L17.3 13.3C17.69 13.69 17.69 14.32 17.3 14.71C16.91 15.09 16.27 15.1 15.88 14.71Z" fill="black"/>
<mask id="mask0_116_452" style="mask-type:alpha" maskUnits="userSpaceOnUse" x="6" y="8" width="12" height="8">
<path d="M15.88 14.71L12 10.83L8.12001 14.71C7.73001 15.1 7.10001 15.1 6.71001 14.71C6.32001 14.32 6.32001 13.69 6.71001 13.3L11.3 8.70999C11.69 8.31999 12.32 8.31999 12.71 8.70999L17.3 13.3C17.69 13.69 17.69 14.32 17.3 14.71C16.91 15.09 16.27 15.1 15.88 14.71Z" fill="white"/>
</mask>
<g mask="url(#mask0_116_452)">
<path fill-rule="evenodd" clip-rule="evenodd" d="M0 24H24V0H0V24Z" fill="#444444"/>
</g>
</svg>
