<svg width="130" height="56" viewBox="0 0 130 56" fill="none" xmlns="http://www.w3.org/2000/svg">
<g clip-path="url(#clip0_1184_878)">
<path d="M20.9004 31.4997V43.7053H15.9166V32.2862C15.9166 28.9041 13.8788 26.6446 10.797 26.6446C7.50069 26.6446 4.99092 29.2044 4.99092 32.9369V43.7124H0V22.1685H4.89797V25.1216H5.06958C6.62835 23.0409 9.14526 21.7395 12.0554 21.7395C17.4325 21.7395 20.9004 25.4291 20.9004 31.4997Z" fill="#FFFFFF"/>
<path d="M59.0756 27.0235V22.1613H49.7515V14.6677H44.7678V22.1684H29.2373C25.5048 22.1684 22.7305 24.7282 22.7305 28.3248C22.7305 31.185 24.7254 33.4445 27.7643 34.1381L36.3089 36.0043C37.0454 36.1759 37.4387 36.6979 37.4387 37.4344C37.4387 38.3424 36.8309 38.9073 36.0515 38.9073H23.6028V43.7195H36.0944C39.8626 43.7195 42.687 41.0739 42.687 37.4272C42.687 34.5242 40.6921 32.2218 37.5674 31.5711L29.0657 29.7049C28.4579 29.5761 27.9788 29.0971 27.9788 28.3606C27.9788 27.5383 28.5437 27.0163 29.366 27.0163H40.8923H44.7678V37.8562C44.7678 41.5458 46.9772 43.7123 50.7097 43.7123H59.0756V38.8573H51.7036C50.4451 38.8573 49.7515 38.1637 49.7515 36.991V27.0163H59.0756V27.0235Z" fill="#FFFFFF"/>
<path d="M82.4862 34.6601H65.4399C65.8331 37.4344 68.1713 39.651 71.5534 39.7368C73.9845 39.7797 76.1082 38.6929 76.9733 36.9625H82.1359C80.7487 41.646 76.5372 44.3345 71.4676 44.3345C64.3959 44.3345 60.2773 39.0862 60.2773 32.9726C60.2773 26.8591 64.8321 21.5679 71.4676 21.5679C78.6251 21.5679 83.1298 27.2524 82.4791 34.6673M65.5257 30.5916H77.3237C76.673 27.9031 74.4207 26.1655 71.3818 26.1655C68.3429 26.1655 66.1335 27.946 65.5257 30.5916Z" fill="#FFFFFF"/>
<path d="M101.521 30.1912C100.784 28.0247 98.6533 26.373 95.8361 26.373C91.8891 26.373 89.4151 29.326 89.4151 32.9656C89.4151 36.6051 91.8891 39.5582 95.8361 39.5582C98.5675 39.5582 100.777 37.9565 101.521 35.6541H106.769C105.818 40.6378 101.563 44.3274 95.8003 44.3274C88.9074 44.3274 84.4385 39.2936 84.4385 32.9227C84.4385 26.5517 88.9074 21.5608 95.8003 21.5608C101.563 21.5608 105.818 25.2075 106.769 30.1912H101.521Z" fill="#FFFFFF"/>
<path d="M130 31.4996V43.7053H125.016V32.279C125.016 28.8969 122.978 26.6374 119.897 26.6374C116.6 26.6374 114.091 29.1972 114.091 32.9226V43.6981H109.1V12.6729H114.091V25.1216H114.305C115.821 23.0408 118.252 21.7395 121.162 21.7395C126.539 21.7395 130.007 25.429 130.007 31.4996" fill="#FFFFFF"/>
</g>
<defs>
<clipPath id="clip0_1184_878">
<rect width="130" height="31.6545" fill="white" transform="translate(0 12.6729)"/>
</clipPath>
</defs>
</svg>
