<svg width="25" height="24" viewBox="0 0 25 24" fill="none" xmlns="http://www.w3.org/2000/svg">
<path d="M19.5004 10.9997H8.33041L13.2104 6.11967C13.6004 5.72967 13.6004 5.08967 13.2104 4.69967C13.1179 4.60697 13.008 4.53342 12.887 4.48324C12.7661 4.43306 12.6364 4.40723 12.5054 4.40723C12.3744 4.40723 12.2448 4.43306 12.1238 4.48324C12.0028 4.53342 11.8929 4.60697 11.8004 4.69967L5.21041 11.2897C5.11771 11.3822 5.04416 11.4921 4.99398 11.613C4.9438 11.734 4.91797 11.8637 4.91797 11.9947C4.91797 12.1256 4.9438 12.2553 4.99398 12.3763C5.04416 12.4973 5.11771 12.6072 5.21041 12.6997L11.8004 19.2897C11.893 19.3823 12.0029 19.4557 12.1239 19.5058C12.2448 19.5559 12.3745 19.5817 12.5054 19.5817C12.6363 19.5817 12.766 19.5559 12.887 19.5058C13.0079 19.4557 13.1178 19.3823 13.2104 19.2897C13.303 19.1971 13.3764 19.0872 13.4265 18.9662C13.4766 18.8452 13.5024 18.7156 13.5024 18.5847C13.5024 18.4537 13.4766 18.3241 13.4265 18.2031C13.3764 18.0822 13.303 17.9723 13.2104 17.8797L8.33041 12.9997H19.5004C20.0504 12.9997 20.5004 12.5497 20.5004 11.9997C20.5004 11.4497 20.0504 10.9997 19.5004 10.9997Z" fill="white"/>
</svg>
