<svg width="25" height="24" viewBox="0 0 25 24" fill="none" xmlns="http://www.w3.org/2000/svg">
<path d="M18.25 3V3.5H18.75H19.75C20.5739 3.5 21.25 4.17614 21.25 5V19C21.25 19.8239 20.5739 20.5 19.75 20.5H5.75C4.92614 20.5 4.25 19.8239 4.25 19V5C4.25 4.17614 4.92614 3.5 5.75 3.5H6.75H7.25V3V1.5H8.25V3V3.5H8.75H16.75H17.25V3V1.5H18.25V3ZM20.25 5V4.5H19.75H5.75H5.25V5V7V7.5H5.75H19.75H20.25V7V5ZM5.25 19V19.5H5.75H19.75H20.25V19V9V8.5H19.75H5.75H5.25V9V19ZM13.25 12.5H17.25V16.5H13.25V12.5Z" fill="white" stroke="white"/>
</svg>
