<svg width="25" height="24" viewBox="0 0 25 24" fill="none" xmlns="http://www.w3.org/2000/svg">
<path d="M9.50015 16.1698L6.03015 12.6998C5.84317 12.5129 5.58957 12.4078 5.32515 12.4078C5.06072 12.4078 4.80712 12.5129 4.62015 12.6998C4.43317 12.8868 4.32812 13.1404 4.32812 13.4048C4.32813 13.5358 4.35391 13.6654 4.40402 13.7864C4.45412 13.9073 4.52756 14.0173 4.62015 14.1098L8.80015 18.2898C9.19015 18.6798 9.82015 18.6798 10.2101 18.2898L20.7901 7.70983C20.9771 7.52286 21.0822 7.26926 21.0822 7.00483C21.0822 6.74041 20.9771 6.48681 20.7901 6.29983C20.6032 6.11286 20.3496 6.00781 20.0851 6.00781C19.8207 6.00781 19.5671 6.11286 19.3801 6.29983L9.50015 16.1698Z" fill="white"/>
</svg>
