<svg width="25" height="24" viewBox="0 0 25 24" fill="none" xmlns="http://www.w3.org/2000/svg">
<mask id="path-1-inside-1_4548_12991" fill="white">
<path d="M8.00554 15.2649C8.0318 15.3599 8.07651 15.4487 8.13711 15.5264C8.19771 15.604 8.27301 15.669 8.35872 15.7176C8.44443 15.7661 8.53886 15.7973 8.63663 15.8094C8.7344 15.8215 8.83359 15.8142 8.92854 15.7879C9.02348 15.7616 9.11233 15.7169 9.18999 15.6563C9.26766 15.5957 9.33263 15.5204 9.3812 15.4347C9.42976 15.349 9.46097 15.2546 9.47304 15.1568C9.48511 15.059 9.4778 14.9599 9.45154 14.8649L8.00554 15.2649ZM3.69954 4.72491C3.60422 4.69706 3.50432 4.68843 3.40564 4.6995C3.30695 4.71057 3.21145 4.74113 3.12467 4.7894C3.03789 4.83768 2.96156 4.9027 2.90011 4.9807C2.83866 5.05871 2.79331 5.14814 2.7667 5.24381C2.74008 5.33948 2.73273 5.43948 2.74507 5.53801C2.75741 5.63654 2.78919 5.73164 2.83857 5.8178C2.88795 5.90395 2.95395 5.97944 3.03274 6.03988C3.11153 6.10032 3.20153 6.14452 3.29754 6.16991L3.69954 4.72491ZM20.6875 15.7249C20.7852 15.7023 20.8773 15.6604 20.9585 15.6016C21.0397 15.5428 21.1083 15.4683 21.1602 15.3826C21.2121 15.2968 21.2463 15.2016 21.2607 15.1024C21.2752 15.0032 21.2696 14.9021 21.2444 14.8051C21.2191 14.7081 21.1746 14.6172 21.1136 14.5376C21.0526 14.4581 20.9763 14.3916 20.8891 14.3421C20.802 14.2926 20.7058 14.261 20.6062 14.2493C20.5067 14.2376 20.4058 14.246 20.3095 14.2739L20.6875 15.7249ZM10.6965 17.5589C11.0065 18.6789 10.3265 19.8619 9.12254 20.1749L9.49954 21.6259C11.4765 21.1129 12.6845 19.1239 12.1425 17.1589L10.6965 17.5589ZM9.12254 20.1749C7.91054 20.4899 6.69454 19.7859 6.38254 18.6559L4.93654 19.0559C5.47654 21.0109 7.53054 22.1379 9.49954 21.6259L9.12254 20.1749ZM6.38254 18.6559C6.07254 17.5359 6.75254 16.3529 7.95654 16.0399L7.57954 14.5899C5.60254 15.1029 4.39354 17.0909 4.93654 19.0559L6.38254 18.6559ZM7.95654 16.0399C9.16854 15.7249 10.3845 16.4289 10.6965 17.5589L12.1425 17.1589C11.6025 15.2039 9.54854 14.0769 7.57954 14.5889L7.95654 16.0399ZM9.45154 14.8649L7.29954 7.07491L5.85354 7.47491L8.00554 15.2649L9.45154 14.8649ZM5.40354 5.19691L3.69954 4.72491L3.29754 6.16991L5.00254 6.64291L5.40354 5.19691ZM7.29954 7.07491C7.17266 6.62476 6.93132 6.21516 6.59904 5.88603C6.26676 5.55691 5.85488 5.31948 5.40354 5.19691L5.00454 6.64291C5.42954 6.76091 5.74554 7.08391 5.85354 7.47491L7.29954 7.07491ZM11.6095 18.0849L20.6875 15.7249L20.3105 14.2739L11.2315 16.6339L11.6095 18.0849Z"/>
</mask>
<path d="M8.00554 15.2649C8.0318 15.3599 8.07651 15.4487 8.13711 15.5264C8.19771 15.604 8.27301 15.669 8.35872 15.7176C8.44443 15.7661 8.53886 15.7973 8.63663 15.8094C8.7344 15.8215 8.83359 15.8142 8.92854 15.7879C9.02348 15.7616 9.11233 15.7169 9.18999 15.6563C9.26766 15.5957 9.33263 15.5204 9.3812 15.4347C9.42976 15.349 9.46097 15.2546 9.47304 15.1568C9.48511 15.059 9.4778 14.9599 9.45154 14.8649L8.00554 15.2649ZM3.69954 4.72491C3.60422 4.69706 3.50432 4.68843 3.40564 4.6995C3.30695 4.71057 3.21145 4.74113 3.12467 4.7894C3.03789 4.83768 2.96156 4.9027 2.90011 4.9807C2.83866 5.05871 2.79331 5.14814 2.7667 5.24381C2.74008 5.33948 2.73273 5.43948 2.74507 5.53801C2.75741 5.63654 2.78919 5.73164 2.83857 5.8178C2.88795 5.90395 2.95395 5.97944 3.03274 6.03988C3.11153 6.10032 3.20153 6.14452 3.29754 6.16991L3.69954 4.72491ZM20.6875 15.7249C20.7852 15.7023 20.8773 15.6604 20.9585 15.6016C21.0397 15.5428 21.1083 15.4683 21.1602 15.3826C21.2121 15.2968 21.2463 15.2016 21.2607 15.1024C21.2752 15.0032 21.2696 14.9021 21.2444 14.8051C21.2191 14.7081 21.1746 14.6172 21.1136 14.5376C21.0526 14.4581 20.9763 14.3916 20.8891 14.3421C20.802 14.2926 20.7058 14.261 20.6062 14.2493C20.5067 14.2376 20.4058 14.246 20.3095 14.2739L20.6875 15.7249ZM10.6965 17.5589C11.0065 18.6789 10.3265 19.8619 9.12254 20.1749L9.49954 21.6259C11.4765 21.1129 12.6845 19.1239 12.1425 17.1589L10.6965 17.5589ZM9.12254 20.1749C7.91054 20.4899 6.69454 19.7859 6.38254 18.6559L4.93654 19.0559C5.47654 21.0109 7.53054 22.1379 9.49954 21.6259L9.12254 20.1749ZM6.38254 18.6559C6.07254 17.5359 6.75254 16.3529 7.95654 16.0399L7.57954 14.5899C5.60254 15.1029 4.39354 17.0909 4.93654 19.0559L6.38254 18.6559ZM7.95654 16.0399C9.16854 15.7249 10.3845 16.4289 10.6965 17.5589L12.1425 17.1589C11.6025 15.2039 9.54854 14.0769 7.57954 14.5889L7.95654 16.0399ZM9.45154 14.8649L7.29954 7.07491L5.85354 7.47491L8.00554 15.2649L9.45154 14.8649ZM5.40354 5.19691L3.69954 4.72491L3.29754 6.16991L5.00254 6.64291L5.40354 5.19691ZM7.29954 7.07491C7.17266 6.62476 6.93132 6.21516 6.59904 5.88603C6.26676 5.55691 5.85488 5.31948 5.40354 5.19691L5.00454 6.64291C5.42954 6.76091 5.74554 7.08391 5.85354 7.47491L7.29954 7.07491ZM11.6095 18.0849L20.6875 15.7249L20.3105 14.2739L11.2315 16.6339L11.6095 18.0849Z" fill="white"/>
<path d="M7.29954 7.07491L7.43284 7.55681L7.1664 6.59296L7.29954 7.07491ZM9.31823 14.383L7.87223 14.783L8.13884 15.7468L9.58484 15.3468L9.31823 14.383ZM6.70867 7.75685L7.43267 7.55685L7.1664 6.59296L6.4424 6.79296L6.70867 7.75685ZM4.72263 5.7866L4.52263 6.5096L5.48644 6.77621L5.68644 6.05321L4.72263 5.7866ZM3.77924 6.30392L4.18124 4.85892L3.21783 4.59089L2.81583 6.03589L3.77924 6.30392ZM8.6386 20.3006L9.0156 21.7516L9.98347 21.5002L9.60647 20.0492L8.6386 20.3006ZM12.0092 16.677L10.5632 17.077L10.8298 18.0408L12.2758 17.6408L12.0092 16.677ZM6.24923 18.174L4.80323 18.574L5.06984 19.5378L6.51584 19.1378L6.24923 18.174ZM7.16623 6.593L5.72023 6.993L5.98684 7.95681L7.43284 7.55681L7.16623 6.593ZM8.00554 15.2649L7.04164 15.5312L7.04173 15.5315L8.00554 15.2649ZM9.45154 14.8649L8.48764 15.1312L8.48773 15.1315L9.45154 14.8649ZM7.29954 7.07491L8.26345 6.80862L8.26203 6.80362L7.29954 7.07491ZM5.00454 6.64291L4.04056 6.37691L3.77499 7.33935L4.73701 7.60646L5.00454 6.64291ZM3.69954 4.72491L3.41914 5.68489L3.43259 5.68862L3.69954 4.72491ZM3.29754 6.16991L3.56488 5.20623L3.55317 5.20313L3.29754 6.16991ZM20.3095 14.2739L20.0308 13.3135L19.0966 13.5847L19.3418 14.526L20.3095 14.2739ZM10.6965 17.5589L9.7326 17.8251L9.73277 17.8257L10.6965 17.5589ZM9.12254 20.1749L9.37408 21.1427L9.37414 21.1427L9.12254 20.1749ZM9.49954 21.6259L9.24837 20.658L9.24787 20.6581L9.49954 21.6259ZM12.1425 17.1589L13.1065 16.893L13.1064 16.8927L12.1425 17.1589ZM6.38254 18.6559L7.34647 18.3898L7.3463 18.3891L6.38254 18.6559ZM4.93654 19.0559L5.90044 18.7897L5.90041 18.7896L4.93654 19.0559ZM7.57954 14.5899L8.54736 14.3383L8.29585 13.3709L7.32837 13.622L7.57954 14.5899ZM7.57954 14.5889L7.32787 13.6211L6.36025 13.8727L6.61167 14.8404L7.57954 14.5889ZM5.85354 7.47491L4.88963 7.74115L4.88964 7.74118L5.85354 7.47491ZM5.00254 6.64291L4.73521 7.60651L5.69891 7.87386L5.96617 6.91014L5.00254 6.64291ZM11.6095 18.0849L10.6418 18.337L10.8938 19.3042L11.8611 19.0527L11.6095 18.0849ZM20.3105 14.2739L21.2784 14.0224L21.0269 13.0545L20.059 13.3061L20.3105 14.2739ZM11.2315 16.6339L10.98 15.6661L10.0116 15.9178L10.2638 16.886L11.2315 16.6339ZM7.04173 15.5315C7.10301 15.753 7.20732 15.9603 7.3487 16.1415L8.92552 14.9112C8.9457 14.9371 8.96059 14.9667 8.96934 14.9983L7.04173 15.5315ZM7.3487 16.1415C7.49008 16.3227 7.66577 16.4743 7.86573 16.5876L8.85171 14.8475C8.88026 14.8637 8.90534 14.8853 8.92552 14.9112L7.3487 16.1415ZM7.86573 16.5876C8.06569 16.7009 8.28602 16.7737 8.51412 16.8019L8.75915 14.8169C8.79171 14.821 8.82316 14.8314 8.85171 14.8475L7.86573 16.5876ZM8.51412 16.8019C8.74222 16.83 8.97363 16.813 9.19515 16.7517L8.66192 14.8241C8.69355 14.8154 8.72658 14.8129 8.75915 14.8169L8.51412 16.8019ZM9.19515 16.7517C9.41666 16.6904 9.62394 16.5861 9.80514 16.4447L8.57484 14.8679C8.60071 14.8477 8.6303 14.8328 8.66192 14.8241L9.19515 16.7517ZM9.80514 16.4447C9.98635 16.3034 10.1379 16.1277 10.2512 15.9277L8.51116 14.9417C8.52733 14.9132 8.54897 14.8881 8.57484 14.8679L9.80514 16.4447ZM10.2512 15.9277C10.3645 15.7277 10.4373 15.5074 10.4655 15.2793L8.48057 15.0343C8.48459 15.0017 8.49498 14.9703 8.51116 14.9417L10.2512 15.9277ZM10.4655 15.2793C10.4937 15.0512 10.4766 14.8198 10.4153 14.5983L8.48773 15.1315C8.47898 15.0999 8.47655 15.0669 8.48057 15.0343L10.4655 15.2793ZM3.97991 3.76501C3.7575 3.70005 3.5244 3.6799 3.29414 3.70574L3.51713 5.69327C3.48424 5.69696 3.45094 5.69408 3.41917 5.6848L3.97991 3.76501ZM3.29414 3.70574C3.06388 3.73157 2.84104 3.80287 2.63856 3.91551L3.61079 5.6633C3.58186 5.67939 3.55003 5.68957 3.51713 5.69327L3.29414 3.70574ZM2.63856 3.91551C2.43607 4.02814 2.25797 4.17987 2.11459 4.36188L3.68564 5.59953C3.66516 5.62553 3.63971 5.64721 3.61079 5.6633L2.63856 3.91551ZM2.11459 4.36188C1.9712 4.54389 1.86539 4.75256 1.80329 4.97579L3.73011 5.51183C3.72124 5.54372 3.70612 5.57353 3.68564 5.59953L2.11459 4.36188ZM1.80329 4.97579C1.74118 5.19901 1.72403 5.43235 1.75282 5.66226L3.73732 5.41376C3.74143 5.44661 3.73898 5.47994 3.73011 5.51183L1.80329 4.97579ZM1.75282 5.66226C1.78161 5.89217 1.85577 6.11407 1.97099 6.31509L3.70615 5.3205C3.72261 5.34922 3.73321 5.38092 3.73732 5.41376L1.75282 5.66226ZM1.97099 6.31509C2.08622 6.51611 2.24022 6.69225 2.42405 6.83329L3.64143 5.24647C3.66769 5.26662 3.68969 5.29178 3.70615 5.3205L1.97099 6.31509ZM2.42405 6.83329C2.60789 6.97432 2.8179 7.07745 3.04191 7.13668L3.55317 5.20313C3.58517 5.21159 3.61517 5.22632 3.64143 5.24647L2.42405 6.83329ZM20.9128 16.6992C21.1407 16.6465 21.3557 16.5487 21.5451 16.4115L20.3719 14.7917C20.399 14.7721 20.4297 14.7581 20.4623 14.7506L20.9128 16.6992ZM21.5451 16.4115C21.7345 16.2743 21.8945 16.1005 22.0156 15.9005L20.3047 14.8647C20.322 14.8361 20.3449 14.8113 20.3719 14.7917L21.5451 16.4115ZM22.0156 15.9005C22.1367 15.7004 22.2165 15.4781 22.2503 15.2466L20.2712 14.9581C20.276 14.9251 20.2874 14.8933 20.3047 14.8647L22.0156 15.9005ZM22.2503 15.2466C22.284 15.0152 22.271 14.7793 22.2121 14.553L20.2766 15.0572C20.2682 15.0249 20.2664 14.9912 20.2712 14.9581L22.2503 15.2466ZM22.2121 14.553C22.1531 14.3267 22.0494 14.1145 21.907 13.9289L20.3202 15.1464C20.2999 15.1199 20.2851 15.0895 20.2766 15.0572L22.2121 14.553ZM21.907 13.9289C21.7646 13.7434 21.5865 13.5882 21.3832 13.4727L20.3951 15.2115C20.366 15.195 20.3406 15.1729 20.3202 15.1464L21.907 13.9289ZM21.3832 13.4727C21.1798 13.3571 20.9554 13.2835 20.7231 13.2562L20.4894 15.2425C20.4562 15.2386 20.4241 15.228 20.3951 15.2115L21.3832 13.4727ZM20.7231 13.2562C20.4908 13.2288 20.2554 13.2483 20.0308 13.3135L20.5883 15.2343C20.5562 15.2436 20.5225 15.2464 20.4894 15.2425L20.7231 13.2562ZM19.3418 14.526L19.7198 15.977L21.6552 15.4728L21.2772 14.0218L19.3418 14.526ZM9.73277 17.8257C9.88763 18.3851 9.55718 19.0287 8.87093 19.2071L9.37414 21.1427C11.0959 20.6951 12.1254 18.9727 11.6603 17.2921L9.73277 17.8257ZM9.7507 22.5938C12.2422 21.9473 13.804 19.4215 13.1065 16.893L11.1785 17.4248C11.5651 18.8263 10.7109 20.2785 9.24837 20.658L9.7507 22.5938ZM8.87099 19.2071C8.16667 19.3901 7.5073 18.9723 7.34647 18.3898L5.4186 18.9221C5.88177 20.5996 7.65441 21.5897 9.37408 21.1427L8.87099 19.2071ZM3.97263 19.3222C4.66501 21.8288 7.27882 23.2366 9.7512 22.5937L9.24787 20.6581C7.78225 21.0392 6.28807 20.193 5.90044 18.7897L3.97263 19.3222ZM7.3463 18.3891C7.19145 17.8297 7.52189 17.1861 8.20814 17.0077L7.70493 15.0721C5.98318 15.5197 4.95363 17.2421 5.41877 18.9227L7.3463 18.3891ZM8.92436 15.7883L8.54736 14.3383L6.61171 14.8415L6.98871 16.2915L8.92436 15.7883ZM7.32837 13.622C4.83759 14.2683 3.27366 16.7927 3.97266 19.3223L5.90041 18.7896C5.51341 17.3891 6.36748 15.9375 7.8307 15.5578L7.32837 13.622ZM8.20808 17.0078C8.91241 16.8247 9.57177 17.2425 9.7326 17.8251L11.6605 17.2928C11.1973 15.6153 9.42467 14.6251 7.70499 15.0721L8.20808 17.0078ZM13.1064 16.8927C12.4141 14.386 9.80025 12.9782 7.32787 13.6211L7.8312 15.5567C9.29682 15.1756 10.791 16.0218 11.1786 17.4252L13.1064 16.8927ZM6.61167 14.8404L6.98867 16.2914L8.9244 15.7884L8.5474 14.3374L6.61167 14.8404ZM10.4154 14.5986L8.26343 6.80863L6.33564 7.34118L8.48764 15.1312L10.4154 14.5986ZM4.88964 7.74118L7.04164 15.5312L8.96943 14.9986L6.81743 7.20863L4.88964 7.74118ZM5.67048 4.23319L3.96648 3.76119L3.43259 5.68862L5.13659 6.16062L5.67048 4.23319ZM3.03021 7.13351L4.73521 7.60651L5.26986 5.6793L3.56486 5.2063L3.03021 7.13351ZM5.96617 6.91014L6.36717 5.46414L4.4399 4.92967L4.0389 6.37567L5.96617 6.91014ZM8.26203 6.80362C8.08829 6.18718 7.75779 5.62627 7.30276 5.17556L5.89531 6.5965C6.10484 6.80404 6.25703 7.06233 6.33704 7.34619L8.26203 6.80362ZM7.30276 5.17556C6.84774 4.72485 6.2837 4.39972 5.66563 4.23186L5.14144 6.16195C5.42605 6.23924 5.68578 6.38896 5.89531 6.5965L7.30276 5.17556ZM4.43956 4.93091L4.04056 6.37691L5.96851 6.9089L6.36751 5.4629L4.43956 4.93091ZM4.73701 7.60646C4.83089 7.63252 4.87718 7.69608 4.88963 7.74115L6.81744 7.20866C6.61389 6.47173 6.02818 5.88929 5.27206 5.67936L4.73701 7.60646ZM11.8611 19.0527L20.9391 16.6927L20.4359 14.7571L11.3579 17.1171L11.8611 19.0527ZM21.6554 15.4734L21.2784 14.0224L19.3427 14.5254L19.7197 15.9764L21.6554 15.4734ZM20.059 13.3061L10.98 15.6661L11.4831 17.6017L20.5621 15.2417L20.059 13.3061ZM10.2638 16.886L10.6418 18.337L12.5772 17.8328L12.1992 16.3818L10.2638 16.886Z" fill="white" mask="url(#path-1-inside-1_4548_12991)"/>
<path d="M10.0649 8.7298C9.57995 6.9748 9.33795 6.0968 9.74995 5.4058C10.1609 4.7138 11.0659 4.4788 12.8759 4.0078L14.7959 3.5098C16.6059 3.0398 17.5109 2.8038 18.2239 3.2028C18.9369 3.6028 19.1799 4.4798 19.6639 6.2358L20.1789 8.0978C20.6639 9.8528 20.9069 10.7308 20.4949 11.4228C20.0829 12.1138 19.1779 12.3498 17.3679 12.8198L15.4479 13.3188C13.6379 13.7888 12.7329 14.0238 12.0199 13.6248C11.3069 13.2248 11.0649 12.3478 10.5799 10.5928L10.0649 8.7298Z" stroke="white" stroke-width="1.5"/>
</svg>
