<svg width="25" height="24" viewBox="0 0 25 24" fill="none" xmlns="http://www.w3.org/2000/svg">
<g clip-path="url(#clip0_4548_12860)">
<path d="M15.0935 2.6665H5.72017C5.39008 2.67524 5.07678 2.81389 4.84834 3.05231C4.6199 3.29074 4.49478 3.60968 4.50017 3.93984V20.0598C4.49478 20.39 4.6199 20.7089 4.84834 20.9474C5.07678 21.1858 5.39008 21.3244 5.72017 21.3332H19.2802C19.6103 21.3244 19.9236 21.1858 20.152 20.9474C20.3804 20.7089 20.5056 20.39 20.5002 20.0598V7.9465L15.0935 2.6665ZM14.8935 4.3265L18.8935 8.25984H14.8935V4.3265ZM5.8335 19.9998V3.99984H13.8335V9.33317H19.1668V19.9998H5.8335Z" fill="white"/>
</g>
<defs>
<clipPath id="clip0_4548_12860">
<rect width="24" height="24" fill="white" transform="translate(0.5)"/>
</clipPath>
</defs>
</svg>
