<svg width="25" height="24" viewBox="0 0 25 24" fill="none" xmlns="http://www.w3.org/2000/svg">
<path d="M21.1378 9.86624L13.6378 2.78811L13.6294 2.78061C13.3884 2.55991 13.0735 2.4375 12.7467 2.4375C12.42 2.4375 12.1051 2.55991 11.8641 2.78061L11.8556 2.78811L4.35564 9.86624C4.22298 9.98974 4.11734 10.1394 4.04538 10.3057C3.97342 10.4721 3.93669 10.6515 3.93751 10.8328V19.5C3.93751 19.8481 4.07579 20.1819 4.32194 20.4281C4.56808 20.6742 4.90192 20.8125 5.25001 20.8125H9.75001C10.0981 20.8125 10.432 20.6742 10.6781 20.4281C10.9242 20.1819 11.0625 19.8481 11.0625 19.5V15C11.0625 14.9503 11.0823 14.9026 11.1174 14.8674C11.1526 14.8322 11.2003 14.8125 11.25 14.8125H14.25C14.2997 14.8125 14.3474 14.8322 14.3826 14.8674C14.4178 14.9026 14.4375 14.9503 14.4375 15V19.5C14.4375 19.8481 14.5758 20.1819 14.8219 20.4281C15.0681 20.6742 15.4019 20.8125 15.75 20.8125H20.25C20.5981 20.8125 20.9319 20.6742 21.1781 20.4281C21.4242 20.1819 21.5625 19.8481 21.5625 19.5V10.8328C21.5625 10.6511 21.5247 10.4713 21.4516 10.3049C21.3785 10.1386 21.2717 9.98917 21.1378 9.86624ZM20.4375 19.5C20.4375 19.5497 20.4178 19.5974 20.3826 19.6326C20.3474 19.6677 20.2997 19.6875 20.25 19.6875H15.75C15.7003 19.6875 15.6526 19.6677 15.6174 19.6326C15.5823 19.5974 15.5625 19.5497 15.5625 19.5V15C15.5625 14.6519 15.4242 14.318 15.1781 14.0719C14.9319 13.8258 14.5981 13.6875 14.25 13.6875H11.25C10.9019 13.6875 10.5681 13.8258 10.3219 14.0719C10.0758 14.318 9.93751 14.6519 9.93751 15V19.5C9.93751 19.5497 9.91776 19.5974 9.8826 19.6326C9.84743 19.6677 9.79974 19.6875 9.75001 19.6875H5.25001C5.20029 19.6875 5.15259 19.6677 5.11743 19.6326C5.08227 19.5974 5.06251 19.5497 5.06251 19.5V10.8328C5.06246 10.8067 5.06785 10.7809 5.07834 10.757C5.08883 10.7331 5.1042 10.7117 5.12345 10.694L5.13189 10.6865L12.6263 3.6103C12.6604 3.58049 12.7042 3.56407 12.7495 3.56407C12.7949 3.56407 12.8387 3.58049 12.8728 3.6103L20.3681 10.6875L20.3756 10.695C20.3951 10.7125 20.4106 10.7339 20.4213 10.7578C20.4319 10.7817 20.4375 10.8076 20.4375 10.8337V19.5Z" fill="white"/>
</svg>
