<svg width="25" height="24" viewBox="0 0 25 24" fill="none" xmlns="http://www.w3.org/2000/svg">
<g clip-path="url(#clip0_4548_13409)">
<path d="M8.71241 19.4433C7.79063 19.4433 6.90606 19.0796 6.25079 18.4313L6.25075 18.4313C5.92876 18.1116 5.67319 17.7314 5.49876 17.3126C5.32423 16.8935 5.23438 16.444 5.23438 15.99C5.23438 15.5361 5.32423 15.0866 5.49876 14.6675C5.67329 14.2484 5.92904 13.8681 6.25128 13.5483L6.25226 13.5473L9.38408 10.4221C9.38433 10.4219 9.38457 10.4217 9.38482 10.4214C10.04 9.77354 10.9243 9.41016 11.8457 9.41016C12.7672 9.41016 13.6515 9.77355 14.3067 10.4214C14.4984 10.6127 14.6664 10.8257 14.8075 11.0558L14.5543 11.3071C14.4212 11.0809 14.2592 10.8718 14.0715 10.6853L14.0703 10.6842C13.4777 10.0992 12.6785 9.77121 11.8457 9.77121C11.013 9.77121 10.2138 10.0992 9.62116 10.6842L9.62038 10.685L6.49371 13.785L6.4926 13.7861C6.20275 14.0753 5.97279 14.4188 5.81589 14.797C5.65899 15.1752 5.57822 15.5806 5.57822 15.99C5.57822 16.3995 5.65899 16.8049 5.81589 17.1831C5.97279 17.5613 6.20275 17.9048 6.49259 18.194L6.4945 18.1959C7.08714 18.7809 7.88635 19.1089 8.71908 19.1089C9.55181 19.1089 10.351 18.7809 10.9437 18.1959L10.9445 18.195L12.39 16.7613C12.5232 16.7879 12.6571 16.8098 12.7917 16.827L11.1741 18.4313C11.174 18.4313 11.174 18.4314 11.174 18.4314C10.5187 19.0797 9.63416 19.4433 8.71241 19.4433Z" fill="white" stroke="white"/>
<path d="M19.5724 5.2132C18.8235 4.47224 17.8126 4.05664 16.7591 4.05664C15.7056 4.05664 14.6946 4.47224 13.9457 5.2132L11.5124 7.62653H11.8391C12.3119 7.62641 12.7827 7.68919 13.2391 7.8132L14.8791 6.18653C15.3781 5.69391 16.0511 5.41769 16.7524 5.41769C17.4536 5.41769 18.1267 5.69391 18.6257 6.18653C18.869 6.42928 19.0621 6.71763 19.1938 7.03509C19.3255 7.35254 19.3933 7.69285 19.3933 8.03653C19.3933 8.38022 19.3255 8.72053 19.1938 9.03798C19.0621 9.35543 18.869 9.64379 18.6257 9.88653L15.4991 12.9865C15 13.4792 14.327 13.7554 13.6257 13.7554C12.9245 13.7554 12.2515 13.4792 11.7524 12.9865C11.4348 12.671 11.205 12.2781 11.0857 11.8465C11.019 11.8919 10.9565 11.9432 10.8991 11.9999L10.0391 12.8532C10.2316 13.254 10.4909 13.6192 10.8057 13.9332C11.5546 14.6742 12.5656 15.0898 13.6191 15.0898C14.6726 15.0898 15.6835 14.6742 16.4324 13.9332L19.5591 10.8332C19.9273 10.4665 20.2195 10.0307 20.4189 9.55075C20.6183 9.07082 20.721 8.55624 20.721 8.03653C20.721 7.51683 20.6183 7.00225 20.4189 6.52232C20.2195 6.04239 19.9273 5.60657 19.5591 5.23987L19.5724 5.2132Z" fill="white"/>
</g>
<defs>
<clipPath id="clip0_4548_13409">
<rect width="24" height="24" fill="white" transform="translate(0.5)"/>
</clipPath>
</defs>
</svg>
