<svg width="25" height="24" viewBox="0 0 25 24" fill="none" xmlns="http://www.w3.org/2000/svg">
<g clip-path="url(#clip0_4548_13083)">
<path d="M17.8335 14.1002C17.5241 13.5511 17.1053 13.0714 16.6031 12.6907C16.1008 12.31 15.5258 12.0364 14.9135 11.8868C14.3391 11.7145 13.7561 11.5721 13.1669 11.4602V5.4135C14.3383 5.53915 15.4559 5.97146 16.4069 6.66683C16.4725 6.72505 16.549 6.76977 16.632 6.79843C16.7149 6.82709 16.8027 6.83913 16.8903 6.83387C16.9779 6.8286 17.0636 6.80614 17.1425 6.76776C17.2214 6.72937 17.292 6.67582 17.3502 6.61016C17.4084 6.5445 17.4532 6.46802 17.4818 6.38507C17.5105 6.30213 17.5225 6.21436 17.5173 6.12676C17.512 6.03916 17.4895 5.95346 17.4511 5.87455C17.4128 5.79563 17.3592 5.72505 17.2935 5.66683C16.1004 4.7479 14.6676 4.19239 13.1669 4.06683V2.00016C13.1669 1.82335 13.0966 1.65378 12.9716 1.52876C12.8466 1.40373 12.677 1.3335 12.5002 1.3335C12.3234 1.3335 12.1538 1.40373 12.0288 1.52876C11.9038 1.65378 11.8335 1.82335 11.8335 2.00016V4.00016C8.90021 4.06683 7.28021 5.52683 6.78688 6.78683C6.45777 7.59819 6.4265 8.49987 6.69862 9.33208C6.97074 10.1643 7.52867 10.8733 8.27355 11.3335C9.35781 11.9944 10.5723 12.4129 11.8335 12.5602V18.6668C10.0931 18.5792 8.4258 17.9394 7.07355 16.8402C7.0132 16.7683 6.93838 16.7101 6.85397 16.6692C6.76956 16.6282 6.67746 16.6056 6.5837 16.6027C6.48994 16.5998 6.39663 16.6167 6.30986 16.6524C6.22308 16.688 6.14481 16.7416 6.08015 16.8095C6.0155 16.8775 5.96591 16.9583 5.93463 17.0468C5.90336 17.1352 5.89109 17.2292 5.89865 17.3227C5.90621 17.4162 5.93341 17.5071 5.97848 17.5894C6.02356 17.6716 6.08548 17.7435 6.16021 17.8002C7.75484 19.1427 9.75072 19.9166 11.8335 20.0002V22.0002C11.8335 22.177 11.9038 22.3465 12.0288 22.4716C12.1538 22.5966 12.3234 22.6668 12.5002 22.6668C12.677 22.6668 12.8466 22.5966 12.9716 22.4716C13.0966 22.3465 13.1669 22.177 13.1669 22.0002V20.0002C15.0469 19.8735 17.2135 19.2735 18.0335 16.8268C18.1819 16.3816 18.2406 15.9115 18.2063 15.4435C18.172 14.9755 18.0453 14.5189 17.8335 14.1002ZM9.02688 10.2135C8.54008 9.92372 8.17261 9.4698 7.99053 8.93334C7.80845 8.39687 7.8237 7.81305 8.03355 7.28683C8.10688 7.08683 8.85355 5.4135 11.8335 5.3335V11.2002C10.839 11.0722 9.88269 10.736 9.02688 10.2135ZM16.7669 16.3735C16.2869 17.8002 15.2202 18.4868 13.1669 18.6402V12.8202C13.5935 12.9135 14.0335 13.0202 14.5002 13.1602C14.941 13.2603 15.3569 13.449 15.7225 13.7149C16.0881 13.9808 16.3958 14.3183 16.6269 14.7068C16.8884 15.2231 16.9386 15.8209 16.7669 16.3735Z" fill="white"/>
</g>
<defs>
<clipPath id="clip0_4548_13083">
<rect width="24" height="24" fill="white" transform="translate(0.5)"/>
</clipPath>
</defs>
</svg>
