<svg width="25" height="24" viewBox="0 0 25 24" fill="none" xmlns="http://www.w3.org/2000/svg">
<g clip-path="url(#clip0_4566_14009)">
<path d="M20.2497 8H17.583V4.66667C17.583 4.48986 17.5128 4.32029 17.3877 4.19526C17.2627 4.07024 17.0932 4 16.9163 4H2.24967C2.07286 4 1.90329 4.07024 1.77827 4.19526C1.65325 4.32029 1.58301 4.48986 1.58301 4.66667V16.6667C1.58301 16.8435 1.65325 17.013 1.77827 17.1381C1.90329 17.2631 2.07286 17.3333 2.24967 17.3333H2.91634V5.33333H16.2497V13.1333C16.5896 13.0466 16.9389 13.0019 17.2897 13H17.583V9.33333H20.2497C20.6033 9.33333 20.9424 9.47381 21.1925 9.72386C21.4425 9.97391 21.583 10.313 21.583 10.6667V11.3333H18.9163V12.6667H21.583V16H19.983C19.7491 15.4567 19.3612 14.9939 18.8671 14.6687C18.373 14.3434 17.7945 14.1701 17.203 14.1701C16.6115 14.1701 16.033 14.3434 15.5389 14.6687C15.0448 14.9939 14.6569 15.4567 14.423 16H9.86967C9.64023 15.4527 9.25363 14.9858 8.75879 14.6583C8.26395 14.3308 7.68308 14.1574 7.08967 14.16C6.52586 14.1724 5.97771 14.3479 5.51145 14.6651C5.04519 14.9824 4.68078 15.4279 4.46224 15.9477C4.2437 16.4676 4.18038 17.0397 4.27994 17.5948C4.3795 18.1499 4.63768 18.6643 5.02327 19.0758C5.40887 19.4873 5.90539 19.7784 6.45284 19.9138C7.00029 20.0493 7.57524 20.0233 8.10824 19.839C8.64123 19.6547 9.10946 19.32 9.45635 18.8754C9.80324 18.4307 10.0139 17.8951 10.063 17.3333H14.2497C14.3344 18.0625 14.6841 18.7351 15.2323 19.2233C15.7805 19.7115 16.4889 19.9812 17.223 19.9812C17.9571 19.9812 18.6655 19.7115 19.2137 19.2233C19.7619 18.7351 20.1116 18.0625 20.1963 17.3333H22.2497C22.4265 17.3333 22.5961 17.2631 22.7211 17.1381C22.8461 17.013 22.9163 16.8435 22.9163 16.6667V10.6667C22.9163 9.95942 22.6354 9.28115 22.1353 8.78105C21.6352 8.28095 20.9569 8 20.2497 8ZM7.08967 18.6667C6.87311 18.6807 6.65596 18.6502 6.45166 18.577C6.24735 18.5038 6.06024 18.3895 5.90189 18.241C5.74354 18.0926 5.61731 17.9133 5.53102 17.7142C5.44474 17.5151 5.40021 17.3004 5.40021 17.0833C5.40021 16.8663 5.44474 16.6516 5.53102 16.4525C5.61731 16.2533 5.74354 16.074 5.90189 15.9256C6.06024 15.7772 6.24735 15.6629 6.45166 15.5897C6.65596 15.5165 6.87311 15.4859 7.08967 15.5C7.30624 15.4859 7.52339 15.5165 7.72769 15.5897C7.932 15.6629 8.11911 15.7772 8.27746 15.9256C8.43581 16.074 8.56203 16.2533 8.64832 16.4525C8.73461 16.6516 8.77914 16.8663 8.77914 17.0833C8.77914 17.3004 8.73461 17.5151 8.64832 17.7142C8.56203 17.9133 8.43581 18.0926 8.27746 18.241C8.11911 18.3895 7.932 18.5038 7.72769 18.577C7.52339 18.6502 7.30624 18.6807 7.08967 18.6667ZM17.203 18.6667C16.8928 18.651 16.594 18.5446 16.3437 18.3608C16.0934 18.1769 15.9025 17.9236 15.7948 17.6322C15.6871 17.3409 15.6673 17.0244 15.7378 16.7219C15.8083 16.4194 15.966 16.1442 16.1914 15.9305C16.4168 15.7168 16.7 15.574 17.0058 15.5198C17.3117 15.4655 17.6267 15.5022 17.9118 15.6253C18.197 15.7484 18.4398 15.9525 18.61 16.2122C18.7803 16.472 18.8706 16.7761 18.8697 17.0867C18.8575 17.517 18.6752 17.9249 18.3628 18.221C18.0504 18.5172 17.6333 18.6774 17.203 18.6667Z" fill="white"/>
</g>
<defs>
<clipPath id="clip0_4566_14009">
<rect width="24" height="24" fill="white" transform="translate(0.25)"/>
</clipPath>
</defs>
</svg>
