<svg width="25" height="24" viewBox="0 0 25 24" fill="none" xmlns="http://www.w3.org/2000/svg">
<path d="M4.36154 9.77382L4.36153 9.7738L4.35833 9.77648C4.01486 10.0637 3.49694 10.0407 3.16266 9.70647C2.76866 9.31246 2.80935 8.68014 3.22146 8.35045L3.22147 8.35047L3.22532 8.34733C8.76145 3.82745 16.7569 3.8278 22.2826 8.34706L22.2831 8.34753C22.6996 8.68709 22.7298 9.32217 22.3456 9.70647C22.018 10.034 21.4883 10.0609 21.1265 9.76366L21.1258 9.76308C16.2617 5.78245 9.21621 5.78197 4.36154 9.77382ZM8.38032 13.8119L8.38031 13.8118L8.37714 13.8141C7.99763 14.0871 7.50214 14.0459 7.19266 13.7365C6.77962 13.3234 6.83462 12.678 7.25217 12.3751C10.5277 10.0114 14.9813 10.012 18.2459 12.375L18.2496 12.3777C18.6626 12.6709 18.7186 13.3234 18.3156 13.7265L18.3056 13.7365C18.0005 14.0415 17.5036 14.0821 17.117 13.8112C15.8397 12.9078 14.3136 12.4226 12.7491 12.4226C11.1842 12.4226 9.65781 12.908 8.38032 13.8119ZM12.3927 18.9365L10.9227 17.4665C10.6814 17.2252 10.7515 16.8183 11.0136 16.6717C11.5462 16.3994 12.1359 16.2574 12.7341 16.2574C13.3344 16.2574 13.926 16.4004 14.46 16.6745C14.7414 16.8202 14.8102 17.2218 14.5656 17.4665L13.0956 18.9365C12.9008 19.1312 12.5874 19.1312 12.3927 18.9365Z" fill="white" stroke="white"/>
</svg>
