<?xml version="1.0" encoding="UTF-8"?>
<svg height="150px" width="150px" id="Camada_1" data-name="Camada 1" xmlns="http://www.w3.org/2000/svg" viewBox="0 0 1297.08 398.83">
  <defs>
    <style>
      .cls-1 {
        fill: #0b0c0c;
        stroke-width: 0px;
      }
    </style>
  </defs>
  <g>
    <path class="cls-1" d="m455.19,91.31c0-2.73.74-4.9,2.23-6.52,1.48-1.62,3.59-2.43,6.3-2.43h128.75c11.37,0,22.1,2.17,32.19,6.52,10.08,4.35,18.91,10.32,26.47,17.91,7.56,7.6,13.54,16.49,17.94,26.68,4.39,10.2,6.59,21.13,6.59,32.82,0,9.73-1.52,18.79-4.56,27.16-3.04,8.37-7.34,15.87-12.89,22.49,9.3,8.57,16.67,18.76,22.11,30.58,5.43,11.81,8.14,24.34,8.14,37.58,0,11.81-2.26,23.01-6.78,33.59-4.53,10.58-10.64,19.86-18.33,27.84-7.69,7.98-16.67,14.31-26.95,18.99-10.28,4.68-21.11,7.01-32.48,7.01h-140.19c-2.59,0-4.66-.68-6.21-2.05-1.55-1.36-2.33-3.47-2.33-6.33V91.31Zm146.01,76.73c0-3.89-.71-7.53-2.14-10.9-1.43-3.38-3.44-6.36-6.03-8.96-2.59-2.59-5.7-4.64-9.33-6.14-3.63-1.49-7.58-2.24-11.86-2.24h-41.61v56.47h41.03c4.41,0,8.45-.68,12.15-2.04,3.69-1.36,6.83-3.31,9.43-5.85,2.6-2.53,4.64-5.52,6.13-8.96,1.49-3.44,2.23-7.23,2.23-11.39m10.28,113.15c0-3.9-.75-7.79-2.24-11.69-1.49-3.89-3.57-7.37-6.22-10.41-2.66-3.05-5.83-5.55-9.53-7.5-3.69-1.95-7.68-2.92-11.95-2.92h-51.31v65.04h51.31c4.28,0,8.23-.91,11.86-2.73,3.63-1.82,6.8-4.25,9.53-7.3,2.72-3.05,4.83-6.53,6.32-10.42,1.49-3.9,2.24-7.92,2.24-12.07"/>
    <path class="cls-1" d="m736.93,91.31c0-2.73.71-4.9,2.13-6.52,1.42-1.62,3.55-2.43,6.4-2.43h125.26c13.31,0,25.79,2.5,37.42,7.49,11.63,5,21.78,11.78,30.44,20.35,8.66,8.57,15.48,18.59,20.46,30.09,4.98,11.49,7.46,23.72,7.46,36.71,0,8.83-1.2,17.24-3.59,25.22-2.39,7.98-5.72,15.45-9.99,22.4-4.27,6.94-9.34,13.24-15.22,18.88-5.88,5.65-12.31,10.48-19.29,14.51l49.83,94.25c.9,1.82,2.07,3.96,3.49,6.43,1.42,2.47,2.13,4.61,2.13,6.43,0,2.07-.68,3.67-2.03,4.77-1.36,1.1-3.2,1.65-5.53,1.65h-66.51c-2.2,0-4.17-.64-5.92-1.95-1.75-1.3-2.88-3.05-3.39-5.25l-47.12-88.99h-31.41v87.82c0,5.59-2.98,8.37-8.92,8.37h-57.59c-2.59,0-4.65-.68-6.2-2.04-1.55-1.36-2.33-3.47-2.33-6.33V91.31Zm151.83,86.47c0-3.9-.71-7.79-2.14-11.69-1.42-3.89-3.42-7.46-6.01-10.71-2.59-3.24-5.69-5.97-9.31-8.18-3.62-2.21-7.63-3.64-12.02-4.28-3.62-.26-7.01-.49-10.18-.68-3.17-.2-6.63-.3-10.37-.3h-26.76v71.47h35.68c2.33,0,4.4-.07,6.21-.2,1.81-.13,3.81-.32,6.01-.58,4.52-.52,8.6-1.85,12.22-4,3.61-2.14,6.66-4.8,9.11-7.98,2.45-3.18,4.33-6.75,5.62-10.72,1.29-3.96,1.94-8.01,1.94-12.17"/>
    <path class="cls-1" d="m1009.17,65.61c0-2.21.06-4.22.2-6.04.13-1.82.68-3.37,1.65-4.67.97-1.3,2.49-2.31,4.56-3.02,2.06-.71,4.98-1.07,8.72-1.07h46.34c2.45,0,4.49.42,6.11,1.27,1.61.85,2.91,1.91,3.88,3.21.97,1.3,1.61,2.7,1.94,4.19.32,1.5.49,2.89.49,4.19v144.11l69.81-77.9c3.36-3.76,7.37-5.65,12.02-5.65h59.53c7.11,0,10.67,2.79,10.67,8.37,0,1.43-.23,2.6-.68,3.51-.45.91-1.39,2.21-2.81,3.89l-79.69,84.52,100.25,129.31h-.39c1.68,1.69,2.88,3.41,3.59,5.16.71,1.76,1.07,3.34,1.07,4.77,0,2.99-.81,5.03-2.42,6.14-1.62,1.1-4.04,1.65-7.27,1.65h-65.54c-2.2,0-4.27-.85-6.2-2.53-1.94-1.68-4.07-4.22-6.4-7.59l-63.41-90.16-21.52,22.4v62.9c0,1.04-.16,2.4-.48,4.09-.32,1.68-.97,3.34-1.94,4.97-.97,1.62-2.3,3.02-3.97,4.19-1.68,1.17-3.88,1.75-6.59,1.75h-48.67c-2.33,0-4.34-.61-6.01-1.85-1.68-1.23-3.01-2.62-3.98-4.19-.97-1.56-1.68-3.02-2.13-4.38-.45-1.36-.68-2.17-.68-2.43V65.61Z"/>
  </g>
  <g>
    <path class="cls-1" d="m114.52,63.5-.59,213.51"/>
    <path class="cls-1" d="m322.17,335.33.59-213.51"/>
    <path class="cls-1" d="m401.87,143.38v170.67c.96,53.42-53.16,92.56-99.86,69.59l-128.31-68.93,55.01-29.54,93.57,50.24c14.26,6.84,30.61-5.12,30.33-21.36v-170.67c.25-16-15.61-27.95-29.84-21.54-.08.04-161.36,86.61-161.36,86.61-6.59,4-11.04,11.58-11.04,20.27,0,5.86,2.01,11.18,5.31,15.28-22.24,11.94-39.49,21.21-44.51,23.89-6.4-11.45-10.08-24.85-10.08-39.17,0-28.26,14.34-52.94,35.62-66.1l165.64-88.99c46.69-22.62,100.46,16.51,99.52,69.76Z"/>
    <path class="cls-1" d="m335.6,170.12c0,28.26-14.34,52.94-35.62,66.1l-165.64,88.99c-46.69,22.62-100.46-16.49-99.52-69.76V84.79c-.96-53.42,53.17-92.56,99.86-69.59l128.31,68.93-54.99,29.54-93.59-50.24c-14.26-6.8-30.61,5.12-30.33,21.36v170.67c-.24,16.03,15.6,27.91,29.86,21.56.08-.04,161.36-86.63,161.36-86.63,11.64-6.35,14.65-25.44,5.71-35.54,22.22-11.94,39.45-21.19,44.51-23.87,6.4,11.45,10.08,24.83,10.08,39.15Z"/>
  </g>
</svg>