<?xml version="1.0" encoding="UTF-8"?>
<svg height="200px" width="200px" id="Lettering" xmlns="http://www.w3.org/2000/svg" version="1.1" viewBox="0 0 612.7 128.7">
  <defs>
    <style>
      .cls-1 {
        fill: #fd5c1a;
        stroke-width: 0px;
      }
    </style>
  </defs>
  <path class="cls-1" d="M77.9,59.4c2.2-1.1,4-4.3,4.1-7.1,0-3,.1-6,.2-9,0-3,.1-6,.2-9,0-2.7-1.7-4.1-3.8-3-2.4,1.2-4.7,2.4-7.1,3.6-2.4,1.2-4.7,2.4-7.1,3.6-2.2,1.1-4,4.2-4.1,7,0,3-.2,6-.2,9,0,3-.2,6-.2,9.1,0,2.8,1.7,4.2,3.9,3.1,2.4-1.2,4.8-2.4,7.1-3.6,2.4-1.2,4.8-2.4,7.1-3.6"/>
  <path class="cls-1" d="M39.4,28.9c2.6,1.1,5.2,2.1,7.9,3.2,2.6,1.1,5.2,2.1,7.8,3.2,2.4,1,6.1.9,8.3,0,2.4-1.1,4.7-2.3,7.1-3.4,2.4-1.1,4.8-2.3,7.2-3.4,2.2-1,2-2.7-.4-3.7-2.6-1.1-5.3-2.2-7.9-3.2-2.6-1.1-5.3-2.2-7.9-3.2-2.4-1-6.2-.9-8.4.1-2.4,1.1-4.7,2.3-7.1,3.4-2.4,1.1-4.7,2.3-7.1,3.4-2.2,1-1.9,2.7.5,3.7"/>
  <path class="cls-1" d="M105.5,75.1c-2.4,1.2-4.7,2.4-7.1,3.6-2.4,1.2-4.7,2.4-7.1,3.6-2.2,1.1-4,4.2-4.1,7,0,3-.2,6-.2,9,0,3-.2,6-.2,9.1,0,2.8,1.7,4.2,3.9,3.1,2.4-1.2,4.8-2.4,7.1-3.6,2.4-1.2,4.8-2.4,7.1-3.6,2.2-1.1,4-4.3,4.1-7.1,0-3,.1-6,.2-9,0-3,.1-6,.2-9,0-2.7-1.7-4.1-3.8-3"/>
  <path class="cls-1" d="M97.5,75.7c2.4-1.1,4.8-2.3,7.2-3.4,2.2-1,2-2.7-.4-3.7-2.6-1.1-5.3-2.2-7.9-3.2-2.6-1.1-5.3-2.2-7.9-3.2-2.4-1-6.2-.9-8.4.1-2.4,1.1-4.7,2.3-7.1,3.4-2.4,1.1-4.7,2.3-7.1,3.4-2.2,1-1.9,2.7.5,3.7,2.6,1.1,5.2,2.1,7.9,3.2,2.6,1.1,5.2,2.1,7.8,3.2,2.4,1,6.1.9,8.3,0,2.4-1.1,4.7-2.3,7.1-3.4"/>
  <path class="cls-1" d="M59,75.1c-2.4,1.2-4.7,2.4-7.1,3.6-2.4,1.2-4.7,2.4-7.1,3.6-2.2,1.1-4,4.2-4.1,7,0,3-.2,6-.2,9,0,3-.2,6-.2,9.1,0,2.8,1.7,4.2,3.9,3.1,2.4-1.2,4.8-2.4,7.1-3.6,2.4-1.2,4.8-2.4,7.1-3.6,2.2-1.1,4-4.3,4.1-7.1,0-3,.1-6,.2-9,0-3,.1-6,.2-9,0-2.7-1.7-4.1-3.8-3"/>
  <path class="cls-1" d="M50.9,75.7c2.4-1.1,4.8-2.3,7.2-3.4,2.2-1,2-2.7-.4-3.7-2.6-1.1-5.3-2.2-7.9-3.2-2.6-1.1-5.3-2.2-7.9-3.2-2.4-1-6.2-.9-8.4.1-2.4,1.1-4.7,2.3-7.1,3.4-2.4,1.1-4.7,2.3-7.1,3.4-2.2,1-1.9,2.7.5,3.7,2.6,1.1,5.2,2.1,7.9,3.2,2.6,1.1,5.2,2.1,7.8,3.2,2.4,1,6.1.9,8.3,0,2.4-1.1,4.7-2.3,7.1-3.4"/>
  <g>
    <path class="cls-1" d="M155.4,33.3c-17.3,0-30.5,12.7-30.5,30s12.8,29.6,30.5,29.6,30.6-12.5,30.6-29.6-13.2-30-30.6-30M155.4,79.7c-8.9,0-15.5-6.7-15.5-16.4s6.5-16.7,15.5-16.7,15.6,7.1,15.6,16.7-6.6,16.4-15.6,16.4"/>
    <path class="cls-1" d="M224.9,33.3c-9.7,0-15.3,5.4-16.8,7.4v-8l-14.1,3v76.1h15v-26.2c1.4,1.8,7.1,7.3,16.8,7.3,16.3,0,26.9-12.3,26.9-29.8s-11.5-29.7-27.8-29.7M223.1,79.7c-8.2,0-14.5-6.1-14.5-16.7s5.4-16.4,14.5-16.4,14.5,6.3,14.5,16.4-5.9,16.7-14.5,16.7"/>
    <path class="cls-1" d="M289.5,33.3c-16.2,0-27.8,12.8-27.8,30s11.6,29.6,29.8,29.6,21.7-8.5,23.9-12.5l-9.9-7.5c-1.6,2.4-6.1,6.9-13.8,6.9s-14.4-5.4-14.8-13h39.9c.1-1.1.1-2.2.1-3.3,0-18.6-10-30.3-27.6-30.3M277.5,57.1c.7-6.5,5.2-11.5,12.3-11.5s11.8,4.6,12.2,11.5h-24.4Z"/>
    <path class="cls-1" d="M354.7,33.3c-7.4,0-12.8,4.1-15.2,8v-8.6l-14.7,3v55.8h15v-34.1c0-6.1,3.9-10.6,10.1-10.6s9.4,3.9,9.4,10.2v34.5h15v-32.8c0-12-3.5-25.4-19.6-25.4"/>
    <path class="cls-1" d="M404.2,68.8v-23.9h10.6v-12.2h-10.6v-15.8l-14.8,3.3v12.5h-6.1v12.2h6v24.4c0,15.4,6,23,19.5,23s6.4-.5,6.4-.5v-12.8c-1.2.1-1.7.1-2.7.1-5.8,0-8.4-1.7-8.4-10.2"/>
    <path class="cls-1" d="M452.3,33.3c-16.2,0-27.8,12.8-27.8,30s11.6,29.6,29.8,29.6,21.7-8.5,23.9-12.5l-9.9-7.5c-1.6,2.4-6.1,6.9-13.8,6.9s-14.4-5.4-14.8-13h39.9c.1-1.1.1-2.2.1-3.3,0-18.6-10-30.3-27.6-30.3M440.3,57.1c.7-6.5,5.2-11.5,12.3-11.5s11.8,4.6,12.2,11.5h-24.4Z"/>
    <path class="cls-1" d="M519.1,46.6c6.4,0,10.7,3.1,13.2,5.4l4.2-12.6c-3.7-2.8-9.6-6.1-17.9-6.1-17.3,0-30.2,12.7-30.2,30s12.6,29.6,30.3,29.6,14.4-3.5,17.7-6.1l-4-12.3c-2.5,2.1-7.1,5.1-12.8,5.1-9.4,0-16.2-6.8-16.2-16.5s6-16.6,15.6-16.6"/>
    <path class="cls-1" d="M575.2,33.3c-7.4,0-12.6,4.1-15,8v-24.4l-15,3.1v71.5h15v-34.1c0-6.1,4-10.6,10.3-10.6s9.4,3.9,9.4,10.2v34.5h14.9v-32.8c0-12-3.4-25.4-19.6-25.4"/>
  </g>
</svg>