<svg width="40" height="40" viewBox="0 0 40 40" fill="none" xmlns="http://www.w3.org/2000/svg">
<path d="M10 9V34H26V9C26 8.20435 25.6839 7.44129 25.1213 6.87868C24.5587 6.31607 23.7956 6 23 6H13C12.2044 6 11.4413 6.31607 10.8787 6.87868C10.3161 7.44129 10 8.20435 10 9ZM28 31V34H29C29.2652 34 29.5196 34.1054 29.7071 34.2929C29.8946 34.4804 30 34.7348 30 35C30 35.2652 29.8946 35.5196 29.7071 35.7071C29.5196 35.8946 29.2652 36 29 36H7C6.73478 36 6.48043 35.8946 6.29289 35.7071C6.10536 35.5196 6 35.2652 6 35C6 34.7348 6.10536 34.4804 6.29289 34.2929C6.48043 34.1054 6.73478 34 7 34H8V9C8 7.67392 8.52678 6.40215 9.46447 5.46447C10.4021 4.52678 11.6739 4 13 4H23C24.3261 4 25.5979 4.52678 26.5355 5.46447C27.4732 6.40215 28 7.67392 28 9V27C28 27.7956 28.3161 28.5587 28.8787 29.1213C29.4413 29.6839 30.2044 30 31 30C31.7956 30 32.5587 29.6839 33.1213 29.1213C33.6839 28.5587 34 27.7956 34 27V18.334C34 17.6849 33.7895 17.0533 33.4 16.534L31.2 13.6C31.0409 13.3878 30.9725 13.1211 31.01 12.8586C31.0476 12.596 31.1878 12.3591 31.4 12.2C31.6122 12.0409 31.8789 11.9725 32.1414 12.0101C32.404 12.0476 32.6409 12.1878 32.8 12.4L35 15.334C35.65 16.198 36 17.252 36 18.334V27C36 27.9286 35.7414 28.8388 35.2533 29.6287C34.7651 30.4185 34.0666 31.0569 33.2361 31.4721C32.4055 31.8874 31.4758 32.0632 30.551 31.9798C29.6262 31.8964 28.7428 31.5571 28 31ZM12 9V17C12 17.2652 12.1054 17.5196 12.2929 17.7071C12.4804 17.8946 12.7348 18 13 18H23C23.2652 18 23.5196 17.8946 23.7071 17.7071C23.8946 17.5196 24 17.2652 24 17V9C24 8.73478 23.8946 8.48043 23.7071 8.29289C23.5196 8.10536 23.2652 8 23 8H13C12.7348 8 12.4804 8.10536 12.2929 8.29289C12.1054 8.48043 12 8.73478 12 9ZM14 10H22V16H14V10Z" fill="#02243D"/>
</svg>
