<svg width="8" height="8" viewBox="0 0 8 8" fill="none" xmlns="http://www.w3.org/2000/svg">
<circle cx="4" cy="4" r="4" fill="#1F7C4A"/>
<path d="M2.45578 4.22363V4.19287C2.45578 4.07666 2.47238 3.96973 2.50559 3.87207C2.53879 3.77344 2.58713 3.68799 2.6506 3.61572C2.71408 3.54346 2.79221 3.4873 2.88498 3.44727C2.97775 3.40625 3.0842 3.38574 3.20432 3.38574C3.32443 3.38574 3.43137 3.40625 3.52512 3.44727C3.61887 3.4873 3.69748 3.54346 3.76096 3.61572C3.82541 3.68799 3.87424 3.77344 3.90744 3.87207C3.94064 3.96973 3.95725 4.07666 3.95725 4.19287V4.22363C3.95725 4.33887 3.94064 4.4458 3.90744 4.54443C3.87424 4.64209 3.82541 4.72754 3.76096 4.80078C3.69748 4.87305 3.61935 4.9292 3.52658 4.96924C3.43381 5.00928 3.32736 5.0293 3.20725 5.0293C3.08713 5.0293 2.98019 5.00928 2.88644 4.96924C2.79367 4.9292 2.71506 4.87305 2.6506 4.80078C2.58713 4.72754 2.53879 4.64209 2.50559 4.54443C2.47238 4.4458 2.45578 4.33887 2.45578 4.22363ZM2.87766 4.19287V4.22363C2.87766 4.29004 2.88351 4.35205 2.89523 4.40967C2.90695 4.46729 2.92551 4.51807 2.9509 4.56201C2.97726 4.60498 3.01144 4.63867 3.05344 4.66309C3.09543 4.6875 3.1467 4.69971 3.20725 4.69971C3.26584 4.69971 3.31613 4.6875 3.35812 4.66309C3.40012 4.63867 3.43381 4.60498 3.4592 4.56201C3.48459 4.51807 3.50314 4.46729 3.51486 4.40967C3.52756 4.35205 3.53391 4.29004 3.53391 4.22363V4.19287C3.53391 4.12842 3.52756 4.06787 3.51486 4.01123C3.50314 3.95361 3.4841 3.90283 3.45773 3.85889C3.43234 3.81396 3.39865 3.77881 3.35666 3.75342C3.31467 3.72803 3.26389 3.71533 3.20432 3.71533C3.14475 3.71533 3.09396 3.72803 3.05197 3.75342C3.01096 3.77881 2.97726 3.81396 2.9509 3.85889C2.92551 3.90283 2.90695 3.95361 2.89523 4.01123C2.88351 4.06787 2.87766 4.12842 2.87766 4.19287ZM4.6243 2.74854V5H4.20242V2.74854H4.6243ZM5.62332 3.41504L4.93484 4.2002L4.5657 4.57373L4.4119 4.26904L4.70486 3.89697L5.11649 3.41504H5.62332ZM5.18533 5L4.71658 4.26758L5.00809 4.0127L5.67166 5H5.18533Z" fill="white"/>
</svg>
