<svg width="40" height="40" viewBox="0 0 40 40" fill="none" xmlns="http://www.w3.org/2000/svg">
<path d="M9.34 4C8.092 4 6.99 4.876 6.76 6.136C6.464 7.772 6 10.684 6 13C6 15.462 7.272 17.626 9.19 18.872C9.732 19.226 10 19.682 10 20.072V20.892C10 20.928 9.998 20.964 9.994 21C9.94 21.52 9.692 23.858 9.458 26.262C9.228 28.632 9 31.162 9 32C9 33.0609 9.42143 34.0783 10.1716 34.8284C10.9217 35.5786 11.9391 36 13 36C14.0609 36 15.0783 35.5786 15.8284 34.8284C16.5786 34.0783 17 33.0609 17 32C17 31.16 16.772 28.632 16.542 26.262C16.371 24.5079 16.1923 22.7545 16.006 21.002L16 20.892V20.072C16 19.68 16.268 19.224 16.81 18.872C17.7891 18.2368 18.5938 17.3668 19.1509 16.3412C19.7081 15.3157 20 14.1671 20 13C20 10.684 19.536 7.772 19.24 6.136C19.1288 5.53389 18.8095 4.99003 18.3378 4.59956C17.8662 4.20909 17.2723 3.99686 16.66 4C15.98 4 15.36 4.254 14.892 4.672C14.3572 4.23735 13.6891 4.00005 13 4C12.282 4 11.624 4.252 11.108 4.672C10.6224 4.2378 9.99141 3.99845 9.34 4ZM12 7C12 6.73479 12.1054 6.48043 12.2929 6.2929C12.4804 6.10536 12.7348 6 13 6C13.2652 6 13.5196 6.10536 13.7071 6.2929C13.8946 6.48043 14 6.73479 14 7V13C14 13.2652 14.1054 13.5196 14.2929 13.7071C14.4804 13.8946 14.7348 14 15 14C15.2652 14 15.5196 13.8946 15.7071 13.7071C15.8946 13.5196 16 13.2652 16 13V6.66C16 6.57333 16.0171 6.48751 16.0502 6.40743C16.0834 6.32736 16.132 6.2546 16.1933 6.19331C16.2546 6.13203 16.3274 6.08341 16.4074 6.05024C16.4875 6.01708 16.5733 6 16.66 6C16.974 6 17.22 6.216 17.272 6.494C17.566 8.12 18 10.878 18 13C18.0001 13.8341 17.7915 14.6549 17.3933 15.3878C16.9951 16.1207 16.4199 16.7423 15.72 17.196C14.842 17.766 14 18.768 14 20.072V20.892C14 20.9987 14.0053 21.1053 14.016 21.212C14.072 21.728 14.318 24.06 14.552 26.456C14.788 28.886 15 31.286 15 32C15 32.5304 14.7893 33.0391 14.4142 33.4142C14.0391 33.7893 13.5304 34 13 34C12.4696 34 11.9609 33.7893 11.5858 33.4142C11.2107 33.0391 11 32.5304 11 32C11 31.286 11.212 28.886 11.448 26.456C11.682 24.06 11.928 21.728 11.984 21.212C11.9947 21.1053 12 20.9987 12 20.892V20.072C12 18.768 11.158 17.766 10.28 17.196C9.58014 16.7423 9.00491 16.1207 8.60669 15.3878C8.20846 14.6549 7.9999 13.8341 8 13C8 10.88 8.434 8.12 8.728 6.494C8.75539 6.35235 8.83211 6.22499 8.94452 6.13455C9.05693 6.0441 9.19777 5.99643 9.342 6C9.5167 6.00053 9.68406 6.0703 9.8074 6.19402C9.93074 6.31774 10 6.48531 10 6.66V13C10 13.2652 10.1054 13.5196 10.2929 13.7071C10.4804 13.8946 10.7348 14 11 14C11.2652 14 11.5196 13.8946 11.7071 13.7071C11.8946 13.5196 12 13.2652 12 13V7ZM22 13C22 10.6131 22.9482 8.32387 24.636 6.63604C26.3239 4.94822 28.6131 4 31 4C31.2652 4 31.5196 4.10536 31.7071 4.2929C31.8946 4.48043 32 4.73479 32 5V18.956L32.04 19.404C32.1959 21.201 32.3479 22.9983 32.496 24.796C32.744 27.81 33 31.118 33 32C33 33.0609 32.5786 34.0783 31.8284 34.8284C31.0783 35.5786 30.0609 36 29 36C27.9391 36 26.9217 35.5786 26.1716 34.8284C25.4214 34.0783 25 33.0609 25 32C25 31.12 25.256 27.81 25.504 24.796C25.628 23.274 25.754 21.802 25.848 20.712L25.908 20H25C24.2044 20 23.4413 19.6839 22.8787 19.1213C22.3161 18.5587 22 17.7957 22 17V13ZM27.996 19.088L27.954 19.578L27.84 20.884C27.746 21.972 27.62 23.44 27.496 24.96C27.244 28.034 27 31.224 27 32C27 32.5304 27.2107 33.0391 27.5858 33.4142C27.9609 33.7893 28.4696 34 29 34C29.5304 34 30.0391 33.7893 30.4142 33.4142C30.7893 33.0391 31 32.5304 31 32C31 31.224 30.756 28.034 30.504 24.96C30.3556 23.1656 30.203 21.3716 30.046 19.578L30.004 19.09V19.088L30 19V6.07C28.3337 6.31051 26.8099 7.14351 25.7079 8.41631C24.6059 9.68911 23.9996 11.3164 24 13V17C24 17.2652 24.1054 17.5196 24.2929 17.7071C24.4804 17.8946 24.7348 18 25 18H27C27.1387 18 27.2759 18.0289 27.4029 18.0848C27.5299 18.1407 27.6438 18.2224 27.7375 18.3248C27.8312 18.4271 27.9025 18.5478 27.947 18.6792C27.9915 18.8106 28.0082 18.9498 27.996 19.088Z" fill="#02243D"/>
</svg>
