<svg width="40" height="40" viewBox="0 0 40 40" fill="none" xmlns="http://www.w3.org/2000/svg">
<path d="M22.5001 14.3333C22.5001 13.781 22.0524 13.3333 21.5001 13.3333H21.0001C20.4478 13.3333 20.0001 13.781 20.0001 14.3333V21.0973C20.0001 21.4503 20.1862 21.7771 20.4897 21.9573L26.2745 25.3902C26.749 25.6719 27.362 25.5159 27.6442 25.0416L27.8218 24.7432C28.1043 24.2684 27.9482 23.6544 27.4733 23.3722L22.9892 20.7073C22.6859 20.5271 22.5001 20.2005 22.5001 19.8477V14.3333ZM21.6667 5C17.6885 5 13.8732 6.58035 11.0601 9.3934C8.48359 11.97 6.94117 15.3874 6.70005 19.0006C6.66327 19.5517 6.21903 20 5.66675 20H4.05136C3.16468 20 2.71662 21.0684 3.33809 21.7009L7.56057 25.998C7.94972 26.394 8.58699 26.3972 8.98008 26.0051L13.2879 21.708C13.919 21.0784 13.4731 20 12.5816 20H11.0001C10.4478 20 9.99562 19.5514 10.0429 19.0011C10.2772 16.2729 11.4659 13.7017 13.4172 11.7504C15.6051 9.5625 18.5726 8.33333 21.6667 8.33333C24.7609 8.33333 27.7284 9.5625 29.9163 11.7504C32.1042 13.9383 33.3334 16.9058 33.3334 20C33.3334 23.0942 32.1042 26.0617 29.9163 28.2496C27.7284 30.4375 24.7609 31.6667 21.6667 31.6667C18.8109 31.6667 16.1916 30.6288 14.1703 28.9148C13.7479 28.5566 13.1151 28.5516 12.7235 28.9432L11.7701 29.8966C11.3811 30.2857 11.3772 30.9188 11.7896 31.2831C13.0141 32.3649 14.4107 33.2386 15.924 33.8667C17.7439 34.6222 19.6962 35.0074 21.6667 35C25.645 35 29.4603 33.4196 32.2733 30.6066C35.0864 27.7936 36.6667 23.9782 36.6667 20C36.6667 16.0218 35.0864 12.2064 32.2733 9.3934C29.4603 6.58035 25.645 5 21.6667 5Z" fill="#02243D"/>
</svg>
