<svg width="40" height="40" viewBox="0 0 40 40" fill="none" xmlns="http://www.w3.org/2000/svg">
<g clip-path="url(#clip0_217_119)">
<path d="M17.5 7.91666C17.5 7.58514 17.3683 7.26719 17.1339 7.03277C16.8995 6.79835 16.5815 6.66666 16.25 6.66666C15.9185 6.66666 15.6005 6.79835 15.3661 7.03277C15.1317 7.26719 15 7.58514 15 7.91666V16.25C14.9999 16.4619 15.0537 16.6704 15.1563 16.8558C15.259 17.0412 15.407 17.1975 15.5867 17.31L20.5867 20.435C20.8678 20.6109 21.2073 20.668 21.5305 20.5936C21.6905 20.5567 21.8417 20.4887 21.9755 20.3935C22.1092 20.2982 22.2229 20.1775 22.31 20.0383C22.3971 19.8991 22.456 19.7441 22.4832 19.5822C22.5104 19.4202 22.5054 19.2545 22.4686 19.0945C22.4317 18.9345 22.3638 18.7833 22.2685 18.6495C22.1732 18.5158 22.0525 18.4021 21.9133 18.315L17.5 15.5567V7.91666Z" fill="#02243D"/>
<path fill-rule="evenodd" clip-rule="evenodd" d="M16.2501 1.66666C12.3823 1.66666 8.67301 3.20311 5.93811 5.93802C3.2032 8.67292 1.66675 12.3822 1.66675 16.25C1.66675 20.1177 3.2032 23.8271 5.93811 26.562C8.67301 29.2969 12.3823 30.8333 16.2501 30.8333C20.1178 30.8333 23.8272 29.2969 26.5621 26.562C29.297 23.8271 30.8334 20.1177 30.8334 16.25C30.8334 12.3822 29.297 8.67292 26.5621 5.93802C23.8272 3.20311 20.1178 1.66666 16.2501 1.66666ZM4.16675 16.25C4.16675 14.6632 4.47929 13.0919 5.08654 11.6259C5.69378 10.1599 6.58383 8.82782 7.70587 7.70578C8.82792 6.58374 10.16 5.69369 11.626 5.08645C13.092 4.4792 14.6633 4.16666 16.2501 4.16666C17.8369 4.16666 19.4082 4.4792 20.8742 5.08645C22.3402 5.69369 23.6722 6.58374 24.7943 7.70578C25.9163 8.82782 26.8064 10.1599 27.4136 11.6259C28.0209 13.0919 28.3334 14.6632 28.3334 16.25C28.3334 19.4547 27.0604 22.5281 24.7943 24.7942C22.5282 27.0603 19.4548 28.3333 16.2501 28.3333C13.0454 28.3333 9.97194 27.0603 7.70587 24.7942C5.43981 22.5281 4.16675 19.4547 4.16675 16.25Z" fill="#02243D"/>
<g clip-path="url(#clip1_217_119)">
<path d="M34.055 28.4156L38.8517 36.7233C38.9248 36.85 38.9633 36.9937 38.9633 37.14C38.9633 37.2863 38.9248 37.43 38.8517 37.5567C38.7785 37.6834 38.6734 37.7885 38.5467 37.8617C38.42 37.9348 38.2763 37.9733 38.13 37.9733H28.5367C28.3904 37.9733 28.2467 37.9348 28.12 37.8617C27.9933 37.7885 27.8881 37.6834 27.815 37.5567C27.7419 37.43 27.7034 37.2863 27.7034 37.14C27.7034 36.9937 27.7419 36.85 27.815 36.7233L32.6117 28.4156C32.9322 27.86 33.7339 27.86 34.055 28.4156ZM33.3333 29.3878L29.0178 36.8622H37.6489L33.3333 29.3878ZM33.3333 35C33.4807 35 33.622 35.0585 33.7262 35.1627C33.8304 35.2669 33.8889 35.4082 33.8889 35.5556C33.8889 35.7029 33.8304 35.8442 33.7262 35.9484C33.622 36.0526 33.4807 36.1111 33.3333 36.1111C33.186 36.1111 33.0447 36.0526 32.9405 35.9484C32.8363 35.8442 32.7778 35.7029 32.7778 35.5556C32.7778 35.4082 32.8363 35.2669 32.9405 35.1627C33.0447 35.0585 33.186 35 33.3333 35ZM33.3333 31.1111C33.4807 31.1111 33.622 31.1697 33.7262 31.2738C33.8304 31.378 33.8889 31.5193 33.8889 31.6667V33.8889C33.8889 34.0362 33.8304 34.1776 33.7262 34.2817C33.622 34.3859 33.4807 34.4445 33.3333 34.4445C33.186 34.4445 33.0447 34.3859 32.9405 34.2817C32.8363 34.1776 32.7778 34.0362 32.7778 33.8889V31.6667C32.7778 31.5193 32.8363 31.378 32.9405 31.2738C33.0447 31.1697 33.186 31.1111 33.3333 31.1111Z" fill="#02243D"/>
</g>
</g>
<defs>
<clipPath id="clip0_217_119">
<rect width="40" height="40" fill="white"/>
</clipPath>
<clipPath id="clip1_217_119">
<rect width="13.3333" height="13.3333" fill="white" transform="translate(26.6667 26.6667)"/>
</clipPath>
</defs>
</svg>
