<svg width="40" height="40" viewBox="0 0 40 40" fill="none" xmlns="http://www.w3.org/2000/svg">
<path fill-rule="evenodd" clip-rule="evenodd" d="M17.7083 2.08331C16.8289 2.08331 16.0193 2.30134 15.1341 2.66762C14.278 3.02227 13.2838 3.54407 12.0469 4.19378L9.0411 5.77081C7.52221 6.56732 6.30854 7.20541 5.36814 7.83186C4.39721 8.48157 3.64721 9.16471 3.10215 10.0906C2.55854 11.0135 2.31436 12.0135 2.19662 13.204C2.08325 14.3595 2.08325 15.7795 2.08325 17.5673V17.8493C2.08325 19.6371 2.08325 21.0571 2.19662 22.2127C2.31436 23.4045 2.56 24.4031 3.10215 25.326C3.64721 26.2519 4.39575 26.9351 5.36959 27.5848C6.30709 28.2112 7.52221 28.8493 9.0411 29.6458L12.0469 31.2228C13.2838 31.8726 14.278 32.3944 15.1341 32.749C16.0208 33.1153 16.8289 33.3333 17.7083 33.3333C18.5876 33.3333 19.3972 33.1153 20.2824 32.749C21.1385 32.3944 22.1327 31.8726 23.3696 31.2228L26.3754 29.6473C27.8943 28.8493 29.108 28.2112 30.0469 27.5848C31.0208 26.9351 31.7693 26.2519 32.3144 25.326C32.858 24.4031 33.1021 23.4031 33.2199 22.2127C33.3333 21.0571 33.3333 19.6371 33.3333 17.8508V17.5659C33.3333 15.7795 33.3333 14.3595 33.2199 13.204C33.1021 12.0121 32.8565 11.0135 32.3144 10.0906C31.7693 9.16471 31.0208 8.48157 30.0469 7.83186C29.1094 7.20541 27.8943 6.56732 26.3754 5.77081L23.3696 4.19378C22.1327 3.54407 21.1385 3.02227 20.2824 2.66762C19.3958 2.30134 18.5876 2.08331 17.7083 2.08331ZM13.0135 6.14727C14.3071 5.46849 15.2141 4.99465 15.967 4.6836C16.6995 4.37982 17.2155 4.26355 17.7083 4.26355C18.2024 4.26355 18.717 4.37982 19.4495 4.6836C20.2024 4.99465 21.108 5.46849 22.4016 6.14727L25.3085 7.67343C26.8928 8.50337 28.0048 9.08913 28.8376 9.64436C29.2475 9.91907 29.5687 10.1734 29.8303 10.4292L24.9888 12.8493L12.6341 6.34639L13.0135 6.14727ZM10.3609 7.53971L10.108 7.67343C8.52366 8.50337 7.41174 9.08913 6.58034 9.64436C6.22559 9.87434 5.89322 10.1371 5.58761 10.4292L17.7083 16.4903L22.5876 14.0484L10.6603 7.77227C10.5476 7.71286 10.4463 7.63414 10.3609 7.53971ZM4.53674 12.3406C4.46407 12.6516 4.40738 13.0048 4.36668 13.4162C4.26494 14.454 4.26348 15.7665 4.26348 17.6226V17.7926C4.26348 19.6502 4.26348 20.9627 4.36668 21.999C4.46697 23.0121 4.65738 23.6676 4.98151 24.2199C5.30418 24.7679 5.77075 25.2316 6.58034 25.7723C7.41174 26.3275 8.52366 26.9133 10.108 27.7432L13.0149 29.2694C14.3085 29.9481 15.2141 30.422 15.967 30.733C16.2053 30.8319 16.419 30.9103 16.6181 30.9728V18.3813L4.53674 12.3406ZM18.7984 30.9714C18.9975 30.9103 19.2112 30.8319 19.4495 30.733C20.2024 30.422 21.108 29.9481 22.4016 29.2694L25.3085 27.7432C26.8928 26.9118 28.0048 26.3275 28.8376 25.7723C29.6458 25.2316 30.1123 24.7679 30.4364 24.2199C30.7606 23.6676 30.9495 23.0135 31.0498 21.999C31.1516 20.9627 31.153 19.6502 31.153 17.7941V17.624C31.153 15.7665 31.153 14.454 31.0498 13.4176C31.0171 13.0557 30.9603 12.6964 30.8798 12.342L26.0658 14.7476V19.1618C26.0658 19.4509 25.951 19.7282 25.7465 19.9326C25.5421 20.1371 25.2648 20.2519 24.9757 20.2519C24.6866 20.2519 24.4093 20.1371 24.2049 19.9326C24.0004 19.7282 23.8856 19.4509 23.8856 19.1618V15.8391L18.7984 18.3827V30.9714Z" fill="#02243D"/>
<g clip-path="url(#clip0_214_72)">
<path d="M34.055 28.4155L38.8517 36.7233C38.9248 36.85 38.9633 36.9937 38.9633 37.1399C38.9633 37.2862 38.9248 37.4299 38.8517 37.5566C38.7785 37.6833 38.6734 37.7885 38.5467 37.8616C38.42 37.9348 38.2763 37.9733 38.13 37.9733H28.5367C28.3904 37.9733 28.2467 37.9348 28.12 37.8616C27.9933 37.7885 27.8881 37.6833 27.815 37.5566C27.7419 37.4299 27.7034 37.2862 27.7034 37.1399C27.7034 36.9937 27.7419 36.85 27.815 36.7233L32.6117 28.4155C32.9322 27.86 33.7339 27.86 34.055 28.4155ZM33.3333 29.3877L29.0178 36.8622H37.6489L33.3333 29.3877ZM33.3333 35C33.4807 35 33.622 35.0585 33.7262 35.1627C33.8304 35.2669 33.8889 35.4082 33.8889 35.5555C33.8889 35.7028 33.8304 35.8442 33.7262 35.9483C33.622 36.0525 33.4807 36.1111 33.3333 36.1111C33.186 36.1111 33.0447 36.0525 32.9405 35.9483C32.8363 35.8442 32.7778 35.7028 32.7778 35.5555C32.7778 35.4082 32.8363 35.2669 32.9405 35.1627C33.0447 35.0585 33.186 35 33.3333 35ZM33.3333 31.1111C33.4807 31.1111 33.622 31.1696 33.7262 31.2738C33.8304 31.378 33.8889 31.5193 33.8889 31.6666V33.8888C33.8889 34.0362 33.8304 34.1775 33.7262 34.2817C33.622 34.3859 33.4807 34.4444 33.3333 34.4444C33.186 34.4444 33.0447 34.3859 32.9405 34.2817C32.8363 34.1775 32.7778 34.0362 32.7778 33.8888V31.6666C32.7778 31.5193 32.8363 31.378 32.9405 31.2738C33.0447 31.1696 33.186 31.1111 33.3333 31.1111Z" fill="#02243D"/>
</g>
<defs>
<clipPath id="clip0_214_72">
<rect width="13.3333" height="13.3333" fill="white" transform="translate(26.6667 26.6667)"/>
</clipPath>
</defs>
</svg>
