<svg width="40" height="40" viewBox="0 0 40 40" fill="none" xmlns="http://www.w3.org/2000/svg">
<path d="M23.5574 25.4992L24.4953 26.4632C23.6003 27.1694 22.6315 27.7267 21.5891 28.1352C20.5467 28.5437 19.4614 28.832 18.3332 29V27.6592C19.339 27.5073 20.2832 27.2503 21.1657 26.8883C22.0482 26.5263 22.8455 26.0632 23.5574 25.4992ZM29 18.3408C28.8732 19.4688 28.5927 20.5531 28.1586 21.5935C27.7244 22.634 27.1545 23.6092 26.4489 24.5191L25.5002 23.5698C26.0808 22.8324 26.5498 22.0226 26.9071 21.1403C27.2644 20.2581 27.51 19.3249 27.644 18.3408H29ZM26.473 9.50637C27.2358 10.5245 27.8066 11.4822 28.1854 12.3797C28.5641 13.2771 28.8356 14.3703 29 15.6592H27.644C27.51 14.6536 27.2644 13.7093 26.9071 12.8261C26.5498 11.943 26.0808 11.1444 25.5002 10.4302L26.473 9.50637ZM15.6521 5V6.34078C12.9723 6.72067 10.7503 7.9162 8.98615 9.92737C7.22197 11.9385 6.33988 14.2961 6.33988 17C6.33988 19.6816 7.22197 22.0279 8.98615 24.0391C10.7503 26.0503 12.9723 27.257 15.6521 27.6592V29C12.6132 28.6156 10.0782 27.2838 8.0469 25.0045C6.01563 22.7251 5 20.057 5 17C5 13.9144 6.01563 11.2337 8.0469 8.95799C10.0782 6.68223 12.6132 5.3629 15.6521 5ZM18.3841 5C19.5123 5.14659 20.5806 5.42816 21.5891 5.84469C22.5976 6.26123 23.5668 6.82525 24.4967 7.53676L23.6257 8.55307C22.8218 7.94972 21.9772 7.4581 21.092 7.07821C20.2077 6.69832 19.305 6.45251 18.3841 6.34078V5ZM16.4681 21.8885C16.2144 21.143 15.9071 20.5057 15.5462 19.9765C15.1845 19.4483 14.8267 18.9459 14.473 18.4695C14.1184 17.994 13.8196 17.5028 13.5766 16.996C13.3336 16.4901 13.2121 15.8778 13.2121 15.1591C13.2121 14.0972 13.5784 13.1998 14.3109 12.4668C15.0433 11.7339 15.9397 11.3678 17 11.3687C18.0603 11.3696 18.9571 11.7361 19.6905 12.4682C20.4239 13.2002 20.7896 14.0972 20.7879 15.1591C20.7879 15.8778 20.6664 16.4901 20.4234 16.996C20.1804 17.5019 19.8821 17.9935 19.5284 18.4708C19.1737 18.9464 18.8155 19.4483 18.4538 19.9765C18.0929 20.5048 17.7852 21.1421 17.5306 21.8885H16.4681ZM17 16.3578C17.3421 16.3578 17.6275 16.2438 17.8562 16.0159C18.084 15.787 18.1979 15.5015 18.1979 15.1591C18.1979 14.8168 18.084 14.5312 17.8562 14.3023C17.6284 14.0735 17.343 13.96 17 13.9618C16.657 13.9636 16.3716 14.078 16.1438 14.305C15.916 14.5321 15.8021 14.8172 15.8021 15.1604C15.8021 15.5037 15.916 15.7893 16.1438 16.0172C16.3716 16.2451 16.657 16.3591 17 16.3591" fill="#02243D"/>
<path d="M26.6725 27.125C26.6187 27.1716 26.5755 27.2292 26.5457 27.2939C26.516 27.3585 26.5004 27.4288 26.5 27.5V38C26.5 38.1326 26.5527 38.2598 26.6464 38.3535C26.7402 38.4473 26.8674 38.5 27 38.5C27.1326 38.5 27.2598 38.4473 27.3536 38.3535C27.4473 38.2598 27.5 38.1326 27.5 38V35.2356C29.1744 33.9131 30.6169 34.6262 32.2781 35.4487C33.3031 35.9556 34.4069 36.5019 35.5906 36.5019C36.4612 36.5019 37.3744 36.205 38.3294 35.3769C38.3832 35.3302 38.4264 35.2727 38.4561 35.208C38.4859 35.1433 38.5015 35.073 38.5019 35.0019V27.5C38.5016 27.404 38.4738 27.3101 38.4217 27.2296C38.3695 27.149 38.2953 27.0851 38.2079 27.0456C38.1204 27.006 38.0234 26.9925 37.9285 27.0066C37.8336 27.0207 37.7447 27.0618 37.6725 27.125C35.9225 28.6394 34.44 27.9056 32.7219 27.055C30.9419 26.1725 28.9237 25.1744 26.6725 27.125ZM37.5 34.7656C35.8256 36.0881 34.3831 35.3744 32.7219 34.5525C31.1594 33.7806 29.4212 32.9194 27.5 34.0275V27.7369C29.1744 26.4144 30.6169 27.1275 32.2781 27.9494C33.8406 28.7212 35.5794 29.5825 37.5 28.4744V34.7656Z" fill="#02243D"/>
</svg>
