<svg width="40" height="40" viewBox="0 0 40 40" fill="none" xmlns="http://www.w3.org/2000/svg">
<path d="M31.6666 8.33333L36.6666 3.33333M3.33325 36.6667L8.33325 31.6667M12.4999 22.5L16.6666 18.3333M17.4999 27.5L21.6666 23.3333M10.4999 33.8333C10.8715 34.2062 11.3131 34.5021 11.7993 34.704C12.2855 34.9059 12.8068 35.0098 13.3333 35.0098C13.8597 35.0098 14.381 34.9059 14.8672 34.704C15.3534 34.5021 15.795 34.2062 16.1666 33.8333L19.9999 30L9.99992 20L6.16659 23.8333C5.79368 24.2049 5.4978 24.6465 5.29591 25.1327C5.09402 25.6189 4.9901 26.1402 4.9901 26.6667C4.9901 27.1931 5.09402 27.7144 5.29591 28.2006C5.4978 28.6868 5.79368 29.1284 6.16659 29.5L10.4999 33.8333ZM19.9999 10L29.9999 20L33.8332 16.1667C34.2062 15.7951 34.502 15.3535 34.7039 14.8673C34.9058 14.3811 35.0097 13.8598 35.0097 13.3333C35.0097 12.8069 34.9058 12.2856 34.7039 11.7994C34.502 11.3132 34.2062 10.8716 33.8332 10.5L29.4999 6.16667C29.1283 5.79376 28.6867 5.49788 28.2005 5.29599C27.7143 5.0941 27.193 4.99018 26.6666 4.99018C26.1401 4.99018 25.6189 5.0941 25.1326 5.29599C24.6464 5.49788 24.2049 5.79376 23.8333 6.16667L19.9999 10Z" stroke="#02243D" stroke-width="2" stroke-linecap="round" stroke-linejoin="round"/>
</svg>
