<svg width="40" height="40" viewBox="0 0 40 40" fill="none" xmlns="http://www.w3.org/2000/svg">
<path d="M16.3 18.6L13.9334 20.9667C12.5616 19.5952 11.5386 17.915 10.95 16.0667L14.1834 15.25C14.7167 16.7334 15.4667 17.75 16.3 18.6ZM16.9167 8.58335L12.25 3.91669C11.9167 3.58335 11.4 3.58335 11.0667 3.91669L6.4167 8.58335C6.30152 8.70085 6.22371 8.8498 6.19306 9.01145C6.16241 9.17309 6.18029 9.3402 6.24445 9.4917C6.30862 9.6432 6.41619 9.77231 6.55362 9.86277C6.69104 9.95323 6.85217 10.001 7.0167 10H10.0334C10.0667 11.35 10.1667 12.5667 10.35 13.6167L13.5834 12.8C13.4667 12 13.3834 11.05 13.3667 10H16.3334C16.4965 9.99773 16.6553 9.94762 16.7902 9.8559C16.9251 9.76419 17.0301 9.6349 17.0922 9.48406C17.1543 9.33323 17.1708 9.16748 17.1396 9.00737C17.1084 8.84726 17.0309 8.69983 16.9167 8.58335ZM33.5834 8.58335L28.9334 3.93335C28.6 3.60002 28.0834 3.60002 27.75 3.93335L23.1 8.58335C22.5667 9.10002 22.9334 10 23.6834 10H26.65C26.4834 16.1334 24.5167 17.9167 22.4167 19.8C21.5834 20.5334 20.7334 21.3334 20 22.3834C19.4334 21.5667 18.7834 20.9167 18.1167 20.3167L15.7667 22.6667C17.3167 24.0834 18.3334 25.2334 18.3334 28.3334V35C18.3334 35.9167 19.0834 36.6667 20 36.6667C20.9167 36.6667 21.6667 35.9167 21.6667 35V28.3334C21.6667 24.9667 22.85 23.9 24.65 22.2834C26.95 20.2167 29.7834 17.65 29.9834 10H32.9834C33.1479 10.001 33.309 9.95323 33.4464 9.86277C33.5839 9.77231 33.6914 9.6432 33.7556 9.4917C33.8198 9.3402 33.8377 9.17309 33.807 9.01145C33.7763 8.8498 33.6985 8.70085 33.5834 8.58335Z" fill="#02243D"/>
</svg>
