<svg width="40" height="40" viewBox="0 0 40 40" fill="none" xmlns="http://www.w3.org/2000/svg">
<g clip-path="url(#clip0_163_470)">
<path d="M24.7917 6.87083C27.0087 8.1508 28.8497 9.99178 30.1296 12.2087C31.4096 14.4257 32.0834 16.9405 32.0834 19.5005C32.0834 22.0604 31.4095 24.5752 30.1295 26.7922C28.8496 29.0091 27.0086 30.8501 24.7916 32.13C22.5746 33.4099 20.0598 34.0837 17.4998 34.0837C14.9399 34.0837 12.4251 33.4098 10.2082 32.1298C7.99124 30.8498 6.1503 29.0087 4.87038 26.7918C3.59047 24.5748 2.91668 22.0599 2.91675 19.5L2.92404 19.0275C3.00571 16.5089 3.73859 14.0545 5.05122 11.9035C6.36386 9.75254 8.21145 7.97837 10.4139 6.754C12.6163 5.52962 15.0984 4.89683 17.6182 4.91731C20.138 4.93778 22.6095 5.61083 24.7917 6.87083ZM5.83341 19.5C5.8335 22.3416 6.87065 25.0854 8.7502 27.2165C10.6298 29.3477 13.2225 30.7196 16.0417 31.0748V23.6271C15.3725 23.3907 14.7708 22.995 14.2886 22.4742C13.8063 21.9533 13.4581 21.323 13.2738 20.6375L5.88008 18.4442C5.84994 18.7942 5.83439 19.1466 5.83341 19.5015M29.1186 18.4442L21.7263 20.636C21.5424 21.3216 21.1945 21.9522 20.7125 22.4732C20.2306 22.9943 19.629 23.3903 18.9599 23.6271V31.0763C21.9002 30.7057 24.5893 29.2301 26.4811 26.949C28.373 24.6679 29.3259 21.7523 29.1463 18.7942L29.1186 18.4442ZM11.6667 9.39667C9.26752 10.782 7.43958 12.9759 6.51008 15.5858L13.5276 17.6654C13.8778 16.9065 14.438 16.2638 15.142 15.8133C15.846 15.3628 16.6643 15.1234 17.5001 15.1234C18.3359 15.1234 19.1542 15.3628 19.8582 15.8133C20.5622 16.2638 21.1224 16.9065 21.4726 17.6654L28.4901 15.5858C27.9162 13.9746 26.9951 12.5093 25.7919 11.2937C24.5888 10.078 23.1331 9.14179 21.5279 8.55126C19.9227 7.96072 18.2073 7.73035 16.5032 7.87644C14.7991 8.02254 13.148 8.54153 11.6667 9.39667Z" fill="#02243D"/>
<g clip-path="url(#clip1_163_470)">
<path d="M34.3864 28.7485L39.1819 37.0542C39.255 37.1808 39.2935 37.3245 39.2935 37.4707C39.2935 37.617 39.255 37.7607 39.1819 37.8873C39.1088 38.014 39.0036 38.1191 38.877 38.1922C38.7503 38.2654 38.6067 38.3039 38.4604 38.3039H28.8695C28.7232 38.3039 28.5796 38.2654 28.4529 38.1922C28.3263 38.1191 28.2211 38.014 28.148 37.8873C28.0749 37.7607 28.0364 37.617 28.0364 37.4707C28.0364 37.3245 28.0749 37.1808 28.148 37.0542L32.9435 28.7485C33.2639 28.1931 34.0654 28.1931 34.3864 28.7485ZM33.6649 29.7205L29.3505 37.193H37.9794L33.6649 29.7205ZM33.6649 35.3313C33.8123 35.3313 33.9535 35.3898 34.0577 35.494C34.1618 35.5981 34.2204 35.7394 34.2204 35.8867C34.2204 36.034 34.1618 36.1753 34.0577 36.2794C33.9535 36.3836 33.8123 36.4421 33.6649 36.4421C33.5176 36.4421 33.3764 36.3836 33.2722 36.2794C33.168 36.1753 33.1095 36.034 33.1095 35.8867C33.1095 35.7394 33.168 35.5981 33.2722 35.494C33.3764 35.3898 33.5176 35.3313 33.6649 35.3313ZM33.6649 31.4434C33.8123 31.4434 33.9535 31.5019 34.0577 31.606C34.1618 31.7102 34.2204 31.8515 34.2204 31.9988V34.2205C34.2204 34.3678 34.1618 34.509 34.0577 34.6132C33.9535 34.7174 33.8123 34.7759 33.6649 34.7759C33.5176 34.7759 33.3764 34.7174 33.2722 34.6132C33.168 34.509 33.1095 34.3678 33.1095 34.2205V31.9988C33.1095 31.8515 33.168 31.7102 33.2722 31.606C33.3764 31.5019 33.5176 31.4434 33.6649 31.4434Z" fill="#02243D"/>
</g>
</g>
<defs>
<clipPath id="clip0_163_470">
<rect width="40" height="40" fill="white"/>
</clipPath>
<clipPath id="clip1_163_470">
<rect width="13.33" height="13.33" fill="white" transform="translate(27 27)"/>
</clipPath>
</defs>
</svg>
