<svg width="40" height="40" viewBox="0 0 40 40" fill="none" xmlns="http://www.w3.org/2000/svg">
<g clip-path="url(#clip0_216_176)">
<path d="M33.3333 13.3334H28.8888V7.7778C28.8888 7.48311 28.7718 7.2005 28.5634 6.99212C28.355 6.78375 28.0724 6.66669 27.7777 6.66669H3.33328C3.03859 6.66669 2.75598 6.78375 2.5476 6.99212C2.33923 7.2005 2.22217 7.48311 2.22217 7.7778V27.7778C2.22217 28.0725 2.33923 28.3551 2.5476 28.5635C2.75598 28.7718 3.03859 28.8889 3.33328 28.8889H4.44439V8.88891H26.6666V21.8889C27.2332 21.7444 27.8153 21.6698 28.3999 21.6667H28.8888V15.5556H33.3333C33.9227 15.5556 34.4879 15.7897 34.9046 16.2064C35.3214 16.6232 35.5555 17.1884 35.5555 17.7778V18.8889H31.1111V21.1111H35.5555V26.6667H32.8888C32.499 25.7612 31.8524 24.9898 31.029 24.4478C30.2055 23.9058 29.2413 23.6169 28.2555 23.6169C27.2697 23.6169 26.3055 23.9058 25.482 24.4478C24.6586 24.9898 24.012 25.7612 23.6222 26.6667H16.0333C15.6509 25.7546 15.0065 24.9764 14.1818 24.4305C13.3571 23.8846 12.389 23.5956 11.3999 23.6C10.4603 23.6208 9.54667 23.9132 8.76957 24.4419C7.99247 24.9707 7.38512 25.7131 7.02088 26.5796C6.65665 27.4461 6.55113 28.3995 6.71706 29.3247C6.88299 30.2498 7.31328 31.1071 7.95594 31.793C8.5986 32.4789 9.42613 32.964 10.3385 33.1897C11.251 33.4155 12.2092 33.3721 13.0976 33.065C13.9859 32.7579 14.7663 32.2001 15.3444 31.459C15.9226 30.7179 16.2737 29.8253 16.3555 28.8889H23.3333C23.4745 30.1042 24.0573 31.2252 24.971 32.0388C25.8846 32.8525 27.0654 33.3021 28.2888 33.3021C29.5123 33.3021 30.6931 32.8525 31.6067 32.0388C32.5204 31.2252 33.1032 30.1042 33.2444 28.8889H36.6666C36.9613 28.8889 37.2439 28.7718 37.4523 28.5635C37.6607 28.3551 37.7777 28.0725 37.7777 27.7778V17.7778C37.7777 16.5991 37.3095 15.4686 36.476 14.6351C35.6425 13.8016 34.512 13.3334 33.3333 13.3334ZM11.3999 31.1111C11.039 31.1346 10.6771 31.0837 10.3366 30.9617C9.99608 30.8397 9.68422 30.6491 9.4203 30.4018C9.15638 30.1544 8.94601 29.8556 8.8022 29.5237C8.65838 29.1918 8.58418 28.8339 8.58418 28.4722C8.58418 28.1105 8.65838 27.7527 8.8022 27.4208C8.94601 27.0889 9.15638 26.7901 9.4203 26.5427C9.68422 26.2954 9.99608 26.1048 10.3366 25.9828C10.6771 25.8608 11.039 25.8099 11.3999 25.8334C11.7609 25.8099 12.1228 25.8608 12.4633 25.9828C12.8038 26.1048 13.1157 26.2954 13.3796 26.5427C13.6435 26.7901 13.8539 27.0889 13.9977 27.4208C14.1415 27.7527 14.2157 28.1105 14.2157 28.4722C14.2157 28.8339 14.1415 29.1918 13.9977 29.5237C13.8539 29.8556 13.6435 30.1544 13.3796 30.4018C13.1157 30.6491 12.8038 30.8397 12.4633 30.9617C12.1228 31.0837 11.7609 31.1346 11.3999 31.1111ZM28.2555 31.1111C27.7385 31.085 27.2405 30.9077 26.8233 30.6013C26.4061 30.2948 26.088 29.8726 25.9085 29.3871C25.729 28.9015 25.6959 28.374 25.8134 27.8698C25.9309 27.3657 26.1938 26.9071 26.5695 26.5509C26.9452 26.1948 27.4172 25.9567 27.9269 25.8663C28.4366 25.7758 28.9616 25.837 29.4369 26.0422C29.9122 26.2473 30.3168 26.5875 30.6006 27.0204C30.8843 27.4534 31.0348 27.9601 31.0333 28.4778C31.0129 29.1949 30.7091 29.8748 30.1885 30.3684C29.6678 30.862 28.9727 31.1291 28.2555 31.1111Z" fill="#02243D"/>
</g>
<g clip-path="url(#clip1_216_176)">
<path d="M15.9999 21.6544C16.6443 21.6544 17.1666 21.1321 17.1666 20.4878C17.1666 19.8434 16.6443 19.3211 15.9999 19.3211C15.3556 19.3211 14.8333 19.8434 14.8333 20.4878C14.8333 21.1321 15.3556 21.6544 15.9999 21.6544Z" fill="#02243D"/>
<path d="M21.7401 12.6478C20.0163 11.569 18.0238 10.9969 15.9903 10.9969C13.9568 10.9969 11.9644 11.569 10.2406 12.6478C10.1737 12.6887 10.1156 12.7426 10.0698 12.8063C10.024 12.87 9.9915 12.9422 9.9741 13.0187C9.9567 13.0951 9.9548 13.1743 9.96852 13.2516C9.98223 13.3288 10.0113 13.4025 10.0539 13.4683L10.0967 13.5344C10.1787 13.6583 10.3052 13.7458 10.4499 13.7791C10.5946 13.8124 10.7466 13.7889 10.8745 13.7133C12.4042 12.7522 14.1741 12.2424 15.9806 12.2424C17.7872 12.2424 19.557 12.7522 21.0867 13.7133C21.2146 13.7889 21.3666 13.8124 21.5113 13.7791C21.6561 13.7458 21.7825 13.6583 21.8645 13.5344L21.9073 13.4683C21.9508 13.4037 21.9811 13.331 21.9962 13.2546C22.0114 13.1781 22.0112 13.0994 21.9956 13.023C21.9801 12.9466 21.9495 12.8741 21.9056 12.8097C21.8617 12.7453 21.8054 12.6902 21.7401 12.6478Z" fill="#02243D"/>
<path d="M20.2078 15.0044C18.9406 14.2188 17.4793 13.8025 15.9884 13.8025C14.4974 13.8025 13.0361 14.2188 11.7689 15.0044C11.7031 15.0459 11.6463 15.1001 11.6016 15.1638C11.5569 15.2275 11.5254 15.2994 11.5087 15.3754C11.4921 15.4513 11.4907 15.5299 11.5046 15.6064C11.5186 15.6829 11.5476 15.7559 11.59 15.8211L11.6328 15.8872C11.7148 16.011 11.8412 16.0986 11.986 16.1319C12.1307 16.1652 12.2827 16.1416 12.4106 16.0661C13.4824 15.4005 14.7189 15.0477 15.9806 15.0477C17.2422 15.0477 18.4788 15.4005 19.5506 16.0661C19.6784 16.1416 19.8304 16.1652 19.9752 16.1319C20.1199 16.0986 20.2463 16.011 20.3284 15.8872L20.3711 15.8211C20.4143 15.7568 20.4442 15.6847 20.4594 15.6087C20.4745 15.5328 20.4745 15.4547 20.4593 15.3788C20.4441 15.3029 20.4141 15.2308 20.3709 15.1665C20.3278 15.1023 20.2723 15.0472 20.2078 15.0044Z" fill="#02243D"/>
<path d="M18.6756 17.3572C17.8641 16.8693 16.9352 16.6116 15.9883 16.6116C15.0415 16.6116 14.1126 16.8693 13.3011 17.3572C13.2355 17.3984 13.1787 17.4522 13.1341 17.5155C13.0894 17.5788 13.0579 17.6504 13.0412 17.7261C13.0246 17.8018 13.0232 17.88 13.0371 17.9562C13.051 18.0324 13.0799 18.1051 13.1222 18.17L13.1611 18.2322C13.2467 18.3587 13.3779 18.4472 13.5272 18.4791C13.6766 18.511 13.8324 18.4838 13.9622 18.4033C14.5763 18.0419 15.2758 17.8513 15.9883 17.8513C16.7009 17.8513 17.4004 18.0419 18.0144 18.4033C18.1447 18.4834 18.3009 18.51 18.4503 18.4773C18.5997 18.4447 18.7306 18.3555 18.8156 18.2283L18.8544 18.1661C18.8967 18.1015 18.9255 18.0291 18.9394 17.9532C18.9533 17.8773 18.9518 17.7994 18.9351 17.724C18.9185 17.6487 18.8869 17.5774 18.8424 17.5144C18.7978 17.4515 18.7411 17.398 18.6756 17.3572Z" fill="#02243D"/>
</g>
<defs>
<clipPath id="clip0_216_176">
<rect width="40" height="40" fill="white"/>
</clipPath>
<clipPath id="clip1_216_176">
<rect width="14" height="14" fill="white" transform="translate(9 9)"/>
</clipPath>
</defs>
</svg>
