<svg width="40" height="40" viewBox="0 0 40 40" fill="none" xmlns="http://www.w3.org/2000/svg">
<path d="M21.25 11.6667C21.25 11.3352 21.1183 11.0172 20.8839 10.7828C20.6495 10.5484 20.3315 10.4167 20 10.4167C19.6685 10.4167 19.3505 10.5484 19.1161 10.7828C18.8817 11.0172 18.75 11.3352 18.75 11.6667V20C18.7499 20.2119 18.8037 20.4204 18.9063 20.6058C19.009 20.7913 19.157 20.9475 19.3367 21.06L24.3367 24.185C24.6178 24.3609 24.9573 24.418 25.2805 24.3436C25.4405 24.3068 25.5917 24.2388 25.7255 24.1435C25.8592 24.0482 25.9729 23.9275 26.06 23.7883C26.1471 23.6491 26.206 23.4941 26.2332 23.3322C26.2604 23.1703 26.2554 23.0045 26.2186 22.8445C26.1817 22.6845 26.1138 22.5333 26.0185 22.3995C25.9232 22.2658 25.8025 22.1521 25.6633 22.065L21.25 19.3067V11.6667Z" fill="#02243D"/>
<path fill-rule="evenodd" clip-rule="evenodd" d="M20.0001 5.41667C16.1323 5.41667 12.423 6.95313 9.68811 9.68803C6.9532 12.4229 5.41675 16.1323 5.41675 20C5.41675 23.8677 6.9532 27.5771 9.68811 30.312C12.423 33.0469 16.1323 34.5833 20.0001 34.5833C23.8678 34.5833 27.5772 33.0469 30.3121 30.312C33.047 27.5771 34.5834 23.8677 34.5834 20C34.5834 16.1323 33.047 12.4229 30.3121 9.68803C27.5772 6.95313 23.8678 5.41667 20.0001 5.41667ZM7.91675 20C7.91675 18.4132 8.22929 16.8419 8.83654 15.3759C9.44378 13.9099 10.3338 12.5778 11.4559 11.4558C12.5779 10.3338 13.91 9.44371 15.376 8.83646C16.842 8.22922 18.4133 7.91667 20.0001 7.91667C21.5869 7.91667 23.1582 8.22922 24.6242 8.83646C26.0902 9.44371 27.4222 10.3338 28.5443 11.4558C29.6663 12.5778 30.5564 13.9099 31.1636 15.3759C31.7709 16.8419 32.0834 18.4132 32.0834 20C32.0834 23.2047 30.8104 26.2781 28.5443 28.5442C26.2782 30.8103 23.2048 32.0833 20.0001 32.0833C16.7954 32.0833 13.7219 30.8103 11.4559 28.5442C9.18981 26.2781 7.91675 23.2047 7.91675 20Z" fill="#02243D"/>
</svg>
