<svg width="40" height="40" viewBox="0 0 40 40" fill="none" xmlns="http://www.w3.org/2000/svg">
<path d="M5.99992 5.99992C6.61535 5.37187 7.45402 5.01244 8.33325 4.99992H31.6666C32.5506 4.99992 33.3985 5.35111 34.0236 5.97623C34.6487 6.60135 34.9999 7.4492 34.9999 8.33325V31.6666C34.9962 32.5492 34.6426 33.3943 34.0166 34.0166M4.99992 14.4999V31.6666C4.99992 32.5506 5.35111 33.3985 5.97623 34.0236C6.60135 34.6487 7.4492 34.9999 8.33325 34.9999H25.4999M3.33325 3.33325L36.6666 36.6666" stroke="#EEA537" stroke-width="2.13333" stroke-linecap="round" stroke-linejoin="round"/>
<path d="M21.6667 21.6666C22.9928 21.6666 24.2645 21.1398 25.2022 20.2022C26.1399 19.2645 26.6667 17.9927 26.6667 16.6666C26.6667 15.3405 26.1399 14.0688 25.2022 13.1311C24.2645 12.1934 22.9928 11.6666 21.6667 11.6666H15V15M15 28.3333V24.5" stroke="#EEA537" stroke-width="2.13333" stroke-linecap="round" stroke-linejoin="round"/>
</svg>
