<svg width="40" height="40" viewBox="0 0 40 40" fill="none" xmlns="http://www.w3.org/2000/svg">
<path d="M19.9999 11.6667C20.3314 11.6667 20.6494 11.7984 20.8838 12.0328C21.1182 12.2672 21.2499 12.5852 21.2499 12.9167V20.4167C21.2499 20.7482 21.1182 21.0661 20.8838 21.3006C20.6494 21.535 20.3314 21.6667 19.9999 21.6667C19.6684 21.6667 19.3505 21.535 19.116 21.3006C18.8816 21.0661 18.7499 20.7482 18.7499 20.4167V12.9167C18.7499 12.5852 18.8816 12.2672 19.116 12.0328C19.3505 11.7984 19.6684 11.6667 19.9999 11.6667ZM19.9999 28.3334C20.4419 28.3334 20.8659 28.1578 21.1784 27.8452C21.491 27.5326 21.6666 27.1087 21.6666 26.6667C21.6666 26.2247 21.491 25.8007 21.1784 25.4882C20.8659 25.1756 20.4419 25 19.9999 25C19.5579 25 19.134 25.1756 18.8214 25.4882C18.5088 25.8007 18.3333 26.2247 18.3333 26.6667C18.3333 27.1087 18.5088 27.5326 18.8214 27.8452C19.134 28.1578 19.5579 28.3334 19.9999 28.3334Z" fill="#02243D"/>
<path d="M12.2133 2.44998C12.3292 2.3338 12.4668 2.24161 12.6184 2.1787C12.77 2.11578 12.9325 2.08337 13.0966 2.08331H26.9033C27.2349 2.08331 27.5516 2.21498 27.7866 2.44998L37.5499 12.2133C37.7849 12.4466 37.9166 12.7633 37.9166 13.0966V26.9033C37.9165 27.0674 37.8841 27.2299 37.8212 27.3815C37.7583 27.5331 37.6661 27.6707 37.5499 27.7866L27.7866 37.55C27.6707 37.6662 27.533 37.7583 27.3814 37.8213C27.2299 37.8842 27.0674 37.9166 26.9033 37.9166H13.0966C12.9325 37.9166 12.77 37.8842 12.6184 37.8213C12.4668 37.7583 12.3292 37.6662 12.2133 37.55L2.44992 27.7866C2.33374 27.6707 2.24155 27.5331 2.17863 27.3815C2.11572 27.2299 2.08331 27.0674 2.08325 26.9033V13.0966C2.08325 12.765 2.21492 12.4483 2.44992 12.2133L12.2133 2.44998ZM13.6133 4.58331L4.58325 13.615V26.385L13.6149 35.4166H26.3849L35.4166 26.3866V13.6133L26.3866 4.58331H13.6133Z" fill="#02243D"/>
</svg>
