<svg width="40" height="40" viewBox="0 0 40 40" fill="none" xmlns="http://www.w3.org/2000/svg">
<path d="M14 18.78L11.6867 16.4667C11.562 16.342 11.393 16.272 11.2167 16.272C11.0404 16.272 10.8713 16.342 10.7467 16.4667C10.622 16.5913 10.552 16.7604 10.552 16.9367C10.552 17.0239 10.5692 17.1104 10.6026 17.191C10.636 17.2717 10.685 17.3449 10.7467 17.4067L13.5333 20.1933C13.7933 20.4533 14.2133 20.4533 14.4733 20.1933L21.5267 13.14C21.6513 13.0153 21.7214 12.8463 21.7214 12.67C21.7214 12.4937 21.6513 12.3246 21.5267 12.2C21.402 12.0753 21.233 12.0053 21.0567 12.0053C20.8804 12.0053 20.7113 12.0753 20.5867 12.2L14 18.78Z" fill="#02243D"/>
<g clip-path="url(#clip0_193_231)">
<path d="M33.3333 13.3333H28.8888V7.77777C28.8888 7.48308 28.7718 7.20047 28.5634 6.99209C28.355 6.78372 28.0724 6.66666 27.7777 6.66666H3.33328C3.03859 6.66666 2.75598 6.78372 2.5476 6.99209C2.33923 7.20047 2.22217 7.48308 2.22217 7.77777V27.7778C2.22217 28.0725 2.33923 28.3551 2.5476 28.5634C2.75598 28.7718 3.03859 28.8889 3.33328 28.8889H4.44439V8.88888H26.6666V21.8889C27.2332 21.7444 27.8153 21.6697 28.3999 21.6667H28.8888V15.5555H33.3333C33.9227 15.5555 34.4879 15.7897 34.9046 16.2064C35.3214 16.6232 35.5555 17.1884 35.5555 17.7778V18.8889H31.1111V21.1111H35.5555V26.6667H32.8888C32.499 25.7612 31.8524 24.9898 31.029 24.4477C30.2055 23.9057 29.2413 23.6169 28.2555 23.6169C27.2697 23.6169 26.3055 23.9057 25.482 24.4477C24.6586 24.9898 24.012 25.7612 23.6222 26.6667H16.0333C15.6509 25.7546 15.0065 24.9764 14.1818 24.4305C13.3571 23.8846 12.389 23.5956 11.3999 23.6C10.4603 23.6207 9.54667 23.9131 8.76957 24.4419C7.99247 24.9706 7.38512 25.7131 7.02088 26.5796C6.65665 27.4461 6.55113 28.3995 6.71706 29.3246C6.88299 30.2498 7.31328 31.1071 7.95594 31.793C8.5986 32.4789 9.42613 32.964 10.3385 33.1897C11.251 33.4154 12.2092 33.3721 13.0976 33.065C13.9859 32.7578 14.7663 32.2 15.3444 31.459C15.9226 30.7179 16.2737 29.8252 16.3555 28.8889H23.3333C23.4745 30.1041 24.0573 31.2252 24.971 32.0388C25.8846 32.8525 27.0654 33.302 28.2888 33.302C29.5123 33.302 30.6931 32.8525 31.6067 32.0388C32.5204 31.2252 33.1032 30.1041 33.2444 28.8889H36.6666C36.9613 28.8889 37.2439 28.7718 37.4523 28.5634C37.6607 28.3551 37.7777 28.0725 37.7777 27.7778V17.7778C37.7777 16.599 37.3095 15.4686 36.476 14.6351C35.6425 13.8016 34.512 13.3333 33.3333 13.3333ZM11.3999 31.1111C11.039 31.1345 10.6771 31.0837 10.3366 30.9617C9.99608 30.8396 9.68422 30.6491 9.4203 30.4017C9.15638 30.1544 8.94601 29.8555 8.8022 29.5237C8.65838 29.1918 8.58418 28.8339 8.58418 28.4722C8.58418 28.1105 8.65838 27.7526 8.8022 27.4208C8.94601 27.0889 9.15638 26.79 9.4203 26.5427C9.68422 26.2953 9.99608 26.1048 10.3366 25.9828C10.6771 25.8608 11.039 25.8099 11.3999 25.8333C11.7609 25.8099 12.1228 25.8608 12.4633 25.9828C12.8038 26.1048 13.1157 26.2953 13.3796 26.5427C13.6435 26.79 13.8539 27.0889 13.9977 27.4208C14.1415 27.7526 14.2157 28.1105 14.2157 28.4722C14.2157 28.8339 14.1415 29.1918 13.9977 29.5237C13.8539 29.8555 13.6435 30.1544 13.3796 30.4017C13.1157 30.6491 12.8038 30.8396 12.4633 30.9617C12.1228 31.0837 11.7609 31.1345 11.3999 31.1111ZM28.2555 31.1111C27.7385 31.085 27.2405 30.9077 26.8233 30.6012C26.4061 30.2948 26.088 29.8726 25.9085 29.3871C25.729 28.9015 25.6959 28.3739 25.8134 27.8698C25.9309 27.3656 26.1938 26.907 26.5695 26.5509C26.9452 26.1947 27.4172 25.9567 27.9269 25.8662C28.4366 25.7758 28.9616 25.837 29.4369 26.0421C29.9122 26.2473 30.3168 26.5874 30.6006 27.0204C30.8843 27.4534 31.0348 27.9601 31.0333 28.4778C31.0129 29.1949 30.7091 29.8748 30.1885 30.3684C29.6678 30.8619 28.9727 31.129 28.2555 31.1111Z" fill="#02243D"/>
</g>
<defs>
<clipPath id="clip0_193_231">
<rect width="40" height="40" fill="white"/>
</clipPath>
</defs>
</svg>
