<svg width="40" height="40" viewBox="0 0 40 40" fill="none" xmlns="http://www.w3.org/2000/svg">
<path d="M13.3146 4.21859C13.3492 4.04349 13.3482 3.86323 13.3118 3.6885C13.2755 3.51377 13.2044 3.34812 13.1028 3.20138C13.0012 3.05463 12.8712 2.92977 12.7205 2.83421C12.5697 2.73864 12.4013 2.67431 12.2253 2.64502C12.0492 2.61574 11.8691 2.6221 11.6955 2.66373C11.522 2.70536 11.3585 2.78141 11.2149 2.88737C11.0713 2.99333 10.9504 3.12705 10.8594 3.2806C10.7684 3.43414 10.7092 3.60439 10.6853 3.78125L5.35192 35.7813C5.31734 35.9564 5.31827 36.1366 5.35465 36.3113C5.39103 36.4861 5.46212 36.6517 5.56371 36.7985C5.6653 36.9452 5.79531 37.0701 5.94605 37.1656C6.09678 37.2612 6.26517 37.3255 6.44123 37.3548C6.61729 37.3841 6.79743 37.3777 6.97099 37.3361C7.14454 37.2945 7.30797 37.2184 7.45159 37.1125C7.59521 37.0065 7.71609 36.8728 7.80708 36.7192C7.89806 36.5657 7.95729 36.3954 7.98125 36.2186L9.76792 25.4986C11.9173 25.8133 14.2399 25.9173 16.0693 27.1999C17.2011 28.0132 18.5099 28.5461 19.8879 28.7546C22.4639 29.1439 24.7679 27.7279 27.3119 28.1306L30.7492 28.6479C31.4426 28.7546 32.1626 28.2213 32.2666 27.5279L34.6239 11.7039L34.6346 11.6933C34.6708 11.3449 34.5734 10.9958 34.362 10.7166C34.1506 10.4374 33.841 10.2489 33.4959 10.1893L30.0586 9.67192C27.4906 9.29059 25.1812 10.6666 22.6373 10.2853C21.4963 10.112 20.411 9.67659 19.4666 9.01325C17.4959 7.63459 15.1493 7.40525 12.8373 7.07992L13.3146 4.21859ZM11.7413 13.6533L12.6213 8.39459C14.2186 8.61325 15.9093 8.73859 17.3892 9.37859L16.6026 14.6186C15.0826 13.9973 13.3653 13.8773 11.7413 13.6533ZM9.98925 24.1866L10.8693 18.9226C12.5226 19.1519 14.2746 19.2693 15.8239 19.9039L16.6239 14.6346C18.3786 15.3546 19.7146 16.5893 21.6719 16.8773L22.4719 11.5973C24.4399 11.8933 26.0692 11.1253 27.9599 10.9733L27.1599 16.2159C25.2666 16.3759 23.6292 17.1759 21.6666 16.8826L20.9039 22.1573C18.9413 21.8639 17.6026 20.6239 15.8399 19.9066L15.0399 25.1759C13.4533 24.5386 11.6719 24.4266 9.98925 24.1866ZM20.9066 22.1599C22.8639 22.4533 24.5092 21.6479 26.4026 21.4906L27.1599 16.2159C28.9066 16.0559 30.6932 16.5119 32.4079 16.7733L31.6612 22.0426C29.9439 21.7839 28.1519 21.3253 26.4052 21.4906L25.6052 26.7599C23.7146 26.8879 22.0452 27.7199 20.1066 27.4266L20.9066 22.1599Z" fill="#02243D"/>
</svg>
