<svg width="40" height="40" viewBox="0 0 40 40" fill="none" xmlns="http://www.w3.org/2000/svg">
<path d="M26.6667 23.3333C30.6233 25.305 33.3333 29.4167 33.3333 35V38.3333H6.66667V35C6.66667 29.41 9.385 25.2917 13.3333 23.3333M29.8383 11.6667C30.2017 12.71 29.8383 13.8317 29.8383 15.0017C29.8383 20.5233 25.4333 25 20 25C14.5633 25 10.155 20.5233 10.155 15.0017C10.155 13.855 9.805 12.6917 10.155 11.6667M10 13.3333H30L35 6.66667C31.8133 3.775 26.3167 1.66667 20 1.66667C13.6067 1.66667 8.05333 3.82667 5 6.66667L10 13.3333ZM20 8.33334C20.442 8.33334 20.8659 8.15774 21.1785 7.84518C21.4911 7.53262 21.6667 7.1087 21.6667 6.66667H18.3333C18.3333 7.1087 18.5089 7.53262 18.8215 7.84518C19.134 8.15774 19.558 8.33334 20 8.33334Z" stroke="#1F7C4A" stroke-width="2"/>
</svg>
