<svg width="40" height="40" viewBox="0 0 40 40" fill="none" xmlns="http://www.w3.org/2000/svg">
<path d="M10 9C10 8.20435 10.3161 7.44129 10.8787 6.87868C11.4413 6.31607 12.2044 6 13 6H27C27.7956 6 28.5587 6.31607 29.1213 6.87868C29.6839 7.44129 30 8.20435 30 9V10H31C32.3261 10 33.5979 10.5268 34.5355 11.4645C35.4732 12.4021 36 13.6739 36 15V25C36 25.7956 35.6839 26.5587 35.1213 27.1213C34.5587 27.6839 33.7956 28 33 28H30V31C30 31.7956 29.6839 32.5587 29.1213 33.1213C28.5587 33.6839 27.7956 34 27 34H13C12.2044 34 11.4413 33.6839 10.8787 33.1213C10.3161 32.5587 10 31.7956 10 31V28H7C6.20435 28 5.44129 27.6839 4.87868 27.1213C4.31607 26.5587 4 25.7956 4 25V15C4 13.6739 4.52678 12.4021 5.46447 11.4645C6.40215 10.5268 7.67392 10 9 10H10V9ZM12 10H28V9C28 8.73478 27.8946 8.48043 27.7071 8.29289C27.5196 8.10536 27.2652 8 27 8H13C12.7348 8 12.4804 8.10536 12.2929 8.29289C12.1054 8.48043 12 8.73478 12 9V10ZM10 26V23C10 22.2044 10.3161 21.4413 10.8787 20.8787C11.4413 20.3161 12.2044 20 13 20H27C27.7956 20 28.5587 20.3161 29.1213 20.8787C29.6839 21.4413 30 22.2044 30 23V26H33C33.2652 26 33.5196 25.8946 33.7071 25.7071C33.8946 25.5196 34 25.2652 34 25V15C34 14.2044 33.6839 13.4413 33.1213 12.8787C32.5587 12.3161 31.7956 12 31 12H9C8.20435 12 7.44129 12.3161 6.87868 12.8787C6.31607 13.4413 6 14.2044 6 15V25C6 25.2652 6.10536 25.5196 6.29289 25.7071C6.48043 25.8946 6.73478 26 7 26H10ZM13 22C12.7348 22 12.4804 22.1054 12.2929 22.2929C12.1054 22.4804 12 22.7348 12 23V31C12 31.2652 12.1054 31.5196 12.2929 31.7071C12.4804 31.8946 12.7348 32 13 32H27C27.2652 32 27.5196 31.8946 27.7071 31.7071C27.8946 31.5196 28 31.2652 28 31V23C28 22.7348 27.8946 22.4804 27.7071 22.2929C27.5196 22.1054 27.2652 22 27 22H13Z" fill="#02243D"/>
</svg>
