<svg width="40" height="40" viewBox="0 0 40 40" fill="none" xmlns="http://www.w3.org/2000/svg">
<g clip-path="url(#clip0_177_122)">
<g clip-path="url(#clip1_177_122)">
<path d="M34.3864 28.7486L39.1819 37.0543C39.255 37.1809 39.2935 37.3246 39.2935 37.4709C39.2935 37.6171 39.255 37.7608 39.1819 37.8874C39.1088 38.0141 39.0036 38.1192 38.877 38.1924C38.7503 38.2655 38.6067 38.304 38.4604 38.304H28.8695C28.7232 38.304 28.5796 38.2655 28.4529 38.1924C28.3263 38.1192 28.2211 38.0141 28.148 37.8874C28.0749 37.7608 28.0364 37.6171 28.0364 37.4709C28.0364 37.3246 28.0749 37.1809 28.148 37.0543L32.9435 28.7486C33.2639 28.1932 34.0654 28.1932 34.3864 28.7486ZM33.6649 29.7206L29.3505 37.1931H37.9794L33.6649 29.7206ZM33.6649 35.3314C33.8123 35.3314 33.9535 35.3899 34.0577 35.4941C34.1618 35.5982 34.2204 35.7395 34.2204 35.8868C34.2204 36.0341 34.1618 36.1754 34.0577 36.2795C33.9535 36.3837 33.8123 36.4422 33.6649 36.4422C33.5176 36.4422 33.3764 36.3837 33.2722 36.2795C33.168 36.1754 33.1095 36.0341 33.1095 35.8868C33.1095 35.7395 33.168 35.5982 33.2722 35.4941C33.3764 35.3899 33.5176 35.3314 33.6649 35.3314ZM33.6649 31.4435C33.8123 31.4435 33.9535 31.502 34.0577 31.6062C34.1618 31.7103 34.2204 31.8516 34.2204 31.9989V34.2206C34.2204 34.3679 34.1618 34.5091 34.0577 34.6133C33.9535 34.7175 33.8123 34.776 33.6649 34.776C33.5176 34.776 33.3764 34.7175 33.2722 34.6133C33.168 34.5091 33.1095 34.3679 33.1095 34.2206V31.9989C33.1095 31.8516 33.168 31.7103 33.2722 31.6062C33.3764 31.502 33.5176 31.4435 33.6649 31.4435Z" fill="#02243D"/>
</g>
<path d="M13.4583 22.0774V11.9227C13.4585 11.7957 13.4928 11.671 13.5578 11.5618C13.6227 11.4526 13.7159 11.3629 13.8274 11.3021C13.9389 11.2412 14.0648 11.2115 14.1918 11.216C14.3187 11.2205 14.4422 11.2591 14.5491 11.3277L22.4484 16.4036C22.5484 16.4677 22.6307 16.5559 22.6877 16.6602C22.7447 16.7644 22.7746 16.8813 22.7746 17.0001C22.7746 17.1189 22.7447 17.2357 22.6877 17.34C22.6307 17.4442 22.5484 17.5324 22.4484 17.5965L14.5491 22.6738C14.4422 22.7424 14.3187 22.781 14.1918 22.7855C14.0648 22.79 13.9389 22.7603 13.8274 22.6995C13.7159 22.6386 13.6227 22.5489 13.5578 22.4397C13.4928 22.3305 13.4585 22.2059 13.4583 22.0788V22.0774Z" fill="#02243D"/>
<path d="M1.41675 17.0001C1.41675 8.39383 8.39383 1.41675 17.0001 1.41675C25.6063 1.41675 32.5834 8.39383 32.5834 17.0001C32.5834 25.6063 25.6063 32.5834 17.0001 32.5834C8.39383 32.5834 1.41675 25.6063 1.41675 17.0001ZM17.0001 3.54175C13.4307 3.54175 10.0075 4.95968 7.4836 7.4836C4.95968 10.0075 3.54175 13.4307 3.54175 17.0001C3.54175 20.5695 4.95968 23.9926 7.4836 26.5166C10.0075 29.0405 13.4307 30.4584 17.0001 30.4584C20.5695 30.4584 23.9926 29.0405 26.5166 26.5166C29.0405 23.9926 30.4584 20.5695 30.4584 17.0001C30.4584 13.4307 29.0405 10.0075 26.5166 7.4836C23.9926 4.95968 20.5695 3.54175 17.0001 3.54175Z" fill="#02243D"/>
</g>
<defs>
<clipPath id="clip0_177_122">
<rect width="40" height="40" fill="white"/>
</clipPath>
<clipPath id="clip1_177_122">
<rect width="13.33" height="13.33" fill="white" transform="translate(27 27)"/>
</clipPath>
</defs>
</svg>
