<svg width="40" height="40" viewBox="0 0 40 40" fill="none" xmlns="http://www.w3.org/2000/svg">
<path d="M15.8333 25.9734V14.0268C15.8335 13.8773 15.8739 13.7306 15.9504 13.6022C16.0268 13.4737 16.1363 13.3682 16.2675 13.2966C16.3988 13.225 16.5468 13.19 16.6962 13.1954C16.8456 13.2007 16.9908 13.2461 17.1166 13.3268L26.4099 19.2984C26.5276 19.3738 26.6244 19.4776 26.6915 19.6002C26.7585 19.7228 26.7937 19.8603 26.7937 20.0001C26.7937 20.1399 26.7585 20.2774 26.6915 20.4C26.6244 20.5226 26.5276 20.6264 26.4099 20.7018L17.1166 26.6751C16.9908 26.7558 16.8456 26.8012 16.6962 26.8065C16.5468 26.8118 16.3988 26.7769 16.2675 26.7053C16.1363 26.6337 16.0268 26.5282 15.9504 26.3997C15.8739 26.2712 15.8335 26.1246 15.8333 25.9751V25.9734Z" fill="#02243D"/>
<path d="M1.66675 20.0001C1.66675 9.87508 9.87508 1.66675 20.0001 1.66675C30.1251 1.66675 38.3334 9.87508 38.3334 20.0001C38.3334 30.1251 30.1251 38.3334 20.0001 38.3334C9.87508 38.3334 1.66675 30.1251 1.66675 20.0001ZM20.0001 4.16675C15.8008 4.16675 11.7736 5.8349 8.80422 8.80422C5.8349 11.7736 4.16675 15.8008 4.16675 20.0001C4.16675 24.1993 5.8349 28.2266 8.80422 31.1959C11.7736 34.1653 15.8008 35.8334 20.0001 35.8334C24.1993 35.8334 28.2266 34.1653 31.1959 31.1959C34.1653 28.2266 35.8334 24.1993 35.8334 20.0001C35.8334 15.8008 34.1653 11.7736 31.1959 8.80422C28.2266 5.8349 24.1993 4.16675 20.0001 4.16675Z" fill="#02243D"/>
</svg>
