<svg width="40" height="40" viewBox="0 0 40 40" fill="none" xmlns="http://www.w3.org/2000/svg">
<path d="M12.51 25.4417C12.5538 25.5999 12.6283 25.748 12.7293 25.8774C12.8303 26.0069 12.9558 26.1152 13.0987 26.1961C13.2415 26.277 13.3989 26.3291 13.5619 26.3492C13.7248 26.3693 13.8901 26.3571 14.0484 26.3133C14.2066 26.2696 14.3547 26.195 14.4841 26.094C14.6136 25.993 14.7219 25.8675 14.8028 25.7247C14.8837 25.5818 14.9358 25.4244 14.9559 25.2615C14.976 25.0986 14.9638 24.9332 14.92 24.775L12.51 25.4417ZM5.33337 7.875C5.17451 7.82859 5.00801 7.8142 4.84354 7.83265C4.67907 7.85111 4.5199 7.90204 4.37527 7.98249C4.23063 8.06294 4.10342 8.17132 4.001 8.30133C3.89858 8.43133 3.823 8.58038 3.77864 8.73983C3.73429 8.89928 3.72203 9.06595 3.7426 9.23017C3.76316 9.39439 3.81613 9.55289 3.89843 9.69648C3.98074 9.84007 4.09074 9.96588 4.22205 10.0666C4.35336 10.1674 4.50337 10.241 4.66337 10.2833L5.33337 7.875ZM33.6467 26.2083C33.8095 26.1707 33.963 26.1008 34.0983 26.0028C34.2336 25.9048 34.3479 25.7807 34.4344 25.6378C34.5209 25.4949 34.5779 25.3361 34.602 25.1708C34.6261 25.0055 34.6168 24.837 34.5747 24.6753C34.5326 24.5137 34.4585 24.3621 34.3568 24.2296C34.2551 24.097 34.1279 23.9862 33.9827 23.9037C33.8374 23.8211 33.6771 23.7686 33.5112 23.749C33.3453 23.7295 33.1771 23.7434 33.0167 23.79L33.6467 26.2083ZM16.995 29.265C17.5117 31.1317 16.3784 33.1033 14.3717 33.625L15 36.0433C18.295 35.1883 20.3084 31.8733 19.405 28.5983L16.995 29.265ZM14.3717 33.625C12.3517 34.15 10.325 32.9767 9.80504 31.0933L7.39504 31.76C8.29504 35.0183 11.7184 36.8967 15 36.0433L14.3717 33.625ZM9.80504 31.0933C9.28837 29.2267 10.4217 27.255 12.4284 26.7333L11.8 24.3167C8.50504 25.1717 6.49004 28.485 7.39504 31.76L9.80504 31.0933ZM12.4284 26.7333C14.4484 26.2083 16.475 27.3817 16.995 29.265L19.405 28.5983C18.505 25.34 15.0817 23.4617 11.8 24.315L12.4284 26.7333ZM14.92 24.775L11.3334 11.7917L8.92337 12.4583L12.51 25.4417L14.92 24.775ZM8.17337 8.66166L5.33337 7.875L4.66337 10.2833L7.50504 11.0717L8.17337 8.66166ZM11.3334 11.7917C11.1219 11.0414 10.7197 10.3587 10.1659 9.8102C9.61208 9.26166 8.92561 8.86596 8.17337 8.66166L7.50837 11.0717C8.21671 11.2683 8.74337 11.8067 8.92337 12.4583L11.3334 11.7917ZM18.5167 30.1417L33.6467 26.2083L33.0184 23.79L17.8867 27.7233L18.5167 30.1417Z" fill="#02243D"/>
<path d="M15.9417 14.55C15.1334 11.625 14.7301 10.1617 15.4167 9.01C16.1017 7.85667 17.6101 7.465 20.6267 6.68L23.8267 5.85C26.8434 5.06667 28.3517 4.67334 29.5401 5.33834C30.7284 6.005 31.1334 7.46667 31.9401 10.3933L32.7984 13.4967C33.6067 16.4217 34.0117 17.885 33.3251 19.0383C32.6384 20.19 31.1301 20.5833 28.1134 21.3667L24.9134 22.1983C21.8967 22.9817 20.3884 23.3733 19.2001 22.7083C18.0117 22.0417 17.6084 20.58 16.8001 17.655L15.9417 14.55Z" stroke="#02243D" stroke-width="1.5"/>
</svg>
