<svg width="40" height="40" viewBox="0 0 40 40" fill="none" xmlns="http://www.w3.org/2000/svg">
<g clip-path="url(#clip0_177_94)">
<path d="M6.71503 21.4201C4.73666 21.4201 3.64016 20.3724 3.54028 19.0146H4.92791C5.06603 19.7498 5.76941 20.2534 6.82128 20.2534C7.93478 20.2534 8.58503 19.7307 8.58503 18.9359C8.58503 18.2921 8.15366 17.9436 7.23141 17.7204L5.83741 17.3719C4.54116 17.0596 3.75916 16.2882 3.75916 15.0812C3.75916 13.5809 5.02778 12.5652 6.82766 12.5652C8.64028 12.5652 9.77291 13.5746 9.87916 14.8751H8.50853C8.37253 14.1951 7.76053 13.7233 6.81491 13.7233C5.81191 13.7233 5.17866 14.2461 5.17866 14.9983C5.17866 15.5529 5.59516 15.9269 6.35378 16.1076L7.74353 16.4497C9.17366 16.7982 9.99603 17.4846 9.99603 18.8084C9.99603 20.3724 8.77628 21.4201 6.71503 21.4201ZM13.9974 13.9613V21.2501H12.5843V13.9613H10.1002V12.7501H16.4879V13.9571H13.9974V13.9613Z" fill="#02243D"/>
<path fill-rule="evenodd" clip-rule="evenodd" d="M23.4707 16.4263V17.5823C23.4707 19.9857 22.1192 21.4179 19.941 21.4179C17.7608 21.4179 16.405 19.9857 16.405 17.5823V16.4263C16.405 14.0123 17.7608 12.5864 19.941 12.5864C22.1213 12.5864 23.4685 14.0187 23.4685 16.4263H23.4707ZM22.0384 17.5887V16.4136C22.0384 14.6562 21.1417 13.7913 19.941 13.7913C18.7255 13.7913 17.8373 14.6562 17.8373 16.4136V17.5887C17.8373 19.3524 18.7255 20.2173 19.941 20.2173C21.1417 20.2173 22.0384 19.3503 22.0384 17.5887ZM24.4822 12.7522H27.744C29.4865 12.7522 30.5405 13.9209 30.5405 15.4977C30.5405 17.0851 29.4759 18.2368 27.7334 18.2368H25.8953V21.2501H24.4822V12.7522ZM27.5337 17.0787C28.5175 17.0787 29.0955 16.5007 29.0955 15.4977C29.0955 14.4947 28.5175 13.9231 27.5337 13.9231H25.8889V17.0787H27.5337Z" fill="#02243D"/>
<path fill-rule="evenodd" clip-rule="evenodd" d="M10.3976 0C10.1164 5.97528e-05 9.84662 0.111628 9.6475 0.31025L0.31025 9.6475C0.111628 9.84662 5.97528e-05 10.1164 0 10.3976L0 23.6024C5.97528e-05 23.8836 0.111628 24.1534 0.31025 24.3525L9.6475 33.6898C9.84662 33.8884 10.1164 33.9999 10.3976 34H23.6024C23.8836 33.9999 24.1534 33.8884 24.3525 33.6898L33.6898 24.3525C33.8884 24.1534 33.9999 23.8836 34 23.6024V10.3976C33.9999 10.1164 33.8884 9.84662 33.6898 9.6475L24.3525 0.31025C24.1534 0.111628 23.8836 5.97528e-05 23.6024 0L10.3976 0ZM2.125 10.8375L10.8375 2.125H23.1625L31.875 10.8375V23.1625L23.1625 31.875H10.8375L2.125 23.1625V10.8375Z" fill="#02243D"/>
<g clip-path="url(#clip1_177_94)">
<path d="M34.3864 28.7486L39.1819 37.0543C39.255 37.1809 39.2935 37.3246 39.2935 37.4709C39.2935 37.6171 39.255 37.7608 39.1819 37.8874C39.1088 38.0141 39.0036 38.1192 38.877 38.1924C38.7503 38.2655 38.6067 38.304 38.4604 38.304H28.8695C28.7232 38.304 28.5796 38.2655 28.4529 38.1924C28.3263 38.1192 28.2211 38.0141 28.148 37.8874C28.0749 37.7608 28.0364 37.6171 28.0364 37.4709C28.0364 37.3246 28.0749 37.1809 28.148 37.0543L32.9435 28.7486C33.2639 28.1932 34.0654 28.1932 34.3864 28.7486ZM33.6649 29.7206L29.3505 37.1931H37.9794L33.6649 29.7206ZM33.6649 35.3314C33.8123 35.3314 33.9535 35.3899 34.0577 35.4941C34.1618 35.5982 34.2204 35.7395 34.2204 35.8868C34.2204 36.0341 34.1618 36.1754 34.0577 36.2795C33.9535 36.3837 33.8123 36.4422 33.6649 36.4422C33.5176 36.4422 33.3764 36.3837 33.2722 36.2795C33.168 36.1754 33.1095 36.0341 33.1095 35.8868C33.1095 35.7395 33.168 35.5982 33.2722 35.4941C33.3764 35.3899 33.5176 35.3314 33.6649 35.3314ZM33.6649 31.4435C33.8123 31.4435 33.9535 31.502 34.0577 31.6062C34.1618 31.7103 34.2204 31.8516 34.2204 31.9989V34.2206C34.2204 34.3679 34.1618 34.5091 34.0577 34.6133C33.9535 34.7175 33.8123 34.776 33.6649 34.776C33.5176 34.776 33.3764 34.7175 33.2722 34.6133C33.168 34.5091 33.1095 34.3679 33.1095 34.2206V31.9989C33.1095 31.8516 33.168 31.7103 33.2722 31.6062C33.3764 31.502 33.5176 31.4435 33.6649 31.4435Z" fill="#02243D"/>
</g>
</g>
<defs>
<clipPath id="clip0_177_94">
<rect width="40" height="40" fill="white"/>
</clipPath>
<clipPath id="clip1_177_94">
<rect width="13.33" height="13.33" fill="white" transform="translate(27 27)"/>
</clipPath>
</defs>
</svg>
