<svg width="40" height="40" viewBox="0 0 40 40" fill="none" xmlns="http://www.w3.org/2000/svg">
<path d="M20.0001 6.66664V3.6833C20.0001 2.9333 19.1001 2.56664 18.5834 3.09997L13.9167 7.74997C13.5834 8.0833 13.5834 8.59997 13.9167 8.9333L18.5667 13.5833C19.1001 14.1 20.0001 13.7333 20.0001 12.9833V9.99997C25.5167 9.99997 30.0001 14.4833 30.0001 20C30.0001 21.3166 29.7501 22.6 29.2667 23.75C29.0167 24.35 29.2001 25.0333 29.6501 25.4833C30.5001 26.3333 31.9334 26.0333 32.3834 24.9166C33.0001 23.4 33.3334 21.7333 33.3334 20C33.3334 12.6333 27.3667 6.66664 20.0001 6.66664ZM20.0001 30C14.4834 30 10.0001 25.5166 10.0001 20C10.0001 18.6833 10.2501 17.4 10.7334 16.25C10.9834 15.65 10.8001 14.9666 10.3501 14.5166C9.50008 13.6666 8.06675 13.9666 7.61675 15.0833C7.00008 16.6 6.66675 18.2666 6.66675 20C6.66675 27.3666 12.6334 33.3333 20.0001 33.3333V36.3166C20.0001 37.0666 20.9001 37.4333 21.4167 36.9L26.0667 32.25C26.4001 31.9166 26.4001 31.4 26.0667 31.0666L21.4167 26.4166C21.2993 26.3015 21.1503 26.2236 20.9887 26.193C20.827 26.1623 20.6599 26.1802 20.5084 26.2444C20.3569 26.3086 20.2278 26.4161 20.1373 26.5536C20.0469 26.691 19.9991 26.8521 20.0001 27.0166V30Z" fill="#02243D"/>
</svg>
