<svg width="40" height="40" viewBox="0 0 40 40" fill="none" xmlns="http://www.w3.org/2000/svg">
<path d="M21.6666 29.1667C21.6666 29.6088 21.491 30.0327 21.1784 30.3453C20.8659 30.6578 20.4419 30.8334 19.9999 30.8334C19.5579 30.8334 19.134 30.6578 18.8214 30.3453C18.5088 30.0327 18.3333 29.6088 18.3333 29.1667C18.3333 28.7247 18.5088 28.3008 18.8214 27.9882C19.134 27.6757 19.5579 27.5001 19.9999 27.5001C20.4419 27.5001 20.8659 27.6757 21.1784 27.9882C21.491 28.3008 21.6666 28.7247 21.6666 29.1667ZM21.2499 15.4167C21.2499 15.0852 21.1182 14.7673 20.8838 14.5329C20.6494 14.2984 20.3314 14.1667 19.9999 14.1667C19.6684 14.1667 19.3505 14.2984 19.116 14.5329C18.8816 14.7673 18.7499 15.0852 18.7499 15.4167V22.9167C18.7499 23.2483 18.8816 23.5662 19.116 23.8006C19.3505 24.0351 19.6684 24.1667 19.9999 24.1667C20.3314 24.1667 20.6494 24.0351 20.8838 23.8006C21.1182 23.5662 21.2499 23.2483 21.2499 22.9167V15.4167Z" fill="#02243D"/>
<path d="M16.3934 5.40669C17.9984 2.63169 22.0017 2.63169 23.6067 5.40669L38.5517 31.2467C40.1567 34.025 38.1517 37.5 34.9434 37.5H5.0567C1.8467 37.5 -0.156631 34.025 1.44837 31.2467L16.3934 5.40669ZM21.4434 6.65836C21.2964 6.40585 21.0858 6.19632 20.8325 6.05069C20.5792 5.90505 20.2922 5.82841 20 5.82841C19.7079 5.82841 19.4208 5.90505 19.1676 6.05069C18.9143 6.19632 18.7037 6.40585 18.5567 6.65836L3.61337 32.4984C3.46775 32.7519 3.39126 33.0393 3.39155 33.3317C3.39184 33.6241 3.4689 33.9113 3.61503 34.1646C3.76116 34.4179 3.97123 34.6283 4.22423 34.775C4.47723 34.9216 4.76429 34.9992 5.0567 35H34.9434C35.2355 34.999 35.5223 34.9214 35.7751 34.7748C36.0279 34.6283 36.2378 34.418 36.3838 34.165C36.5299 33.912 36.6071 33.6251 36.6076 33.3329C36.6081 33.0407 36.5319 32.7535 36.3867 32.5L21.4434 6.65836Z" fill="#02243D"/>
</svg>
