<svg width="40" height="40" viewBox="0 0 40 40" fill="none" xmlns="http://www.w3.org/2000/svg">
<g clip-path="url(#clip0_242_46)">
<path d="M30.929 34.1654L32.4922 35.7721C31.0005 36.949 29.3859 37.8778 27.6485 38.5587C25.9111 39.2395 24.1023 39.7199 22.222 40V37.7654C23.8983 37.5121 25.4719 37.0838 26.9428 36.4804C28.4137 35.8771 29.7424 35.1054 30.929 34.1654ZM40 22.2346C39.7886 24.1147 39.3211 25.9218 38.5976 27.6559C37.8741 29.3899 36.9242 31.0153 35.7481 32.5318L34.167 30.9497C35.1347 29.7207 35.9163 28.3709 36.5118 26.9006C37.1073 25.4302 37.5168 23.8749 37.7401 22.2346H40ZM35.7883 7.51061C37.0597 9.20745 38.011 10.8037 38.6423 12.2994C39.2735 13.7952 39.7261 15.6171 40 17.7654H37.7401C37.5168 16.0894 37.1073 14.5155 36.5118 13.0436C35.9163 11.5717 35.1347 10.2406 34.167 9.05028L35.7883 7.51061ZM17.7535 0V2.23464C13.2872 2.86778 9.58389 4.86033 6.64359 8.21229C3.70329 11.5642 2.23314 15.4935 2.23314 20C2.23314 24.4693 3.70329 28.3799 6.64359 31.7318C9.58389 35.0838 13.2872 37.095 17.7535 37.7654V40C12.6887 39.3594 8.4636 37.1397 5.07816 33.3408C1.69272 29.5419 0 25.095 0 20C0 14.8574 1.69272 10.3896 5.07816 6.59665C8.4636 2.80372 12.6887 0.604842 17.7535 0ZM22.3068 0C24.1871 0.24432 25.9677 0.713594 27.6485 1.40782C29.3293 2.10205 30.9446 3.04209 32.4944 4.22793L31.0429 5.92179C29.703 4.9162 28.2954 4.09683 26.82 3.46369C25.3461 2.83054 23.8417 2.42086 22.3068 2.23464V0ZM19.1134 28.1475C18.6906 26.905 18.1785 25.8428 17.577 24.9609C16.9741 24.0804 16.3778 23.2432 15.7883 22.4492C15.1973 21.6566 14.6993 20.838 14.2943 19.9933C13.8894 19.1501 13.6869 18.1296 13.6869 16.9318C13.6869 15.162 14.2973 13.6663 15.5181 12.4447C16.7389 11.2231 18.2328 10.613 20 10.6145C21.7672 10.616 23.2619 11.2268 24.4841 12.4469C25.7064 13.667 26.3161 15.162 26.3131 16.9318C26.3131 18.1296 26.1106 19.1501 25.7057 19.9933C25.3007 20.8365 24.8035 21.6559 24.2139 22.4514C23.6229 23.2439 23.0259 24.0804 22.423 24.9609C21.8215 25.8413 21.3086 26.9035 20.8843 28.1475H19.1134ZM20 18.9296C20.5702 18.9296 21.0459 18.7397 21.427 18.3598C21.8066 17.9784 21.9964 17.5024 21.9964 16.9318C21.9964 16.3613 21.8066 15.8853 21.427 15.5039C21.0473 15.1225 20.5717 14.9333 20 14.9363C19.4283 14.9393 18.9527 15.13 18.573 15.5084C18.1934 15.8868 18.0036 16.362 18.0036 16.9341C18.0036 17.5061 18.1934 17.9821 18.573 18.362C18.9527 18.7419 19.4283 18.9318 20 18.9318" fill="#02243D"/>
<path d="M34.0306 28.5306L29.5306 33.0306C29.4609 33.1005 29.3781 33.156 29.287 33.1939C29.1958 33.2317 29.0981 33.2512 28.9993 33.2512C28.9006 33.2512 28.8029 33.2317 28.7117 33.1939C28.6206 33.156 28.5378 33.1005 28.4681 33.0306L23.9681 28.5306C23.8272 28.3897 23.748 28.1986 23.748 27.9994C23.748 27.8001 23.8272 27.609 23.9681 27.4681C24.109 27.3272 24.3001 27.2481 24.4993 27.2481C24.6986 27.2481 24.8897 27.3272 25.0306 27.4681L28.25 30.6875V21.5C28.25 21.3011 28.329 21.1103 28.4696 20.9697C28.6103 20.829 28.8011 20.75 29 20.75C29.1989 20.75 29.3897 20.829 29.5303 20.9697C29.671 21.1103 29.75 21.3011 29.75 21.5V30.6875L32.9693 27.4675C33.1102 27.3266 33.3013 27.2474 33.5006 27.2474C33.6999 27.2474 33.891 27.3266 34.0318 27.4675C34.1727 27.6084 34.2519 27.7995 34.2519 27.9987C34.2519 28.198 34.1727 28.3891 34.0318 28.53L34.0306 28.5306Z" fill="#02243D"/>
</g>
<defs>
<clipPath id="clip0_242_46">
<rect width="40" height="40" fill="white"/>
</clipPath>
</defs>
</svg>
