<svg width="40" height="40" viewBox="0 0 40 40" fill="none" xmlns="http://www.w3.org/2000/svg">
<path fill-rule="evenodd" clip-rule="evenodd" d="M18.3616 4.67004C15.4687 4.97936 12.7223 6.10097 10.4399 7.90524C8.15757 9.70952 6.43233 12.1228 5.46362 14.8662C4.4949 17.6096 4.32226 20.5711 4.96563 23.4085C5.60901 26.2459 7.04214 28.8433 9.0994 30.9006C11.1567 32.9578 13.7541 34.391 16.5915 35.0343C19.4288 35.6777 22.3904 35.5051 25.1338 34.5363C27.8772 33.5676 30.2904 31.8424 32.0947 29.56C33.899 27.2776 35.0206 24.5313 35.3299 21.6384C34.2739 22.9802 32.9455 24.0829 31.4323 24.8739C29.919 25.6649 28.2554 26.1262 26.5509 26.2274C24.8464 26.3286 23.1398 26.0675 21.5436 25.4611C19.9474 24.8547 18.4978 23.9169 17.2904 22.7095C16.083 21.5022 15.1452 20.0526 14.5389 18.4564C13.9325 16.8602 13.6713 15.1536 13.7725 13.4491C13.8737 11.7446 14.3351 10.0809 15.1261 8.56769C15.9171 7.05446 17.0198 5.72606 18.3616 4.67004ZM2.08325 20C2.08325 10.105 10.1049 2.08337 19.9999 2.08337C21.1949 2.08337 21.7916 3.03504 21.8949 3.79337C21.9933 4.52337 21.7233 5.45171 20.8849 5.95837C19.6398 6.70981 18.5821 7.73475 17.7918 8.95555C17.0016 10.1764 16.4995 11.561 16.3237 13.0046C16.1478 14.4482 16.3029 15.9129 16.777 17.2877C17.2511 18.6625 18.0319 19.9114 19.0603 20.9397C20.0886 21.968 21.3375 22.7488 22.7123 23.223C24.0871 23.6971 25.5517 23.8521 26.9953 23.6763C28.4389 23.5005 29.8236 22.9984 31.0444 22.2081C32.2652 21.4179 33.2902 20.3601 34.0416 19.115C34.5482 18.2767 35.4766 18.0067 36.2066 18.105C36.9649 18.2084 37.9166 18.805 37.9166 20C37.9166 29.895 29.8949 37.9167 19.9999 37.9167C10.1049 37.9167 2.08325 29.895 2.08325 20ZM29.9999 4.58337C29.6684 4.58337 29.3505 4.45168 29.116 4.21726C28.8816 3.98284 28.7499 3.66489 28.7499 3.33337C28.7499 3.00185 28.8816 2.68391 29.116 2.44949C29.3505 2.21507 29.6684 2.08337 29.9999 2.08337H36.6666C36.9137 2.08359 37.1551 2.15702 37.3605 2.29439C37.5658 2.43175 37.7259 2.6269 37.8204 2.85517C37.9149 3.08344 37.9397 3.3346 37.8915 3.57693C37.8434 3.81927 37.7245 4.0419 37.5499 4.21671L33.0166 8.75004H36.6666C36.9981 8.75004 37.316 8.88174 37.5505 9.11616C37.7849 9.35058 37.9166 9.66852 37.9166 10C37.9166 10.3316 37.7849 10.6495 37.5505 10.8839C37.316 11.1183 36.9981 11.25 36.6666 11.25H29.9999C29.7529 11.2498 29.5114 11.1764 29.306 11.039C29.1007 10.9017 28.9406 10.7065 28.8461 10.4782C28.7516 10.25 28.7268 9.99881 28.775 9.75648C28.8231 9.51415 28.942 9.29152 29.1166 9.11671L33.6499 4.58337H29.9999ZM22.4999 14.5834C22.1684 14.5834 21.8505 14.4517 21.616 14.2173C21.3816 13.9828 21.2499 13.6649 21.2499 13.3334C21.2499 13.0019 21.3816 12.6839 21.616 12.4495C21.8505 12.2151 22.1684 12.0834 22.4999 12.0834H27.4999C27.747 12.0836 27.9884 12.157 28.1938 12.2944C28.3992 12.4318 28.5592 12.6269 28.6537 12.8552C28.7482 13.0834 28.773 13.3346 28.7249 13.5769C28.6767 13.8193 28.5578 14.0419 28.3833 14.2167L25.5166 17.0834H27.4999C27.8314 17.0834 28.1494 17.2151 28.3838 17.4495C28.6182 17.6839 28.7499 18.0019 28.7499 18.3334C28.7499 18.6649 28.6182 18.9828 28.3838 19.2173C28.1494 19.4517 27.8314 19.5834 27.4999 19.5834H22.4999C22.2529 19.5832 22.0114 19.5097 21.806 19.3724C21.6007 19.235 21.4406 19.0399 21.3461 18.8116C21.2516 18.5833 21.2268 18.3321 21.275 18.0898C21.3231 17.8475 21.442 17.6249 21.6166 17.45L24.4833 14.5834H22.4999Z" fill="#02243D"/>
</svg>
