<svg width="38" height="48" viewBox="0 0 38 48" fill="none" xmlns="http://www.w3.org/2000/svg">
<path d="M36.8125 19C36.8125 23.9007 34.2891 29.8958 30.6404 35.1738C27.1364 40.2424 22.7636 44.4062 19 46.1969C15.2364 44.4062 10.8636 40.2424 7.35962 35.1738C3.71092 29.8958 1.1875 23.9007 1.1875 19C1.1875 9.16243 9.16243 1.1875 19 1.1875C28.8376 1.1875 36.8125 9.16243 36.8125 19Z" fill="#38AAE1" stroke="#02243D" stroke-width="2.375"/>
<g clip-path="url(#clip0_1_299)">
<path d="M26.9166 15.0416H24.2777V11.743C24.2777 11.5681 24.2082 11.4003 24.0845 11.2765C23.9608 11.1528 23.793 11.0833 23.618 11.0833H9.10412C8.92915 11.0833 8.76135 11.1528 8.63763 11.2765C8.5139 11.4003 8.4444 11.5681 8.4444 11.743V23.618C8.4444 23.793 8.5139 23.9608 8.63763 24.0845C8.76135 24.2083 8.92915 24.2778 9.10412 24.2778H9.76384V12.4028H22.9583V20.1215C23.2947 20.0357 23.6403 19.9914 23.9875 19.9896H24.2777V16.3611H26.9166C27.2666 16.3611 27.6022 16.5001 27.8496 16.7475C28.0971 16.995 28.2361 17.3306 28.2361 17.6805V18.3403H25.5972V19.6597H28.2361V22.9583H26.6527C26.4213 22.4207 26.0374 21.9627 25.5485 21.6408C25.0595 21.319 24.487 21.1475 23.9017 21.1475C23.3164 21.1475 22.7439 21.319 22.2549 21.6408C21.766 21.9627 21.3821 22.4207 21.1506 22.9583H16.6447C16.4177 22.4168 16.0351 21.9547 15.5454 21.6306C15.0557 21.3065 14.4809 21.1349 13.8937 21.1375C13.3358 21.1498 12.7933 21.3234 12.3319 21.6373C11.8705 21.9513 11.5099 22.3921 11.2936 22.9066C11.0774 23.4211 11.0147 23.9872 11.1132 24.5365C11.2118 25.0858 11.4672 25.5948 11.8488 26.0021C12.2304 26.4093 12.7218 26.6974 13.2635 26.8314C13.8052 26.9654 14.3742 26.9397 14.9017 26.7573C15.4291 26.575 15.8925 26.2438 16.2357 25.8037C16.579 25.3637 16.7875 24.8337 16.8361 24.2778H20.9791C21.063 24.9993 21.409 25.6649 21.9515 26.148C22.494 26.6311 23.1951 26.8981 23.9215 26.8981C24.6479 26.8981 25.349 26.6311 25.8915 26.148C26.434 25.6649 26.78 24.9993 26.8638 24.2778H28.8958C29.0708 24.2778 29.2386 24.2083 29.3623 24.0845C29.486 23.9608 29.5555 23.793 29.5555 23.618V17.6805C29.5555 16.9807 29.2775 16.3094 28.7826 15.8146C28.2877 15.3197 27.6165 15.0416 26.9166 15.0416ZM13.8937 25.5972C13.6794 25.6111 13.4645 25.5809 13.2623 25.5085C13.0602 25.436 12.875 25.3229 12.7183 25.176C12.5616 25.0292 12.4367 24.8517 12.3513 24.6547C12.2659 24.4576 12.2218 24.2451 12.2218 24.0304C12.2218 23.8156 12.2659 23.6031 12.3513 23.4061C12.4367 23.209 12.5616 23.0316 12.7183 22.8847C12.875 22.7378 13.0602 22.6247 13.2623 22.5523C13.4645 22.4798 13.6794 22.4496 13.8937 22.4635C14.108 22.4496 14.3229 22.4798 14.5251 22.5523C14.7273 22.6247 14.9124 22.7378 15.0691 22.8847C15.2258 23.0316 15.3507 23.209 15.4361 23.4061C15.5215 23.6031 15.5656 23.8156 15.5656 24.0304C15.5656 24.2451 15.5215 24.4576 15.4361 24.6547C15.3507 24.8517 15.2258 25.0292 15.0691 25.176C14.9124 25.3229 14.7273 25.436 14.5251 25.5085C14.3229 25.5809 14.108 25.6111 13.8937 25.5972ZM23.9017 25.5972C23.5947 25.5817 23.299 25.4764 23.0513 25.2945C22.8036 25.1125 22.6147 24.8618 22.5082 24.5735C22.4016 24.2853 22.3819 23.972 22.4517 23.6727C22.5215 23.3733 22.6776 23.101 22.9006 22.8896C23.1237 22.6781 23.4039 22.5368 23.7066 22.4831C24.0092 22.4294 24.3209 22.4657 24.6031 22.5875C24.8853 22.7093 25.1256 22.9113 25.2941 23.1684C25.4626 23.4254 25.5519 23.7263 25.551 24.0337C25.5389 24.4595 25.3585 24.8631 25.0494 25.1562C24.7402 25.4493 24.3275 25.6078 23.9017 25.5972Z" fill="#02243D"/>
</g>
<defs>
<clipPath id="clip0_1_299">
<rect width="23.75" height="23.75" fill="white" transform="translate(7.125 7.125)"/>
</clipPath>
</defs>
</svg>
