<svg width="40" height="40" viewBox="0 0 40 40" fill="none" xmlns="http://www.w3.org/2000/svg">
<g clip-path="url(#clip0_217_82)">
<path d="M35.7333 17.8668L9.93325 4.96676C9.58519 4.80551 9.20233 4.73386 8.81952 4.75836C8.4367 4.78285 8.06609 4.9027 7.74142 5.107C7.41676 5.31129 7.14834 5.59355 6.96061 5.92807C6.77289 6.2626 6.67181 6.63876 6.66658 7.02232V32.8112C6.66333 33.2049 6.7617 33.5928 6.95219 33.9374C7.14268 34.282 7.41884 34.5717 7.75398 34.7783C8.08912 34.985 8.47191 35.1017 8.86535 35.1172C9.25878 35.1327 9.64956 35.0464 9.99992 34.8668L35.7333 21.9668C36.1144 21.7754 36.4349 21.4818 36.6589 21.1188C36.8828 20.7558 37.0014 20.3377 37.0014 19.9112C37.0014 19.4847 36.8828 19.0666 36.6589 18.7036C36.4349 18.3406 36.1144 18.047 35.7333 17.8557V17.8668Z" fill="#02243D"/>
</g>
<defs>
<clipPath id="clip0_217_82">
<rect width="40" height="40" fill="white"/>
</clipPath>
</defs>
</svg>
