<svg width="40" height="40" viewBox="0 0 40 40" fill="none" xmlns="http://www.w3.org/2000/svg">
<path d="M8 8C8 6.93913 8.42143 5.92172 9.17157 5.17157C9.92172 4.42143 10.9391 4 12 4H21.172C21.9674 4.0007 22.7299 4.31723 23.292 4.88L31.122 12.708L31.256 12.85C30.876 13.0873 30.5238 13.3663 30.206 13.682L27.886 16H23C22.2044 16 21.4413 15.6839 20.8787 15.1213C20.3161 14.5587 20 13.7956 20 13V6H12C11.4696 6 10.9609 6.21071 10.5858 6.58579C10.2107 6.96086 10 7.46957 10 8V32C10 32.5304 10.2107 33.0391 10.5858 33.4142C10.9609 33.7893 11.4696 34 12 34H21.568C21.6987 34.0067 21.8307 34.0067 21.964 34H28C28.5304 34 29.0391 33.7893 29.4142 33.4142C29.7893 33.0391 30 32.5304 30 32V30.124L32 28.124V32C32 33.0609 31.5786 34.0783 30.8284 34.8284C30.0783 35.5786 29.0609 36 28 36H12C10.9391 36 9.92172 35.5786 9.17157 34.8284C8.42143 34.0783 8 33.0609 8 32V8ZM23 14H29.586L22 6.414V13C22 13.2652 22.1054 13.5196 22.2929 13.7071C22.4804 13.8946 22.7348 14 23 14ZM31.62 15.096L21.96 24.756C21.3972 25.3189 20.9977 26.024 20.804 26.796L20.054 29.792C20.037 29.8606 20.0237 29.93 20.014 30H13C12.7348 30 12.4804 30.1054 12.2929 30.2929C12.1054 30.4804 12 30.7348 12 31C12 31.2652 12.1054 31.5196 12.2929 31.7071C12.4804 31.8946 12.7348 32 13 32H21.66C21.7346 32.0042 21.8094 32.0042 21.884 32H22C22.1693 32 22.324 31.962 22.464 31.886L25.208 31.2C25.98 31.0063 26.6851 30.6068 27.248 30.044L36.908 20.384C37.6003 19.6806 37.9865 18.7322 37.9825 17.7453C37.9785 16.7584 37.5846 15.8131 36.8866 15.1154C36.1886 14.4177 35.2432 14.0241 34.2563 14.0205C33.2694 14.0169 32.3211 14.4035 31.618 15.096" fill="#787878"/>
</svg>
