<svg width="40" height="40" viewBox="0 0 40 40" fill="none" xmlns="http://www.w3.org/2000/svg">
<g clip-path="url(#clip0_180_154)">
<path d="M32.438 3.886C33.744 4.91 34.644 6.564 35.012 8.296C35.0566 8.31011 35.1 8.32749 35.142 8.348L39.232 10.24C39.4606 10.345 39.6544 10.5132 39.7905 10.7248C39.9266 10.9363 39.9993 11.1824 40 11.434V36.168C39.9985 36.3735 39.9495 36.5758 39.8567 36.7591C39.7639 36.9424 39.6299 37.1018 39.4652 37.2246C39.3005 37.3475 39.1096 37.4305 38.9074 37.4671C38.7053 37.5038 38.4974 37.4932 38.3 37.436L26.962 34.236L13.482 37.952C13.2388 38.0188 12.9817 38.016 12.74 37.944L0.948 34.434C0.675441 34.3539 0.435979 34.1881 0.265191 33.9611C0.0944019 33.7341 0.00139932 33.4581 0 33.174L0 7.996C0 7.116 0.856 6.484 1.71 6.732L13.114 10.054L18.91 8.28C18.9898 8.25645 19.0714 8.23973 19.154 8.23C19.378 6.918 20.004 5.658 21.054 4.43C22.3 2.97 24.486 2.114 26.616 2.012C28.826 1.906 30.514 2.378 32.436 3.884M2.666 9.762V32.192L12.406 35.09V12.596L2.666 9.762ZM19.084 10.99L15.072 12.216V34.774L25.202 31.986V25.396C25.202 24.668 25.8 24.078 26.536 24.078C27.272 24.078 27.868 24.668 27.868 25.398V31.752L37.334 34.422V12.272L35.094 11.232C35.056 11.452 35.008 11.668 34.948 11.878C34.5131 13.4115 33.7835 14.8456 32.8 16.1L27.846 22.286C27.7156 22.4486 27.549 22.5786 27.3595 22.6656C27.17 22.7525 26.9628 22.7941 26.7545 22.7869C26.5461 22.7797 26.3423 22.724 26.1592 22.6242C25.9762 22.5244 25.8189 22.3832 25.7 22.212L21.07 15.506C20.306 14.438 19.77 13.486 19.468 12.634C19.2784 12.1022 19.1496 11.5507 19.084 10.99ZM26.744 4.648C25.292 4.718 23.8 5.302 23.09 6.132C22.236 7.132 21.816 8.068 21.732 9.016C21.632 10.158 21.7 10.964 21.984 11.762C22.194 12.352 22.612 13.1 23.258 14.002L26.88 19.246L30.7 14.476C31.4707 13.4911 32.042 12.3655 32.382 11.162C32.862 9.482 32.138 7.014 30.782 5.954C29.392 4.864 28.342 4.57 26.746 4.648M27.022 6.042C29.23 6.042 31.022 7.812 31.022 9.996C31.0191 10.5183 30.9134 11.0349 30.7108 11.5163C30.5081 11.9978 30.2127 12.4346 29.8412 12.8017C29.4697 13.1689 29.0296 13.4593 28.5458 13.6564C28.0621 13.8534 27.5443 13.9532 27.022 13.95C24.814 13.95 23.022 12.18 23.022 9.996C23.022 7.812 24.814 6.042 27.022 6.042ZM27.022 8.678C26.8479 8.67695 26.6752 8.7102 26.5139 8.77587C26.3527 8.84153 26.2059 8.93833 26.082 9.06071C25.9582 9.1831 25.8596 9.32869 25.792 9.48917C25.7244 9.64965 25.689 9.82187 25.688 9.996C25.688 10.724 26.286 11.314 27.022 11.314C27.1961 11.3148 27.3687 11.2813 27.5299 11.2154C27.6911 11.1495 27.8377 11.0524 27.9614 10.9299C28.0851 10.8073 28.1834 10.6616 28.2508 10.501C28.3181 10.3404 28.3532 10.1681 28.354 9.994C28.3514 9.64302 28.2097 9.3074 27.96 9.06072C27.7103 8.81403 27.373 8.6764 27.022 8.678Z" fill="#1F7C4A"/>
</g>
<defs>
<clipPath id="clip0_180_154">
<rect width="40" height="40" fill="white"/>
</clipPath>
</defs>
</svg>
