<svg width="40" height="40" viewBox="0 0 40 40" fill="none" xmlns="http://www.w3.org/2000/svg">
<path d="M33.4333 16.9C34.3666 17.6666 35.7333 17.6 36.5833 16.75C37.5666 15.7666 37.4999 14.1333 36.4166 13.25C30.4333 8.34997 22.7499 6.5333 15.4999 7.81664L19.8166 12.1333C24.6333 12.0833 29.4833 13.6666 33.4333 16.9ZM29.6499 19.95C28.3499 19 26.9333 18.2833 25.4499 17.7833L30.3666 22.7C30.7666 21.7333 30.5333 20.5833 29.6499 19.95ZM23.2499 27.05C22.2418 26.5323 21.1249 26.2623 19.9916 26.2623C18.8583 26.2623 17.7414 26.5323 16.7333 27.05C15.7499 27.5666 15.5666 28.9166 16.3499 29.7L18.7999 32.15C19.4499 32.8 20.4999 32.8 21.1499 32.15L23.5999 29.7C24.4166 28.9166 24.2499 27.5666 23.2499 27.05ZM32.7999 29.8333L6.8666 3.89997C6.7123 3.74567 6.52912 3.62327 6.32751 3.53976C6.1259 3.45625 5.90982 3.41327 5.6916 3.41327C5.47339 3.41327 5.25731 3.45625 5.0557 3.53976C4.85409 3.62327 4.67091 3.74567 4.5166 3.89997C4.3623 4.05427 4.2399 4.23746 4.15639 4.43906C4.07288 4.64067 4.0299 4.85675 4.0299 5.07497C4.0299 5.29319 4.07288 5.50927 4.15639 5.71088C4.2399 5.91248 4.3623 6.09567 4.5166 6.24997L8.4166 10.1666C6.73327 11 5.09994 12.0166 3.59994 13.25C3.34541 13.4599 3.13759 13.7208 2.98983 14.0158C2.84207 14.3108 2.75763 14.6335 2.74194 14.9631C2.72624 15.2927 2.77964 15.6219 2.8987 15.9296C3.01775 16.2373 3.19984 16.5168 3.43327 16.75C4.28327 17.6 5.63327 17.6833 6.54994 16.9166C8.2166 15.55 10.0499 14.4833 11.9666 13.7L15.6833 17.4166C13.7999 17.9166 11.9999 18.75 10.3666 19.9333C9.2166 20.7666 9.14994 22.45 10.1499 23.45L10.1666 23.4666C10.9833 24.2833 12.2666 24.3666 13.2166 23.6833C15.1585 22.3231 17.4627 21.5743 19.8333 21.5333L30.4499 32.15C31.0999 32.8 32.1499 32.8 32.7999 32.15C33.4499 31.5333 33.4499 30.4833 32.7999 29.8333Z" fill="#02243D"/>
</svg>
