<svg width="40" height="40" viewBox="0 0 40 40" fill="none" xmlns="http://www.w3.org/2000/svg">
<path d="M19.9999 7.08333C19.2264 7.08333 18.4845 7.39062 17.9375 7.93761C17.3905 8.48459 17.0833 9.22645 17.0833 10V23.1558L16.7016 23.4692C15.8701 24.1495 15.2694 25.0704 14.9818 26.1055C14.6941 27.1406 14.7336 28.2393 15.0948 29.2511C15.456 30.2629 16.1212 31.1383 16.9994 31.7572C17.8775 32.3761 18.9256 32.7083 19.9999 32.7083C21.0743 32.7083 22.1223 32.3761 23.0005 31.7572C23.8786 31.1383 24.5439 30.2629 24.9051 29.2511C25.2663 28.2393 25.3057 27.1406 25.0181 26.1055C24.7304 25.0704 24.1297 24.1495 23.2983 23.4692L22.9166 23.1558V10C22.9166 9.61698 22.8411 9.23771 22.6946 8.88384C22.548 8.52997 22.3332 8.20844 22.0623 7.93761C21.7915 7.66677 21.4699 7.45193 21.1161 7.30535C20.7622 7.15877 20.3829 7.08333 19.9999 7.08333ZM14.9999 10C14.9999 8.67392 15.5267 7.40215 16.4644 6.46447C17.4021 5.52678 18.6738 5 19.9999 5C21.326 5 22.5978 5.52678 23.5355 6.46447C24.4731 7.40215 24.9999 8.67392 24.9999 10V22.1925C26.0631 23.1941 26.801 24.4919 27.1179 25.9178C27.4348 27.3437 27.3162 28.8319 26.7774 30.1896C26.2386 31.5472 25.3045 32.7118 24.096 33.5323C22.8876 34.3529 21.4606 34.7916 19.9999 34.7916C18.5392 34.7916 17.1122 34.3529 15.9038 33.5323C14.6954 32.7118 13.7613 31.5472 13.2225 30.1896C12.6837 28.8319 12.565 27.3437 12.882 25.9178C13.1989 24.4919 13.9367 23.1941 14.9999 22.1925V10ZM23.3333 27.5C23.3332 28.1142 23.1634 28.7165 22.8427 29.2403C22.522 29.7641 22.0628 30.1891 21.5158 30.4685C20.9687 30.7478 20.3552 30.8705 19.7428 30.8231C19.1304 30.7757 18.543 30.5601 18.0455 30.2C17.5479 29.8398 17.1595 29.3492 16.9232 28.7823C16.6869 28.2154 16.6118 27.5942 16.7062 26.9873C16.8006 26.3804 17.0609 25.8113 17.4583 25.343C17.8557 24.8747 18.3748 24.5253 18.9583 24.3333V15.2083C18.9583 14.9321 19.068 14.6671 19.2634 14.4718C19.4587 14.2764 19.7237 14.1667 19.9999 14.1667C20.2762 14.1667 20.5411 14.2764 20.7365 14.4718C20.9318 14.6671 21.0416 14.9321 21.0416 15.2083V24.3333C21.7083 24.5527 22.2888 24.9769 22.7003 25.5455C23.1118 26.1141 23.3333 26.7981 23.3333 27.5Z" fill="#02243D"/>
</svg>
