<svg width="40" height="40" viewBox="0 0 40 40" fill="none" xmlns="http://www.w3.org/2000/svg">
	<path d="M17.5 7.91663C17.5 7.58511 17.3683 7.26716 17.1339 7.03274C16.8995 6.79832 16.5815 6.66663 16.25 6.66663C15.9185 6.66663 15.6005 6.79832 15.3661 7.03274C15.1317 7.26716 15 7.58511 15 7.91663V16.25C14.9999 16.4619 15.0537 16.6704 15.1563 16.8558C15.259 17.0412 15.407 17.1975 15.5867 17.31L20.5867 20.435C20.8678 20.6109 21.2073 20.6679 21.5305 20.5935C21.6905 20.5567 21.8417 20.4887 21.9755 20.3934C22.1092 20.2982 22.2229 20.1775 22.31 20.0383C22.3971 19.8991 22.456 19.7441 22.4832 19.5822C22.5104 19.4202 22.5054 19.2545 22.4686 19.0945C22.4317 18.9344 22.3638 18.7832 22.2685 18.6495C22.1732 18.5157 22.0525 18.4021 21.9133 18.315L17.5 15.5566V7.91663Z" fill="#02243D"/>
	<path fill-rule="evenodd" clip-rule="evenodd" d="M16.25 1.66663C12.3823 1.66663 8.67293 3.20308 5.93803 5.93799C3.20312 8.67289 1.66667 12.3822 1.66667 16.25C1.66667 20.1177 3.20312 23.827 5.93803 26.5619C8.67293 29.2968 12.3823 30.8333 16.25 30.8333C20.1177 30.8333 23.8271 29.2968 26.562 26.5619C29.2969 23.827 30.8333 20.1177 30.8333 16.25C30.8333 12.3822 29.2969 8.67289 26.562 5.93799C23.8271 3.20308 20.1177 1.66663 16.25 1.66663ZM4.16667 16.25C4.16667 14.6632 4.47921 13.0919 5.08646 11.6259C5.6937 10.1599 6.58375 8.82779 7.70579 7.70575C8.82784 6.58371 10.1599 5.69366 11.6259 5.08641C13.0919 4.47917 14.6632 4.16663 16.25 4.16663C17.8368 4.16663 19.4081 4.47917 20.8741 5.08641C22.3401 5.69366 23.6722 6.58371 24.7942 7.70575C25.9162 8.82779 26.8063 10.1599 27.4135 11.6259C28.0208 13.0919 28.3333 14.6632 28.3333 16.25C28.3333 19.4547 27.0603 22.5281 24.7942 24.7942C22.5281 27.0602 19.4547 28.3333 16.25 28.3333C13.0453 28.3333 9.97186 27.0602 7.70579 24.7942C5.43973 22.5281 4.16667 19.4547 4.16667 16.25Z" fill="#02243D"/>
	<path d="M29.4471 33.3351H37.2229M29.4471 33.3351L32.7796 36.6676M29.4471 33.3351L32.7796 30.0026" stroke="#02243D" stroke-width="2" stroke-linecap="round" stroke-linejoin="round"/>
</svg>