<svg width="40" height="40" viewBox="0 0 40 40" fill="none" xmlns="http://www.w3.org/2000/svg">
<path d="M28.75 3.75H11.25C9.92392 3.75 8.65215 4.27678 7.71447 5.21447C6.77678 6.15215 6.25 7.42392 6.25 8.75V28.75C6.25 30.0761 6.77678 31.3479 7.71447 32.2855C8.65215 33.2232 9.92392 33.75 11.25 33.75H12.5L10.25 36.75C10.1515 36.8813 10.0798 37.0308 10.0391 37.1898C9.99837 37.3488 9.98935 37.5143 10.0126 37.6768C10.0358 37.8393 10.0908 37.9956 10.1744 38.1369C10.258 38.2781 10.3687 38.4015 10.5 38.5C10.6313 38.5985 10.7808 38.6702 10.9398 38.7109C11.0988 38.7516 11.2643 38.7607 11.4268 38.7374C11.5893 38.7142 11.7456 38.6592 11.8869 38.5756C12.0281 38.492 12.1515 38.3813 12.25 38.25L15.625 33.75H24.375L27.75 38.25C27.9489 38.5152 28.245 38.6906 28.5732 38.7374C28.9014 38.7843 29.2348 38.6989 29.5 38.5C29.7652 38.3011 29.9406 38.005 29.9874 37.6768C30.0343 37.3486 29.9489 37.0152 29.75 36.75L27.5 33.75H28.75C30.0761 33.75 31.3479 33.2232 32.2855 32.2855C33.2232 31.3479 33.75 30.0761 33.75 28.75V8.75C33.75 7.42392 33.2232 6.15215 32.2855 5.21447C31.3479 4.27678 30.0761 3.75 28.75 3.75ZM11.25 6.25H28.75C29.413 6.25 30.0489 6.51339 30.5178 6.98223C30.9866 7.45107 31.25 8.08696 31.25 8.75V18.75H8.75V8.75C8.75 8.08696 9.01339 7.45107 9.48223 6.98223C9.95107 6.51339 10.587 6.25 11.25 6.25ZM28.75 31.25H11.25C10.587 31.25 9.95107 30.9866 9.48223 30.5178C9.01339 30.0489 8.75 29.413 8.75 28.75V21.25H31.25V28.75C31.25 29.413 30.9866 30.0489 30.5178 30.5178C30.0489 30.9866 29.413 31.25 28.75 31.25ZM15 26.875C15 27.2458 14.89 27.6084 14.684 27.9167C14.478 28.225 14.1851 28.4654 13.8425 28.6073C13.4999 28.7492 13.1229 28.7863 12.7592 28.714C12.3955 28.6416 12.0614 28.463 11.7992 28.2008C11.537 27.9386 11.3584 27.6045 11.286 27.2408C11.2137 26.8771 11.2508 26.5001 11.3927 26.1575C11.5346 25.8149 11.775 25.522 12.0833 25.316C12.3916 25.11 12.7542 25 13.125 25C13.6223 25 14.0992 25.1975 14.4508 25.5492C14.8025 25.9008 15 26.3777 15 26.875ZM28.75 26.875C28.75 27.2458 28.64 27.6084 28.434 27.9167C28.228 28.225 27.9351 28.4654 27.5925 28.6073C27.2499 28.7492 26.8729 28.7863 26.5092 28.714C26.1455 28.6416 25.8114 28.463 25.5492 28.2008C25.287 27.9386 25.1084 27.6045 25.036 27.2408C24.9637 26.8771 25.0008 26.5001 25.1427 26.1575C25.2846 25.8149 25.525 25.522 25.8333 25.316C26.1416 25.11 26.5042 25 26.875 25C27.3723 25 27.8492 25.1975 28.2008 25.5492C28.5525 25.9008 28.75 26.3777 28.75 26.875Z" fill="#02243D"/>
</svg>
