<svg width="40" height="40" viewBox="0 0 40 40" fill="none" xmlns="http://www.w3.org/2000/svg">
<g clip-path="url(#clip0_167_697)">
<path d="M33.3333 13.3333H28.8888V7.77774C28.8888 7.48305 28.7718 7.20044 28.5634 6.99206C28.355 6.78369 28.0724 6.66663 27.7777 6.66663H3.33328C3.03859 6.66663 2.75598 6.78369 2.5476 6.99206C2.33923 7.20044 2.22217 7.48305 2.22217 7.77774V27.7777C2.22217 28.0724 2.33923 28.355 2.5476 28.5634C2.75598 28.7718 3.03859 28.8888 3.33328 28.8888H4.44439V8.88885H26.6666V21.8888C27.2332 21.7443 27.8153 21.6697 28.3999 21.6666H28.8888V15.5555H33.3333C33.9227 15.5555 34.4879 15.7896 34.9046 16.2064C35.3214 16.6231 35.5555 17.1884 35.5555 17.7777V18.8888H31.1111V21.1111H35.5555V26.6666H32.8888C32.499 25.7611 31.8524 24.9897 31.029 24.4477C30.2055 23.9057 29.2413 23.6168 28.2555 23.6168C27.2697 23.6168 26.3055 23.9057 25.482 24.4477C24.6586 24.9897 24.012 25.7611 23.6222 26.6666H16.0333C15.6509 25.7545 15.0065 24.9763 14.1818 24.4305C13.3571 23.8846 12.389 23.5956 11.3999 23.6C10.4603 23.6207 9.54667 23.9131 8.76957 24.4418C7.99247 24.9706 7.38512 25.7131 7.02088 26.5795C6.65665 27.446 6.55113 28.3994 6.71706 29.3246C6.88299 30.2498 7.31328 31.1071 7.95594 31.793C8.5986 32.4788 9.42613 32.964 10.3385 33.1897C11.251 33.4154 12.2092 33.3721 13.0976 33.065C13.9859 32.7578 14.7663 32.2 15.3444 31.4589C15.9226 30.7179 16.2737 29.8252 16.3555 28.8888H23.3333C23.4745 30.1041 24.0573 31.2251 24.971 32.0388C25.8846 32.8524 27.0654 33.302 28.2888 33.302C29.5123 33.302 30.6931 32.8524 31.6067 32.0388C32.5204 31.2251 33.1032 30.1041 33.2444 28.8888H36.6666C36.9613 28.8888 37.2439 28.7718 37.4523 28.5634C37.6607 28.355 37.7777 28.0724 37.7777 27.7777V17.7777C37.7777 16.599 37.3095 15.4685 36.476 14.635C35.6425 13.8015 34.512 13.3333 33.3333 13.3333ZM11.3999 31.1111C11.039 31.1345 10.6771 31.0836 10.3366 30.9616C9.99608 30.8396 9.68422 30.649 9.4203 30.4017C9.15638 30.1544 8.94601 29.8555 8.8022 29.5236C8.65838 29.1917 8.58418 28.8339 8.58418 28.4722C8.58418 28.1105 8.65838 27.7526 8.8022 27.4207C8.94601 27.0888 9.15638 26.79 9.4203 26.5427C9.68422 26.2953 9.99608 26.1047 10.3366 25.9827C10.6771 25.8607 11.039 25.8099 11.3999 25.8333C11.7609 25.8099 12.1228 25.8607 12.4633 25.9827C12.8038 26.1047 13.1157 26.2953 13.3796 26.5427C13.6435 26.79 13.8539 27.0888 13.9977 27.4207C14.1415 27.7526 14.2157 28.1105 14.2157 28.4722C14.2157 28.8339 14.1415 29.1917 13.9977 29.5236C13.8539 29.8555 13.6435 30.1544 13.3796 30.4017C13.1157 30.649 12.8038 30.8396 12.4633 30.9616C12.1228 31.0836 11.7609 31.1345 11.3999 31.1111ZM28.2555 31.1111C27.7385 31.085 27.2405 30.9077 26.8233 30.6012C26.4061 30.2948 26.088 29.8726 25.9085 29.387C25.729 28.9015 25.6959 28.3739 25.8134 27.8698C25.9309 27.3656 26.1938 26.907 26.5695 26.5509C26.9452 26.1947 27.4172 25.9566 27.9269 25.8662C28.4366 25.7758 28.9616 25.8369 29.4369 26.0421C29.9122 26.2473 30.3168 26.5874 30.6006 27.0204C30.8843 27.4533 31.0348 27.9601 31.0333 28.4777C31.0129 29.1949 30.7091 29.8747 30.1885 30.3683C29.6678 30.8619 28.9727 31.129 28.2555 31.1111Z" fill="#02243D"/>
</g>
<defs>
<clipPath id="clip0_167_697">
<rect width="40" height="40" fill="white"/>
</clipPath>
</defs>
</svg>
