<svg width="40" height="40" viewBox="0 0 40 40" fill="none" xmlns="http://www.w3.org/2000/svg">
<path d="M17.93 25.3201C18.4467 25.8378 19.11 26.0734 19.92 26.0267C20.73 25.9812 21.3211 25.6901 21.6933 25.1534L30.4483 12.9484L18.18 21.6417C17.6222 22.0128 17.3117 22.5895 17.2483 23.3717C17.185 24.1539 17.4122 24.8023 17.93 25.3201ZM20 8.33338C21.5322 8.33338 22.9267 8.52005 24.1833 8.89338C25.4411 9.26561 26.6944 9.83505 27.9433 10.6017L26.41 11.6401C25.4289 11.1045 24.4133 10.6973 23.3633 10.4184C22.3133 10.1395 21.1922 10 20 10C16.3056 10 13.1594 11.2989 10.5617 13.8967C7.96389 16.4945 6.66556 19.64 6.66667 23.3334C6.66667 24.5 6.82667 25.6528 7.14667 26.7917C7.46667 27.9306 7.91778 29 8.5 30H31.5C32.1389 28.9445 32.6044 27.8473 32.8967 26.7084C33.1889 25.5695 33.3344 24.3889 33.3333 23.1667C33.3333 22.1667 33.2044 21.1145 32.9467 20.01C32.6889 18.9056 32.2811 17.8767 31.7233 16.9234L32.7633 15.3901C33.5744 16.7812 34.1483 18.0901 34.485 19.3167C34.8217 20.5434 34.9933 21.82 35 23.1467C35.0067 24.58 34.8472 25.9178 34.5217 27.16C34.1972 28.4023 33.6917 29.6545 33.005 30.9167C32.8717 31.1389 32.6689 31.3195 32.3967 31.4584C32.1244 31.5973 31.8256 31.6667 31.5 31.6667H8.5C8.19444 31.6667 7.91111 31.5923 7.65 31.4434C7.39 31.2934 7.17111 31.075 6.99333 30.7884C6.44222 29.8162 5.97222 28.7195 5.58333 27.4984C5.19444 26.2773 5 24.8889 5 23.3334C5 21.2845 5.38889 19.3506 6.16667 17.5317C6.94333 15.7128 8.00389 14.12 9.34833 12.7534C10.6928 11.3867 12.2828 10.3078 14.1183 9.51672C15.9539 8.72561 17.9144 8.33116 20 8.33338Z" fill="#02243D"/>
</svg>
