<?xml version="1.0" encoding="UTF-8" standalone="no" ?>
<!DOCTYPE svg PUBLIC "-//W3C//DTD SVG 1.1//EN" "http://www.w3.org/Graphics/SVG/1.1/DTD/svg11.dtd">
<svg xmlns="http://www.w3.org/2000/svg" xmlns:xlink="http://www.w3.org/1999/xlink" version="1.1" width="1080" height="1080" viewBox="0 0 1080 1080" xml:space="preserve">
<desc>Created with Fabric.js 5.2.4</desc>
<defs>
</defs>
<g transform="matrix(1 0 0 1 540 540)" id="d789f1d5-b6ea-4cf2-a724-7fe2e6f975f9"  >
<rect style="stroke: none; stroke-width: 1; stroke-dasharray: none; stroke-linecap: butt; stroke-dashoffset: 0; stroke-linejoin: miter; stroke-miterlimit: 4; fill: rgb(255,255,255); fill-rule: nonzero; opacity: 1; visibility: hidden;" vector-effect="non-scaling-stroke"  x="-540" y="-540" rx="0" ry="0" width="1080" height="1080" />
</g>
<g transform="matrix(1 0 0 1 540 540)" id="0e50fb99-7efc-4e76-8888-27a5ba55cab7"  >
</g>
<g transform="matrix(1.42 0 0 1.42 540 540)"  >
<g style="" vector-effect="non-scaling-stroke"   >
		<g transform="matrix(1 0 0 1 -490 -490)"  >
<rect style="stroke: none; stroke-width: 1; stroke-dasharray: none; stroke-linecap: butt; stroke-dashoffset: 0; stroke-linejoin: miter; stroke-miterlimit: 4; fill: rgb(255,255,255); fill-opacity: 0; fill-rule: nonzero; opacity: 1;" vector-effect="non-scaling-stroke"  x="-50" y="-50" rx="0" ry="0" width="100" height="100" />
</g>
		<g transform="matrix(1 0 0 1 0 0)"  >
<rect style="stroke: none; stroke-width: 1; stroke-dasharray: none; stroke-linecap: butt; stroke-dashoffset: 0; stroke-linejoin: miter; stroke-miterlimit: 4; fill: rgb(255,255,255); fill-rule: nonzero; opacity: 1; visibility: hidden;" vector-effect="non-scaling-stroke"  x="-540" y="-540" rx="0" ry="0" width="1080" height="1080" />
</g>
		<g transform="matrix(1.28 0 0 1.28 0 0)"  >
<path style="stroke: rgb(0,0,0); stroke-width: 0; stroke-dasharray: none; stroke-linecap: butt; stroke-dashoffset: 0; stroke-linejoin: miter; stroke-miterlimit: 4; fill: rgb(30,170,11); fill-rule: nonzero; opacity: 1;" vector-effect="non-scaling-stroke"  transform=" translate(-256, -256)" d="M 464 256 C 464 141.12477203519498 370.87522796480505 48 256 48 C 141.12477203519495 48 48 141.12477203519495 48 255.99999999999997 C 48 370.87522796480505 141.12477203519498 464 256 464 C 370.87522796480505 464 464 370.87522796480505 464 256 z M 0 256 C 0 114.6151040433169 114.6151040433169 0 256 0 C 397.38489595668307 0 511.99999999999994 114.61510404331685 512 255.99999999999994 C 512 397.38489595668307 397.38489595668307 512 256 512 C 114.61510404331693 512 0 397.38489595668307 0 256 z M 188.3 147.1 C 195.9 142.9 205.10000000000002 143 212.60000000000002 147.6 L 356.6 235.6 C 363.70000000000005 240 368.1 247.7 368.1 256.1 C 368.1 264.50000000000006 363.70000000000005 272.20000000000005 356.6 276.6 L 212.60000000000002 364.6 C 205.20000000000002 369.1 195.90000000000003 369.3 188.3 365.1 C 180.7 360.90000000000003 176 352.90000000000003 176 344.20000000000005 L 176 168 C 176 159.3 180.7 151.3 188.3 147.1 z" stroke-linecap="round" />
</g>
</g>
</g>
</svg>