<?xml version="1.0" encoding="UTF-8" standalone="no" ?>
<!DOCTYPE svg PUBLIC "-//W3C//DTD SVG 1.1//EN" "http://www.w3.org/Graphics/SVG/1.1/DTD/svg11.dtd">
<svg xmlns="http://www.w3.org/2000/svg" xmlns:xlink="http://www.w3.org/1999/xlink" version="1.1" width="1080" height="1080" viewBox="0 0 1080 1080" xml:space="preserve">
<desc>Created with Fabric.js 5.2.4</desc>
<defs>
</defs>
<g transform="matrix(1 0 0 1 540 540)" id="4eed052f-672c-4b83-9028-50931ac45366"  >
<rect style="stroke: none; stroke-width: 1; stroke-dasharray: none; stroke-linecap: butt; stroke-dashoffset: 0; stroke-linejoin: miter; stroke-miterlimit: 4; fill: rgb(255,255,255); fill-rule: nonzero; opacity: 1; visibility: hidden;" vector-effect="non-scaling-stroke"  x="-540" y="-540" rx="0" ry="0" width="1080" height="1080" />
</g>
<g transform="matrix(1 0 0 1 540 540)" id="13638c5b-3e92-4d95-af75-40cdd0849972"  >
</g>
<g transform="matrix(1 0 0 1 540 540)" id="3509605c-f0f8-49d3-98b6-f714100bb7c0"  >
<path style="stroke: rgb(0,0,0); stroke-width: 0; stroke-dasharray: none; stroke-linecap: butt; stroke-dashoffset: 0; stroke-linejoin: miter; stroke-miterlimit: 4; fill: rgb(0,0,0); fill-rule: nonzero; opacity: 1;" vector-effect="non-scaling-stroke"  transform=" translate(-320, -256)" d="M 32 32 C 49.7 32 64 46.3 64 64 L 64 320 L 288 320 L 288 160 C 288 142.3 302.3 128 320 128 L 544 128 C 597 128 640 171 640 224 L 640 448 C 640 465.7 625.7 480 608 480 C 590.3 480 576 465.7 576 448 L 576 416 L 352 416 L 320 416 L 64 416 L 64 448 C 64 465.7 49.7 480 32 480 C 14.299999999999997 480 0 465.7 0 448 L 0 64 C 0 46.3 14.3 32 32 32 z M 176 128 C 220.18277998646346 128 256 163.8172200135365 256 208 C 256 252.18277998646346 220.1827799864635 288 176.00000000000003 288 C 131.81722001353654 288 96 252.18277998646346 96 208 C 96 163.81722001353654 131.81722001353654 128 176 128 z" stroke-linecap="round" />
</g>
<g transform="matrix(0.57 0 0 0.57 749.3 257.84)" id="4e41db48-ad82-48da-a2b9-8e7f5a122dbf"  >
<path style="stroke: rgb(0,0,0); stroke-width: 0; stroke-dasharray: none; stroke-linecap: butt; stroke-dashoffset: 0; stroke-linejoin: miter; stroke-miterlimit: 4; fill: rgb(0,0,0); fill-rule: nonzero; opacity: 1;" vector-effect="non-scaling-stroke"  transform=" translate(-192.07, -256)" d="M 223.5 32 C 100 32 0 132.3 0 256 C 0 379.7 100 480 223.5 480 C 284.1 480 339 455.8 379.3 416.6 C 384.3 411.70000000000005 385.6 404.1 382.40000000000003 397.90000000000003 C 379.20000000000005 391.70000000000005 372.3 388.20000000000005 365.40000000000003 389.40000000000003 C 355.6 391.1 345.6 392.00000000000006 335.3 392.00000000000006 C 238.4 392.00000000000006 159.8 313.20000000000005 159.8 216.00000000000006 C 159.8 150.20000000000005 195.8 92.90000000000006 249.10000000000002 62.700000000000045 C 255.20000000000002 59.200000000000045 258.3 52.200000000000045 256.8 45.40000000000005 C 255.3 38.60000000000005 249.5 33.50000000000005 242.5 32.90000000000005 C 236.2 32.40000000000005 229.9 32.10000000000005 223.5 32.10000000000005 z" stroke-linecap="round" />
</g>
</svg>