<?xml version="1.0" encoding="utf-8"?>
<!-- Generator: Adobe Illustrator 25.4.1, SVG Export Plug-In . SVG Version: 6.00 Build 0)  -->
<svg version="1.1" id="Camada_1" xmlns="http://www.w3.org/2000/svg" xmlns:xlink="http://www.w3.org/1999/xlink" x="0px" y="0px"
	 viewBox="0 0 196.92 173.41" style="enable-background:new 0 0 196.92 173.41;" xml:space="preserve">
<style type="text/css">
	.st0{fill-rule:evenodd;clip-rule:evenodd;fill:#475999;}
</style>
<path class="st0" d="M105.58,134.93l59.43,24.67c6.5,2.7,12.81-4.21,9.53-10.44L105.58,17.99c-2.82-5.36-10.49-5.36-13.31,0
	L23.31,149.16c-3.27,6.23,3.04,13.14,9.53,10.44L92,135.04C96.59,133.33,101.12,133.24,105.58,134.93z M146.05,140.12l-43.54-18.07
	c-2.17-0.9-3.59-3.02-3.59-5.37V51.94c0-6.07,8.14-8.08,10.96-2.71l43.54,82.81C155.96,136.86,151.08,142.2,146.05,140.12z"/>
</svg>
