<?xml version="1.0" encoding="utf-8"?>
<!-- Generator: Adobe Illustrator 25.4.1, SVG Export Plug-In . SVG Version: 6.00 Build 0)  -->
<svg version="1.1" id="Camada_1" xmlns="http://www.w3.org/2000/svg" xmlns:xlink="http://www.w3.org/1999/xlink" x="0px" y="0px"
	 viewBox="0 0 484.49 595.28" style="enable-background:new 0 0 484.49 595.28;" xml:space="preserve">
<style type="text/css">
	.st0{fill:#475999;}
</style>
<path id="gps_3" class="st0" d="M451.17,227.88c0,151.93-176.75,330.41-184.28,337.95c-6.79,6.79-15.66,10.19-24.59,10.19
	c-8.93,0-17.81-3.4-24.6-10.19c-7.57-7.54-184.28-186.03-184.28-337.95c0-115.19,93.68-208.9,208.88-208.9
	S451.17,112.68,451.17,227.88z M242.3,332.32c57.7,0,104.43-46.77,104.43-104.44c0-57.7-46.73-104.46-104.43-104.46
	s-104.43,46.76-104.43,104.46C137.87,285.55,184.6,332.32,242.3,332.32z"/>
</svg>
