<?xml version="1.0" encoding="utf-8"?>
<!-- Generator: Adobe Illustrator 25.4.1, SVG Export Plug-In . SVG Version: 6.00 Build 0)  -->
<svg version="1.1" id="Camada_1" xmlns="http://www.w3.org/2000/svg" xmlns:xlink="http://www.w3.org/1999/xlink" x="0px" y="0px"
	 viewBox="0 0 610.83 595.28" style="enable-background:new 0 0 610.83 595.28;" xml:space="preserve">
<style type="text/css">
	.st0{fill:#475999;}
</style>
<path id="directory" class="st0" d="M483.45,22.4h-300.9c-49.87,0-90.26,40.44-90.26,90.31v12.84h-34.4
	c-19.03,0-34.4,15.42-34.4,34.4c0,18.98,15.37,34.4,34.4,34.4h34.4v68.75h-34.4c-19.03,0-34.4,15.42-34.4,34.4
	c0,19.03,15.37,34.4,34.4,34.4h34.4v68.75h-34.4c-19.03,0-34.4,15.42-34.4,34.4c0,18.98,15.37,34.4,34.4,34.4h34.4v12.89
	c0,49.83,40.39,90.26,90.26,90.26h300.9c49.82,0,90.26-40.44,90.26-90.26V112.71C573.7,62.84,533.27,22.4,483.45,22.4z
	 M315.77,456.58H212.66c-9.54,0-17.28-7.68-17.28-17.23c0-9.49,7.73-17.18,17.28-17.18h103.11c9.54,0,17.22,7.68,17.22,17.18
	C332.99,448.9,325.31,456.58,315.77,456.58z M453.33,314.74H212.66c-9.54,0-17.28-7.74-17.28-17.23c0-9.49,7.73-17.18,17.28-17.18
	h240.66c9.54,0,17.22,7.69,17.22,17.18C470.55,307,462.86,314.74,453.33,314.74z M453.33,172.85H212.66
	c-9.54,0-17.28-7.68-17.28-17.18s7.73-17.23,17.28-17.23h240.66c9.54,0,17.22,7.74,17.22,17.23S462.86,172.85,453.33,172.85z"/>
</svg>
