<?xml version="1.0" encoding="utf-8"?>
<!-- Generator: Adobe Illustrator 25.4.1, SVG Export Plug-In . SVG Version: 6.00 Build 0)  -->
<svg version="1.1" id="Camada_1" xmlns="http://www.w3.org/2000/svg" xmlns:xlink="http://www.w3.org/1999/xlink" x="0px" y="0px"
	 viewBox="0 0 239.87 236.5" style="enable-background:new 0 0 239.87 236.5;" xml:space="preserve">
<style type="text/css">
	.st0{fill:#475999;}
</style>
<g id="finish_1_">
	<g>
		<rect x="75.85" y="70.55" class="st0" width="22.47" height="24.06"/>
		<rect x="154.54" y="106.66" class="st0" width="22.47" height="24.1"/>
		<path class="st0" d="M196.69,70.55h-61.82c-0.97,0-1.91,0.09-2.82,0.29V49.46c0-8.27-6.32-15.07-14.05-15.07H56.17
			c-7.73,0-14.06,6.79-14.06,15.07v66.23c0,8.29,6.32,15.07,14.06,15.07h61.82c0.96,0,1.9-0.11,2.82-0.31v21.39
			c0,8.28,6.32,15.05,14.06,15.05h61.82c7.73,0,14.05-6.77,14.05-15.05V85.59C210.75,77.3,204.43,70.55,196.69,70.55z M98.32,94.61
			v24.1H75.85v-24.1H53.35V70.55h22.49v-24.1h22.47v24.1h22.49v15.05v9.02H98.32z M199.51,130.76h-22.49v24.1h-22.47v-24.1h-22.49
			v-15.07v-9.03h22.49V82.6h22.47v24.06h22.49V130.76z"/>
	</g>
	<path class="st0" d="M54.15,203.03c0,6.67-5.38,12.05-12.03,12.05l0,0c-6.65,0-12.05-5.38-12.05-12.05V34.4
		c0-6.65,5.4-12.05,12.05-12.05l0,0c6.65,0,12.03,5.4,12.03,12.05V203.03z"/>
</g>
</svg>
