<?xml version="1.0" encoding="utf-8"?>
<!-- Generator: Adobe Illustrator 25.4.1, SVG Export Plug-In . SVG Version: 6.00 Build 0)  -->
<svg version="1.1" id="Camada_1" xmlns="http://www.w3.org/2000/svg" xmlns:xlink="http://www.w3.org/1999/xlink" x="0px" y="0px"
	 viewBox="0 0 612.1 595.28" style="enable-background:new 0 0 612.1 595.28;" xml:space="preserve">
<style type="text/css">
	.st0{fill:#475999;}
</style>
<path id="time" class="st0" d="M576.84,297.5c0,149.53-121.2,270.74-270.74,270.74c-149.53,0-270.74-121.21-270.74-270.74
	c0-149.53,121.21-270.74,270.74-270.74C455.64,26.76,576.84,147.97,576.84,297.5z M441.47,263.64l-116.64,0.43L243.73,136.6
	c-10.56-16.52-34.26-20.56-49.59-8.33c-13.4,10.63-16.59,30.46-7.41,44.84l90.71,142.6c6.09,9.54,16.54,15.41,27.81,15.63
	l136.23-0.02c18.68,0,33.86-15.15,33.86-33.83S460.15,263.64,441.47,263.64z"/>
</svg>
