<?xml version="1.0" encoding="utf-8"?>
<!-- Generator: Adobe Illustrator 25.4.1, SVG Export Plug-In . SVG Version: 6.00 Build 0)  -->
<svg version="1.1" id="Camada_1" xmlns="http://www.w3.org/2000/svg" xmlns:xlink="http://www.w3.org/1999/xlink" x="0px" y="0px"
	 viewBox="0 0 125.77 126.43" style="enable-background:new 0 0 125.77 126.43;" xml:space="preserve">
<style type="text/css">
	.st0{fill:#FFCD35;}
</style>
<g id="caution_1_">
	<path class="st0" d="M90.98,19.21C75.53,9.33,55.61,9.19,39.43,17.22c-16.14,8.02-26.27,24.54-28.08,42.15
		c-1.88,18.2,7.04,35.55,21.22,46.46c15.64,12.06,37.53,12.9,54.89,4.28c17.37-8.63,28.05-27.3,28.27-46.44
		C115.51,45.49,106.26,29.01,90.98,19.21z M63.42,100.7c-5.13,0-9.28-4.16-9.28-9.27c0-5.12,4.14-9.28,9.28-9.28
		c5.1,0,9.27,4.15,9.27,9.28C72.69,96.54,68.52,100.7,63.42,100.7z M73.68,62.61c0,5.68-4.59,10.28-10.26,10.28
		c-5.69,0-10.28-4.6-10.28-10.28V36.89c0-5.68,4.59-10.28,10.28-10.28c5.67,0,10.26,4.6,10.26,10.28V62.61z"/>
</g>
</svg>
