<?xml version="1.0" encoding="utf-8"?>
<!-- Generator: Adobe Illustrator 25.4.1, SVG Export Plug-In . SVG Version: 6.00 Build 0)  -->
<svg version="1.1" id="Camada_1" xmlns="http://www.w3.org/2000/svg" xmlns:xlink="http://www.w3.org/1999/xlink" x="0px" y="0px"
	 viewBox="0 0 555.37 444.97" style="enable-background:new 0 0 555.37 444.97;" xml:space="preserve">
<style type="text/css">
	.st0{fill-rule:evenodd;clip-rule:evenodd;fill:#475999;}
</style>
<path class="st0" d="M460.86,365.75c0,29.5-23.91,53.41-53.41,53.41s-53.41-23.91-53.41-53.41c0-29.5,23.91-53.41,53.41-53.41
	S460.86,336.25,460.86,365.75z M407.46,339.04c-14.75,0-26.7,11.96-26.7,26.7s11.96,26.7,26.7,26.7s26.7-11.96,26.7-26.7
	S422.2,339.04,407.46,339.04z"/>
<path class="st0" d="M225.77,365.75c0,29.5-23.91,53.41-53.41,53.41s-53.41-23.91-53.41-53.41c0-29.5,23.91-53.41,53.41-53.41
	S225.77,336.25,225.77,365.75z M172.36,339.04c-14.75,0-26.7,11.96-26.7,26.7s11.96,26.7,26.7,26.7s26.7-11.96,26.7-26.7
	S187.11,339.04,172.36,339.04z"/>
<g>
	<path class="st0" d="M91.86,360.69c-18.65,0.11-22.73,0.11-22.73-35.3c0-16.12,12.89-11.64,24.26-12.94
		c9.6,0,15.97,10.15,11.58,18.7c-3.9,7.59-6.5,15.9-7.63,24.44C96.58,360.69,91.86,360.69,91.86,360.69z"/>
	<path class="st0" d="M487.46,360.79c-2.87,0-3.32,0.8-5.98-10.9c-7.75-34.12-37.61-59.93-74-59.93
		c-78.99,4.48-66.89,70.73-91.53,70.73c0,0-56.21,0-56.21,0c-15.26-0.08-16.81-18.05-19.52-28.46c-2.56-9.84,2.35-19.78,12.51-19.78
		h46.32c7.59,0,13.74-6.15,13.74-13.74V98.2c0-7.59,6.15-13.74,13.74-13.74h84.79c5.81,0,10.99,3.65,12.95,9.13l42.2,118.35
		c5.88,16.74,35.16,8.1,35.35,29.21c0,0,0,100.64,0,100.64C502.5,351.4,497.8,360.79,487.46,360.79z M335.09,119.27
		c0,115.95-3.91,99.11,90.52,99.11c9.5,0,16.14-9.41,12.95-18.36l-30-84.15c-1.95-5.47-7.14-9.13-12.95-9.13h-47.26
		C338.1,106.66,335.09,111.9,335.09,119.27z"/>
	<path class="st0" d="M69.13,55.74V276.1c0,7.76,6.29,14.05,14.05,14.05h193.27c7.76,0,14.05-6.29,14.05-14.05V55.74
		c0-7.76-6.29-14.05-14.05-14.05l-193.27,0C73.32,41.69,69.13,47.51,69.13,55.74z"/>
</g>
</svg>
