<?xml version="1.0" encoding="utf-8"?>
<!-- Generator: Adobe Illustrator 25.4.1, SVG Export Plug-In . SVG Version: 6.00 Build 0)  -->
<svg version="1.1" id="Camada_1" xmlns="http://www.w3.org/2000/svg" xmlns:xlink="http://www.w3.org/1999/xlink" x="0px" y="0px"
	 viewBox="0 0 560.55 266.31" style="enable-background:new 0 0 560.55 266.31;" xml:space="preserve">
<style type="text/css">
	.st0{fill:#9DD9F6;}
	.st1{fill:#2CA8DF;}
	.st2{fill:#1C75BA;}
	.st3{fill:#FFFFFF;}
</style>
<g>
	<path class="st0" d="M340.2,101.16l-5.53-0.36c0.66-10.13,5.36-19.2,13.94-26.96c7.86-7.09,17.13-10.77,27.58-10.94
		c10.11-0.16,22.28,5.47,36.49,11.99c30.62,14.03,72.55,33.25,120.78,6.62c4.39-2.42,7.68-6.77,11.16-11.37l1.25-1.64l4.4,3.37
		l-1.23,1.62c-3.68,4.86-7.48,9.88-12.9,12.87c-50.68,27.99-94.08,8.09-125.77-6.43c-13.6-6.24-25.37-11.73-34.1-11.48
		c-9.07,0.14-17.13,3.34-23.96,9.51C344.85,84.71,340.77,92.52,340.2,101.16"/>
	<path class="st1" d="M433.24,153.64c-23.57,0-47.76-7.58-68.12-21.33c-20.52-13.86-43.61-39.99-45.82-64.61
		c-1.12-12.49,3.06-23.46,12.43-32.61c15.88-15.5,38.41-14.04,64.91,4.37c6.85,4.76,12.57,8.68,18.68,12.29
		c12.29,7.26,26.02,11.1,39.7,11.1c10.66,0,20.86-2.27,30.32-6.73c7.62-3.6,14.57-8.62,20.65-14.92c2.31-2.39,4.33-5.01,6.46-7.79
		c2.61-3.39,5.31-6.9,8.59-9.95c3.16-2.94,9.54-7.86,16.71-7.86c2.64,0,5.12,0.68,7.37,2.01c7.01,4.16,11.45,9.18,13.56,15.34
		c4.86,14.18-3.62,31.75-11.59,44.01c-18.07,27.79-43.92,61.14-83.71,72.51C453.67,152.23,443.52,153.64,433.24,153.64
		 M357.44,29.95c-8.31,0-15.66,3.06-21.85,9.11c-8.12,7.93-11.74,17.4-10.78,28.15c2.19,24.36,27.16,49.54,43.41,60.51
		c19.46,13.14,42.55,20.38,65.02,20.38c9.77,0,19.4-1.34,28.63-3.97c38.02-10.86,63.04-43.22,80.58-70.2
		c7.3-11.22,15.13-27.12,10.99-39.19c-1.67-4.86-5.31-8.91-11.15-12.37c-1.4-0.83-2.89-1.23-4.54-1.23c-3.85,0-8.57,2.33-12.94,6.38
		c-2.95,2.73-5.38,5.91-7.97,9.27c-2.13,2.78-4.34,5.65-6.87,8.27c-6.55,6.78-14.04,12.18-22.27,16.07
		c-10.2,4.82-21.2,7.27-32.69,7.27c-14.67,0-29.37-4.11-42.52-11.87c-6.28-3.71-12.09-7.69-19.03-12.51
		C380.04,34.68,367.91,29.95,357.44,29.95"/>
	<path class="st2" d="M438.41,172.63L438.41,172.63c-17.59,0-33.67-6.21-47.79-18.46c-31.42-27.26-73.44-100.51-41.71-143.32
		C354.24,3.65,360.85,0,368.53,0c11.2,0,24.49,7.93,39.47,23.58c11.61,12.11,34.95,32.44,60.87,32.44h0.01
		c15.13,0,29-7.14,41.21-21.23c0.2-0.23,0.48-0.58,0.84-1.03c2.4-2.98,8.02-9.95,14.94-14.29c0.46-0.29,0.93-0.57,1.4-0.83
		c6.13-3.43,12.58-3.85,17.73-1.09c8.47,4.53,13.54,11.75,15.05,21.47c4.51,28.91-23.69,71.24-34.94,85.11
		C500.5,154.5,468.07,172.63,438.41,172.63 M368.53,5.54c-5.92,0-10.88,2.82-15.18,8.61c-29.72,40.1,10.82,109.75,40.89,135.84
		c13.08,11.35,27.94,17.11,44.15,17.11h0.01c28.02,0,58.82-17.37,82.42-46.45c15.04-18.54,37.5-56.86,33.77-80.77
		c-1.25-8.02-5.24-13.72-12.19-17.44c-3.5-1.87-7.95-1.46-12.42,1.04c-0.39,0.22-0.78,0.45-1.16,0.68
		c-6.14,3.84-11.35,10.31-13.57,13.07c-0.42,0.52-0.74,0.92-0.97,1.18c-13.31,15.35-28.59,23.14-45.4,23.14h-0.01
		c-27.98,0-52.66-21.39-64.87-34.15C390.1,12.9,378.17,5.54,368.53,5.54"/>
	<path class="st1" d="M324.76,61.89c0.48-8.57,4.08-16.24,10.83-22.83c6.19-6.05,13.54-9.11,21.85-9.11
		c5.91,0,12.36,1.56,19.26,4.55c0.52-1.77,1.2-3.49,2.01-5.14c-18.76-8.02-34.84-6.13-46.99,5.74c-7.27,7.1-11.38,15.31-12.34,24.47
		C321.22,60.19,323.02,60.96,324.76,61.89"/>
</g>
<g>
	<polygon class="st3" points="81.13,62.83 53.54,105.71 25.94,62.83 6.7,62.83 6.7,161.41 25.16,161.41 25.16,94.53 52.36,135.27 
		54.18,135.27 81.65,94.26 81.65,161.41 100.37,161.41 100.37,62.83 	"/>
	<path class="st3" d="M160.71,88.91v40.73c0,9.82-5.72,16.17-14.58,16.17c-8.89,0-13.78-5.65-13.78-15.91v-41h-18.46v45.77
		c0,17.35,10.02,28.13,26.14,28.13c8.36,0,15.16-3.25,20.68-9.92v8.47h18.46V88.91H160.71z"/>
	<rect x="192.56" y="62.67" class="st3" width="18.46" height="98.68"/>
	<path class="st3" d="M260.93,105.11v-16.2h-18.83V69.68h-18.46v71.11c0,14.44,7.19,21.76,21.37,21.76c5.77,0,10.55-1.19,15.05-3.74
		l0.61-0.35v-15.78l-1.74,0.87c-3.08,1.54-6.07,2.26-9.41,2.26c-5.13,0-7.42-2.33-7.42-7.55v-33.15H260.93z"/>
	<g>
		<rect x="270.33" y="88.91" class="st3" width="18.46" height="72.44"/>
		<rect x="269.66" y="62.91" class="st3" width="19.65" height="17.66"/>
	</g>
</g>
<g>
	<path class="st3" d="M44,208.49c-17.91-4.28-21.09-7.23-21.09-13.42v-0.26c0-5.87,5.59-9.81,13.92-9.81
		c8.08,0,16.08,3.05,24.48,9.31l0.99,0.74l10.12-14.27l-0.88-0.71c-10.01-8.03-21.27-11.94-34.45-11.94
		c-19.38,0-32.91,11.57-32.91,28.13v0.27c0,17.73,11.67,24.02,31.84,28.89c17.03,3.93,20.02,7.33,20.02,13.02v0.27
		c0,6.36-5.98,10.47-15.24,10.47c-10.46,0-18.99-3.52-28.53-11.78l-0.92-0.8L0,250.1l0.87,0.78c11.11,9.92,24.78,15.16,39.53,15.16
		c20.88,0,34.37-11.36,34.37-28.93v-0.27C74.77,222.02,65.86,213.81,44,208.49z"/>
	<path class="st3" d="M119.21,190.81c-21.65,0-38.61,16.61-38.61,37.81v0.27c0,20.98,16.84,37.42,38.35,37.42
		c21.72,0,38.74-16.55,38.74-37.68v-0.27C157.68,207.31,140.78,190.81,119.21,190.81z M139.22,228.89
		c0,12.22-8.42,21.08-20.02,21.08c-11.3,0-20.15-9.38-20.15-21.35v-0.27c0-12.21,8.36-21.08,19.89-21.08
		c11.56,0,20.28,9.18,20.28,21.34V228.89z"/>
	<path class="st3" d="M193.26,187.83c3.07,0,5.52,0.61,8.25,1.52l1.55,0.52v-14.91l-0.85-0.25c-2.92-0.86-6.66-1.75-12.24-1.75
		c-6.62,0-11.63,1.78-15.29,5.45c-3.7,3.7-5.57,9.33-5.57,16.75v3.43h-8.14v14.63h8.14v51.5h17.06v-51.5h16.76v-14.51h-17.01v-2.34
		C185.94,190.46,188.2,187.83,193.26,187.83z"/>
	<path class="st3" d="M251.48,211.65v-14.99h-18.83v-23.61h-18.46v71.11c0,14.44,7.19,21.76,21.37,21.76
		c5.77,0,10.55-1.19,15.05-3.74l0.61-0.35v-15.78l-1.74,0.87c-3.08,1.54-6.07,2.26-9.41,2.26c-5.13,0-7.42-2.33-7.42-7.55v-29.98
		H251.48z"/>
	<polygon class="st3" points="344.09,192.27 330.61,237.44 315.88,192.01 300.47,192.01 285.88,237.39 272.67,192.27 253.66,192.27 
		277.12,265.25 293.19,265.25 308.1,220.02 322.89,265.25 338.96,265.25 362.69,192.27 	"/>
	<path class="st3" d="M395.4,191.21c-11.54,0-19.2,2.37-27.15,5.94l-1,0.45l5.14,15.12l1.19-0.5c6.17-2.57,11.86-4.28,19.57-4.28
		c7.25,0,15.88,2.35,16.04,13.48c-5.11-1.51-10.37-2.49-18.16-2.49c-18.53,0-29.59,9.03-29.59,24.15v0.27
		c0,15.68,13.55,22.82,26.14,22.82c8.55,0,15.91-2.83,21.48-8.22v6.76h18.33V222C427.38,202.15,416.02,191.21,395.4,191.21z
		 M409.45,235.04v3.14c0,7.96-7.14,13.52-17.37,13.52c-5.69,0-12.32-2.39-12.32-9.14v-0.27c0-6.06,5.55-9.67,14.84-9.67
		C399.78,232.62,405.13,233.49,409.45,235.04z"/>
	<path class="st3" d="M480.89,190.95c-10.14-0.43-18.35,4.23-23.65,13.2v-11.88h-18.46v72.44h18.46v-27.87
		c0-16.85,8.26-26.52,22.67-26.52h2.13V191L480.89,190.95z"/>
	<path class="st3" d="M517.45,190.81c-20.2,0-35.43,16.2-35.43,37.68v0.27c0,21.76,15.62,37.55,37.15,37.55
		c12.12,0,22.07-4.56,29.58-13.57l0.75-0.9l-11.13-9.88l-0.8,0.78c-5.76,5.62-11.18,8.02-18.13,8.02c-9.68,0-16.74-5.85-18.72-15.36
		h51.13l0.12-1.41c0.12-1.49,0.24-2.89,0.24-4.31C552.21,210.34,541.46,190.81,517.45,190.81z M533.72,222.38h-33.17
		c1.79-9.78,8.26-16.03,16.76-16.03C527.65,206.36,532.51,214.4,533.72,222.38z"/>
</g>
</svg>
