<?xml version="1.0" encoding="utf-8"?>
<!-- Generator: Adobe Illustrator 25.4.1, SVG Export Plug-In . SVG Version: 6.00 Build 0)  -->
<svg version="1.1" id="Camada_1" xmlns="http://www.w3.org/2000/svg" xmlns:xlink="http://www.w3.org/1999/xlink" x="0px" y="0px"
	 viewBox="0 0 63.05 64.34" style="enable-background:new 0 0 63.05 64.34;" xml:space="preserve">
<style type="text/css">
	.st0{fill:#FFCD35;}
</style>
<path id="star" class="st0" d="M62.59,25.1c-0.45-1.4-1.65-2.42-3.11-2.65l-16.52-2.6l-7.9-16.69c-0.65-1.37-2.02-2.24-3.53-2.24
	c-1.51,0-2.88,0.87-3.53,2.24l-7.9,16.69l-16.52,2.6c-1.45,0.23-2.65,1.26-3.11,2.65c-0.13,0.4-0.19,0.8-0.19,1.21
	c0,1.02,0.4,2.02,1.14,2.76l12.2,12.2l-3.5,17.48c-0.3,1.49,0.3,3.02,1.53,3.92c0.68,0.5,1.49,0.75,2.3,0.75
	c0.65,0,1.3-0.16,1.89-0.49l15.69-8.71l15.69,8.71c0.59,0.33,1.24,0.49,1.89,0.49c0.81,0,1.62-0.26,2.31-0.75
	c1.22-0.9,1.82-2.43,1.52-3.92l-3.5-17.48l12.2-12.2c0.74-0.74,1.14-1.74,1.14-2.76C62.78,25.9,62.72,25.5,62.59,25.1z"/>
</svg>
