<?xml version="1.0" encoding="UTF-8"?>
<!DOCTYPE svg PUBLIC "-//W3C//DTD SVG 1.1//EN" "http://www.w3.org/Graphics/SVG/1.1/DTD/svg11.dtd">
<svg xmlns="http://www.w3.org/2000/svg" version="1.1" width="1772px" height="818px" style="shape-rendering:geometricPrecision; text-rendering:geometricPrecision; image-rendering:optimizeQuality; fill-rule:evenodd; clip-rule:evenodd" xmlns:xlink="http://www.w3.org/1999/xlink">
<g><path style="opacity:0.993" fill="#fe3c02" d="M -0.5,-0.5 C 37.5,-0.5 75.5,-0.5 113.5,-0.5C 113.5,92.8333 113.5,186.167 113.5,279.5C 121.507,279.666 129.507,279.5 137.5,279C 181.962,228.203 226.795,177.703 272,127.5C 299.562,149.363 327.396,170.863 355.5,192C 313.116,238.714 271.116,285.714 229.5,333C 291.635,402.637 353.968,472.137 416.5,541.5C 369.17,542.667 321.837,542.833 274.5,542C 227.462,489.964 180.796,437.631 134.5,385C 127.508,384.5 120.508,384.334 113.5,384.5C 113.5,437.167 113.5,489.833 113.5,542.5C 75.5,542.5 37.5,542.5 -0.5,542.5C -0.5,361.5 -0.5,180.5 -0.5,-0.5 Z"/></g>
<g><path style="opacity:0.991" fill="#414348" d="M 1771.5,264.5 C 1771.5,357.167 1771.5,449.833 1771.5,542.5C 1733.5,542.5 1695.5,542.5 1657.5,542.5C 1657.67,460.499 1657.5,378.499 1657,296.5C 1652.68,242.172 1623.52,217.672 1569.5,223C 1538.22,230.946 1518.05,250.446 1509,281.5C 1507.02,288.714 1505.69,296.047 1505,303.5C 1504.5,383.166 1504.33,462.833 1504.5,542.5C 1466.17,542.5 1427.83,542.5 1389.5,542.5C 1389.67,459.833 1389.5,377.166 1389,294.5C 1382.07,237.785 1350.57,214.952 1294.5,226C 1267.97,236.201 1250.8,255.034 1243,282.5C 1240.56,291.36 1238.89,300.36 1238,309.5C 1237.5,387.166 1237.33,464.833 1237.5,542.5C 1147.17,542.5 1056.83,542.5 966.5,542.5C 966.667,459.166 966.5,375.833 966,292.5C 959.769,240.315 930.603,217.148 878.5,223C 846.811,231.022 826.644,250.855 818,282.5C 816.018,290.391 814.685,298.391 814,306.5C 813.5,385.166 813.333,463.833 813.5,542.5C 775.167,542.5 736.833,542.5 698.5,542.5C 698.667,458.499 698.5,374.499 698,290.5C 690.703,240.272 661.869,218.106 611.5,224C 584.623,230.541 566.123,246.708 556,272.5C 550.833,285.333 547.833,298.666 547,312.5C 546.5,389.166 546.333,465.833 546.5,542.5C 508.167,542.5 469.833,542.5 431.5,542.5C 431.333,442.833 431.5,343.166 432,243.5C 442.5,225.167 453,206.833 463.5,188.5C 433.839,187.667 404.172,187.167 374.5,187C 346.214,165.716 318.214,144.049 290.5,122C 374.166,121.5 457.833,121.333 541.5,121.5C 541.5,139.167 541.5,156.833 541.5,174.5C 542.822,174.67 543.989,174.337 545,173.5C 580.421,123.892 628.587,103.392 689.5,112C 731.71,119.412 763.377,141.579 784.5,178.5C 826.176,125.199 880.843,103.033 948.5,112C 1016.44,123.942 1058.61,163.442 1075,230.5C 1078.39,245.314 1080.39,260.314 1081,275.5C 1081.5,346.499 1081.67,417.499 1081.5,488.5C 1107.17,488.667 1132.84,488.5 1158.5,488C 1146.67,475.5 1134.83,463 1123,450.5C 1122.5,340.834 1122.33,231.167 1122.5,121.5C 1159.17,121.5 1195.83,121.5 1232.5,121.5C 1232.5,139.167 1232.5,156.833 1232.5,174.5C 1233.68,174.719 1234.68,174.386 1235.5,173.5C 1268.82,126.182 1314.49,105.348 1372.5,111C 1418.12,116.376 1452.29,138.876 1475,178.5C 1518.61,123.282 1575.44,101.449 1645.5,113C 1701.01,123.842 1738.84,155.675 1759,208.5C 1765.41,226.81 1769.58,245.477 1771.5,264.5 Z"/></g>
<g><path style="opacity:0.972" fill="#414348" d="M 1771.5,730.5 C 1771.5,758.5 1771.5,786.5 1771.5,814.5C 1761.83,814.5 1752.17,814.5 1742.5,814.5C 1742.96,788.449 1742.46,762.449 1741,736.5C 1733.54,719.188 1720.7,713.355 1702.5,719C 1693.09,723.409 1686.92,730.576 1684,740.5C 1682.54,765.115 1682.04,789.781 1682.5,814.5C 1672.83,814.5 1663.17,814.5 1653.5,814.5C 1653.5,754.833 1653.5,695.167 1653.5,635.5C 1663.17,635.5 1672.83,635.5 1682.5,635.5C 1682.33,659.169 1682.5,682.836 1683,706.5C 1692.76,693.788 1705.76,687.454 1722,687.5C 1749.54,689.211 1766.04,703.545 1771.5,730.5 Z"/></g>
<g><path style="opacity:0.982" fill="#414348" d="M 1290.5,647.5 C 1300.17,647.5 1309.83,647.5 1319.5,647.5C 1319.5,661.833 1319.5,676.167 1319.5,690.5C 1336.83,690.5 1354.17,690.5 1371.5,690.5C 1371.5,700.167 1371.5,709.833 1371.5,719.5C 1354.17,719.5 1336.83,719.5 1319.5,719.5C 1319.02,740.259 1319.52,760.925 1321,781.5C 1322.21,783.049 1323.71,784.215 1325.5,785C 1340.83,785.5 1356.16,785.667 1371.5,785.5C 1371.5,795.167 1371.5,804.833 1371.5,814.5C 1353.16,814.667 1334.83,814.5 1316.5,814C 1302.89,811.725 1294.39,803.891 1291,790.5C 1290.5,766.836 1290.33,743.169 1290.5,719.5C 1260.16,719.333 1229.83,719.5 1199.5,720C 1194.98,725.215 1195.65,729.549 1201.5,733C 1218.83,736.999 1236.16,740.999 1253.5,745C 1273.97,752.433 1282.14,766.933 1278,788.5C 1273.83,800.667 1265.67,808.833 1253.5,813C 1225.88,814.457 1198.21,814.957 1170.5,814.5C 1170.5,804.833 1170.5,795.167 1170.5,785.5C 1195.17,785.667 1219.84,785.5 1244.5,785C 1249.77,780.505 1249.77,775.839 1244.5,771C 1226.86,766.872 1209.2,762.872 1191.5,759C 1173,752.826 1164.5,739.993 1166,720.5C 1169.05,704.452 1178.55,694.619 1194.5,691C 1226.5,690.5 1258.5,690.333 1290.5,690.5C 1290.5,676.167 1290.5,661.833 1290.5,647.5 Z"/></g>
<g><path style="opacity:0.955" fill="#404247" d="M 904.5,670.5 C 909.167,670.5 913.833,670.5 918.5,670.5C 918.334,679.506 918.5,688.506 919,697.5C 921.441,695.031 924.274,693.198 927.5,692C 955.637,690.141 966.47,702.974 960,730.5C 952.652,743.177 941.818,747.677 927.5,744C 923.726,742.698 920.559,740.531 918,737.5C 917.503,739.81 917.337,742.143 917.5,744.5C 913.233,744.797 909.066,744.464 905,743.5C 904.5,719.169 904.333,694.836 904.5,670.5 Z M 932.5,702.5 C 947.453,705.068 951.953,713.401 946,727.5C 937.667,735.5 929.333,735.5 921,727.5C 914.988,714.306 918.821,705.973 932.5,702.5 Z"/></g>
<g><path style="opacity:0.972" fill="#414348" d="M 1453.5,817.5 C 1445.17,817.5 1436.83,817.5 1428.5,817.5C 1401.52,811.351 1385.02,794.684 1379,767.5C 1374.65,744.24 1379.98,723.573 1395,705.5C 1415.56,686.902 1439.06,682.069 1465.5,691C 1486.59,700.436 1499.09,716.602 1503,739.5C 1504.48,746.844 1504.64,754.178 1503.5,761.5C 1471.51,762.333 1439.51,762.833 1407.5,763C 1413.89,783.543 1427.89,792.543 1449.5,790C 1459.06,788.396 1466.4,783.562 1471.5,775.5C 1481.48,774.501 1491.48,774.168 1501.5,774.5C 1496.85,792.657 1485.85,805.49 1468.5,813C 1463.42,814.68 1458.42,816.18 1453.5,817.5 Z M 1432.5,714.5 C 1452.33,711.574 1466,719.241 1473.5,737.5C 1451.83,738.833 1430.17,738.833 1408.5,737.5C 1412.65,725.678 1420.65,718.011 1432.5,714.5 Z"/></g>
<g><path style="opacity:0.971" fill="#414348" d="M 1590.5,817.5 C 1582.5,817.5 1574.5,817.5 1566.5,817.5C 1532.41,809.235 1514.74,787.402 1513.5,752C 1516.15,711.161 1537.81,689.328 1578.5,686.5C 1606.45,687.315 1626.29,700.315 1638,725.5C 1639.47,729.378 1640.3,733.378 1640.5,737.5C 1630.49,737.666 1620.49,737.5 1610.5,737C 1602.84,720.335 1589.84,713.335 1571.5,716C 1552.95,721.052 1543.62,733.218 1543.5,752.5C 1543.59,771.754 1552.92,783.921 1571.5,789C 1589.81,791.681 1602.81,784.681 1610.5,768C 1620.49,767.5 1630.49,767.334 1640.5,767.5C 1634.81,795.192 1618.14,811.858 1590.5,817.5 Z"/></g>
<g><path style="opacity:0.97" fill="#414348" d="M 1100.5,687.5 C 1133.88,687.091 1152.38,703.425 1156,736.5C 1156.5,762.498 1156.67,788.498 1156.5,814.5C 1146.83,814.5 1137.17,814.5 1127.5,814.5C 1127.94,789.129 1127.44,763.795 1126,738.5C 1119.4,719.849 1106.57,713.349 1087.5,719C 1077.16,723.167 1070.66,730.667 1068,741.5C 1066.55,765.79 1066.05,790.123 1066.5,814.5C 1056.83,814.5 1047.17,814.5 1037.5,814.5C 1037.5,773.167 1037.5,731.833 1037.5,690.5C 1047.17,690.5 1056.83,690.5 1066.5,690.5C 1066.33,695.511 1066.5,700.511 1067,705.5C 1076.01,695.288 1087.18,689.288 1100.5,687.5 Z"/></g>
<g><path style="opacity:0.945" fill="#414247" d="M 959.5,691.5 C 964.214,691.173 968.88,691.507 973.5,692.5C 978,704.167 982.5,715.833 987,727.5C 991.862,715.913 996.529,704.246 1001,692.5C 1005.4,691.533 1009.9,691.2 1014.5,691.5C 1006.36,714.075 997.529,736.408 988,758.5C 986.125,761.187 983.625,763.021 980.5,764C 974.509,764.499 968.509,764.666 962.5,764.5C 962.5,760.5 962.5,756.5 962.5,752.5C 966.846,752.666 971.179,752.499 975.5,752C 976.931,751.535 978.097,750.701 979,749.5C 979.45,747.481 980.283,745.648 981.5,744C 973.749,726.666 966.416,709.166 959.5,691.5 Z"/></g>
</svg>
