<svg id="Camada_1" data-name="Camada 1" xmlns="http://www.w3.org/2000/svg" viewBox="0 0 160 30"><defs><style>.cls-1{fill:#fff;}.cls-2{fill:#d99d03;}</style></defs><title>Marca_Multisoftware-Sistema</title><polygon class="cls-1" points="36.29 0.55 28.3 12.96 20.31 0.55 14.74 0.55 14.74 29.09 20.08 29.09 20.08 9.73 27.96 21.52 28.49 21.52 36.44 9.65 36.44 29.09 41.86 29.09 41.86 0.55 36.29 0.55"/><path class="cls-1" d="M46.13,21.35V8.45h4.65V20c0,3.15,1.57,5,4.34,5s4.57-1.88,4.57-5V8.45h4.65V28.73H59.69V25.58a7.3,7.3,0,0,1-6.34,3.57C48.78,29.15,46.13,26.08,46.13,21.35Z"/><path class="cls-1" d="M53.35,29.5c-4.67,0-7.57-3.12-7.57-8.15V8.1h5.35V20c0,3,1.42,4.61,4,4.61s4.22-1.84,4.22-4.68V8.1h5.35v21H59.34V26.63A7.4,7.4,0,0,1,53.35,29.5ZM46.48,8.8V21.35c0,4.66,2.57,7.45,6.87,7.45a6.9,6.9,0,0,0,6-3.42L60,24.45v3.93h4V8.8H60v11.1c0,3.27-1.93,5.38-4.92,5.38s-4.69-2-4.69-5.3V8.8h-4Z"/><path class="cls-1" d="M68.91,0.85h4.65V28.73H68.91V0.85Z"/><path class="cls-1" d="M73.91,29.08H68.56V0.5h5.35V29.08Zm-4.65-.69h4V1.19h-4V28.38Z"/><path class="cls-1" d="M77.91,23.12V2.88h4.65V8.45H88v4H82.56v9.95a2.21,2.21,0,0,0,2.5,2.53,6.24,6.24,0,0,0,2.88-.69V28a8.13,8.13,0,0,1-4.19,1C80.33,29.07,77.91,27.58,77.91,23.12Z"/><path class="cls-1" d="M83.75,29.42c-4.11,0-6.19-2.12-6.19-6.3V2.53H82.9V8.1h5.45v4.69H82.9v9.6a1.87,1.87,0,0,0,2.15,2.19,5.88,5.88,0,0,0,2.72-.65l0.5-.25v4.57l-0.18.1A8.49,8.49,0,0,1,83.75,29.42ZM78.26,3.23V23.12c0,3.77,1.8,5.61,5.49,5.61a7.87,7.87,0,0,0,3.84-.89V24.78a6.47,6.47,0,0,1-2.53.5,2.56,2.56,0,0,1-2.85-2.88V12.09h5.45V8.8H82.21V3.23h-4Z"/><path class="cls-1" d="M91.24,0.92h5V5.34h-5V0.92Zm0.19,7.53h4.65V28.73H91.43V8.45Z"/><path class="cls-1" d="M96.43,29.08H91.08V8.1h5.35v21Zm-4.65-.7h4V8.8h-4V28.38Zm4.8-22.7H90.89V0.57h5.69V5.68Zm-5-.7h4.3V1.27h-4.3V5Z"/><path class="cls-2" d="M101.28,29.1V9.33h4l9.26,12.17V9.33h4.29V29.1h-3.69l-9.58-12.56V29.1h-4.29Z"/><path class="cls-2" d="M122.44,29.1V9.33h15.05v4H126.78v4.2h9.43v4h-9.43V29.1h-4.34Z"/><path class="cls-2" d="M146.1,29.44a7.75,7.75,0,0,1-5.67-2.19,7.55,7.55,0,0,1-2.23-5.64V21.56a8.33,8.33,0,0,1,.94-3.94,7.32,7.32,0,0,1,2.67-2.86,7.18,7.18,0,0,1,3.87-1.07,7.65,7.65,0,0,1,3.27.68,6.11,6.11,0,0,1,2.32,1.83,8.44,8.44,0,0,1,1.32,2.61A10.42,10.42,0,0,1,153,21.9c0,0.22,0,.6-0.05,1.13H142.46a3.68,3.68,0,0,0,1.29,2.21,3.82,3.82,0,0,0,2.42.76,4.77,4.77,0,0,0,1.92-.37,6.31,6.31,0,0,0,1.74-1.19l2.45,2.18A7.52,7.52,0,0,1,146.1,29.44Zm-3.7-9.1h6.47a4,4,0,0,0-1-2.34,2.85,2.85,0,0,0-2.16-.87,2.92,2.92,0,0,0-2.17.86A4.32,4.32,0,0,0,142.41,20.34Z"/></svg>