<svg id="Camada_1" data-name="Camada 1" xmlns="http://www.w3.org/2000/svg" viewBox="0 0 160 30"><defs><style>.cls-1{fill:#8ac9ab;}.cls-2{fill:#1d1d1b;}</style></defs><title>Marca_Multisoftware-Sistema</title><path class="cls-1" d="M55.82,22.84V10.19h9.54v2.48H58.58v2.57h6v2.47h-6v2.66h6.87v2.48H55.82Z"/><path class="cls-1" d="M66.91,22.84V13.16h2.75v1.38a4.78,4.78,0,0,1,1.23-1.14A3,3,0,0,1,72.52,13a3.29,3.29,0,0,1,1.65.4,2.68,2.68,0,0,1,1.08,1.14A4,4,0,0,1,78.43,13a3.16,3.16,0,0,1,2.41.91,3.7,3.7,0,0,1,.86,2.64v6.31H78.95v-5.4A2.27,2.27,0,0,0,78.53,16a1.46,1.46,0,0,0-1.19-.5,1.53,1.53,0,0,0-1.22.51,2.19,2.19,0,0,0-.44,1.47v5.4H72.93v-5.4A2.27,2.27,0,0,0,72.52,16a1.46,1.46,0,0,0-1.19-.5A1.53,1.53,0,0,0,70.1,16a2.19,2.19,0,0,0-.44,1.47v5.4H66.91Z"/><path class="cls-1" d="M89.12,23a3.78,3.78,0,0,1-3-1.44v1.26H83.35V9.65H86.1v4.9a3.61,3.61,0,0,1,3-1.57,4.18,4.18,0,0,1,1.64.33,4.35,4.35,0,0,1,1.4.95,4.46,4.46,0,0,1,1,1.58A5.93,5.93,0,0,1,93.53,18v0a6.07,6.07,0,0,1-.36,2.14,4.24,4.24,0,0,1-2.38,2.53A4.23,4.23,0,0,1,89.12,23Zm-0.71-2.33a2.2,2.2,0,0,0,1.68-.74A2.73,2.73,0,0,0,90.78,18v0a2.73,2.73,0,0,0-.69-1.92,2.24,2.24,0,0,0-3.34,0A2.73,2.73,0,0,0,86.06,18v0a2.73,2.73,0,0,0,.69,1.93A2.19,2.19,0,0,0,88.42,20.69Z"/><path class="cls-1" d="M97.58,23a3.61,3.61,0,0,1-2.38-.79,2.67,2.67,0,0,1-.95-2.17v0a2.7,2.7,0,0,1,1.05-2.32,4.68,4.68,0,0,1,2.85-.78,7.18,7.18,0,0,1,2.36.4V17.17a1.65,1.65,0,0,0-.52-1.32,2.31,2.31,0,0,0-1.55-.45,7.72,7.72,0,0,0-2.67.53l-0.69-2.1a9.54,9.54,0,0,1,1.75-.58,9.28,9.28,0,0,1,2-.19,4.45,4.45,0,0,1,3.27,1.09,4.19,4.19,0,0,1,1,3.09v5.62H100.5v-1A3.75,3.75,0,0,1,97.58,23Zm0.83-1.9a2.42,2.42,0,0,0,1.55-.47,1.49,1.49,0,0,0,.6-1.22V18.94a4,4,0,0,0-1.75-.36,2.44,2.44,0,0,0-1.39.34,1.12,1.12,0,0,0-.5,1v0a1,1,0,0,0,.41.86A1.75,1.75,0,0,0,98.41,21.12Z"/><path class="cls-1" d="M104.8,22.84V13.16h2.75V15.1A3,3,0,0,1,110.64,13v2.87h-0.15a2.77,2.77,0,0,0-2.17.86,3.73,3.73,0,0,0-.77,2.56v3.58H104.8Z"/><path class="cls-1" d="M115.92,23.06a5.05,5.05,0,0,1-2.59-.67,4.79,4.79,0,0,1-1.8-1.82,5,5,0,0,1-.64-2.51v0a5.07,5.07,0,0,1,.64-2.52,4.82,4.82,0,0,1,1.82-1.83A5.11,5.11,0,0,1,116,13a5.46,5.46,0,0,1,2.23.41,4.8,4.8,0,0,1,1.63,1.21l-1.69,1.81a4,4,0,0,0-1-.8,2.52,2.52,0,0,0-1.19-.26,2.13,2.13,0,0,0-1.68.77,2.76,2.76,0,0,0-.67,1.87v0a2.77,2.77,0,0,0,.68,1.91,2.26,2.26,0,0,0,1.78.77,2.58,2.58,0,0,0,1.16-.26,4.62,4.62,0,0,0,1.06-.77l1.61,1.62a5.77,5.77,0,0,1-1.7,1.32A5.05,5.05,0,0,1,115.92,23.06Z"/><path class="cls-1" d="M123.7,23a3.61,3.61,0,0,1-2.38-.79,2.67,2.67,0,0,1-.95-2.17v0a2.7,2.7,0,0,1,1.05-2.32,4.68,4.68,0,0,1,2.85-.78,7.18,7.18,0,0,1,2.36.4V17.17a1.65,1.65,0,0,0-.52-1.32,2.31,2.31,0,0,0-1.55-.45,7.72,7.72,0,0,0-2.67.53l-0.69-2.1a9.54,9.54,0,0,1,1.75-.58,9.28,9.28,0,0,1,2-.19,4.45,4.45,0,0,1,3.27,1.09,4.19,4.19,0,0,1,1,3.09v5.62h-2.66v-1A3.75,3.75,0,0,1,123.7,23Zm0.83-1.9a2.42,2.42,0,0,0,1.55-.47,1.49,1.49,0,0,0,.6-1.22V18.94a4,4,0,0,0-1.75-.36,2.44,2.44,0,0,0-1.39.34,1.12,1.12,0,0,0-.5,1v0a1,1,0,0,0,.41.86A1.75,1.75,0,0,0,124.53,21.12Z"/><path class="cls-1" d="M134.9,23a4.19,4.19,0,0,1-1.64-.33,4.3,4.3,0,0,1-2.4-2.53,5.92,5.92,0,0,1-.37-2.14v0a6,6,0,0,1,.37-2.14,4.26,4.26,0,0,1,2.39-2.53A4.22,4.22,0,0,1,134.9,13a3.79,3.79,0,0,1,3,1.45V9.65h2.74V22.84h-2.74V21.45A3.61,3.61,0,0,1,134.9,23Zm0.71-2.33a2.17,2.17,0,0,0,1.66-.75,2.74,2.74,0,0,0,.68-1.93v0a2.74,2.74,0,0,0-.68-1.93,2.17,2.17,0,0,0-1.66-.75,2.21,2.21,0,0,0-1.68.75,2.72,2.72,0,0,0-.69,1.93v0a2.72,2.72,0,0,0,.69,1.92A2.2,2.2,0,0,0,135.6,20.69Z"/><path class="cls-1" d="M147.15,23.06a5.38,5.38,0,0,1-2.67-.67,4.9,4.9,0,0,1-2.55-4.34v0a4.87,4.87,0,0,1,.4-2,5,5,0,0,1,1.09-1.61,5.08,5.08,0,0,1,1.67-1.08,5.52,5.52,0,0,1,2.09-.4,5.41,5.41,0,0,1,2.67.67A4.88,4.88,0,0,1,152.4,18v0a4.91,4.91,0,0,1-.68,2.53,5,5,0,0,1-1.89,1.84A5.4,5.4,0,0,1,147.15,23.06Zm0-2.37a2.34,2.34,0,0,0,1.83-.76,2.7,2.7,0,0,0,.69-1.87v0a2.7,2.7,0,0,0-.72-1.89,2.37,2.37,0,0,0-1.83-.78,2.34,2.34,0,0,0-1.83.76,2.7,2.7,0,0,0-.69,1.87v0a2.7,2.7,0,0,0,.72,1.89A2.37,2.37,0,0,0,147.18,20.69Z"/><path class="cls-1" d="M153.66,22.84V13.16h2.75V15.1A3,3,0,0,1,159.5,13v2.87h-0.15a2.77,2.77,0,0,0-2.17.86,3.73,3.73,0,0,0-.77,2.56v3.58h-2.75Z"/><polygon class="cls-2" points="14.3 4.53 9.18 12.48 4.07 4.53 0.5 4.53 0.5 22.81 3.92 22.81 3.92 10.41 8.96 17.96 9.3 17.96 14.39 10.36 14.39 22.81 17.86 22.81 17.86 4.53 14.3 4.53"/><path class="cls-2" d="M20.59,17.85V9.59h3V17c0,2,1,3.17,2.78,3.17s2.93-1.2,2.93-3.22V9.59h3v13h-3v-2a4.67,4.67,0,0,1-4.06,2.29C22.29,22.84,20.59,20.88,20.59,17.85Z"/><path class="cls-2" d="M25.22,23.07c-3,0-4.85-2-4.85-5.21V9.37h3.42V17c0,1.9.91,2.95,2.56,2.95a2.68,2.68,0,0,0,2.7-3V9.37h3.42V22.8H29.05V21.23A4.74,4.74,0,0,1,25.22,23.07ZM20.82,9.81v8c0,3,1.64,4.77,4.4,4.77a4.42,4.42,0,0,0,3.87-2.19l0.41-.6v2.52H32V9.81H29.5v7.1c0,2.09-1.24,3.44-3.15,3.44s-3-1.27-3-3.4V9.81H20.82Z"/><path class="cls-2" d="M35.18,4.72h3V22.58h-3V4.72Z"/><path class="cls-2" d="M38.38,22.8H35V4.5h3.42V22.8Zm-3-.44h2.53V4.95H35.4V22.35Z"/><path class="cls-2" d="M40.94,19V6h3V9.59h3.49v2.56H43.91v6.37a1.42,1.42,0,0,0,1.6,1.62,4,4,0,0,0,1.84-.44v2.43a5.21,5.21,0,0,1-2.68.66C42.49,22.8,40.94,21.84,40.94,19Z"/><path class="cls-2" d="M44.68,23c-2.63,0-4-1.36-4-4V5.8h3.42V9.37h3.49v3H44.14v6.15a1.2,1.2,0,0,0,1.37,1.4,3.77,3.77,0,0,0,1.74-.42l0.32-.16v2.93l-0.11.06A5.44,5.44,0,0,1,44.68,23ZM41.16,6.25V19c0,2.41,1.15,3.59,3.51,3.59A5,5,0,0,0,47.13,22V20a4.14,4.14,0,0,1-1.62.32,1.64,1.64,0,0,1-1.82-1.85V11.92h3.49V9.81H43.69V6.25H41.16Z"/><path class="cls-2" d="M49.47,4.77h3.2V7.6h-3.2V4.77ZM49.6,9.59h3v13h-3v-13Z"/><path class="cls-2" d="M52.79,22.8H49.37V9.37h3.42V22.8Zm-3-.45h2.53V9.81H49.82V22.35ZM52.89,7.82H49.25V4.55h3.64V7.82Zm-3.2-.45h2.75V5H49.7V7.38Z"/></svg>