<svg id="Camada_1" data-name="Camada 1" xmlns="http://www.w3.org/2000/svg" viewBox="0 0 160 30"><defs><style>.cls-1{fill:#1d1d1b;}.cls-2{fill:#e73f20;}</style></defs><title>Marca_Multisoftware-Sistema</title><polygon class="cls-1" points="34.43 0.55 26.43 12.96 18.44 0.55 12.87 0.55 12.87 29.09 18.22 29.09 18.22 9.73 26.09 21.52 26.62 21.52 34.58 9.65 34.58 29.09 40 29.09 40 0.55 34.43 0.55"/><path class="cls-1" d="M44.26,21.35V8.45h4.65V20c0,3.15,1.57,5,4.34,5s4.57-1.88,4.57-5V8.45h4.65V28.73H57.82V25.58a7.3,7.3,0,0,1-6.34,3.57C46.91,29.15,44.26,26.08,44.26,21.35Z"/><path class="cls-1" d="M51.48,29.5c-4.67,0-7.57-3.12-7.57-8.15V8.1h5.35V20c0,3,1.42,4.61,4,4.61s4.22-1.84,4.22-4.68V8.1h5.35v21H57.47V26.63A7.4,7.4,0,0,1,51.48,29.5ZM44.61,8.8V21.35c0,4.66,2.57,7.45,6.87,7.45a6.9,6.9,0,0,0,6-3.42l0.64-.94v3.93h4V8.8h-4v11.1c0,3.27-1.93,5.38-4.92,5.38s-4.69-2-4.69-5.3V8.8h-4Z"/><path class="cls-1" d="M67,0.85h4.65V28.73H67V0.85Z"/><path class="cls-1" d="M72,29.08H66.69V0.5H72V29.08Zm-4.65-.69h4V1.19h-4V28.38Z"/><path class="cls-1" d="M76,23.12V2.88h4.65V8.45h5.45v4H80.69v9.95a2.21,2.21,0,0,0,2.5,2.53,6.24,6.24,0,0,0,2.88-.69V28a8.13,8.13,0,0,1-4.19,1C78.46,29.07,76,27.58,76,23.12Z"/><path class="cls-1" d="M81.88,29.42c-4.11,0-6.19-2.12-6.19-6.3V2.53H81V8.1h5.45v4.69H81v9.6a1.87,1.87,0,0,0,2.15,2.19,5.88,5.88,0,0,0,2.72-.65l0.5-.25v4.57l-0.18.1A8.49,8.49,0,0,1,81.88,29.42ZM76.39,3.23V23.12c0,3.77,1.8,5.61,5.49,5.61a7.87,7.87,0,0,0,3.84-.89V24.78a6.47,6.47,0,0,1-2.53.5,2.56,2.56,0,0,1-2.85-2.88V12.09h5.45V8.8H80.34V3.23h-4Z"/><path class="cls-1" d="M89.37,0.92h5V5.34h-5V0.92Zm0.19,7.53h4.65V28.73H89.56V8.45Z"/><path class="cls-1" d="M94.56,29.08H89.21V8.1h5.35v21Zm-4.65-.7h4V8.8h-4V28.38Zm4.8-22.7H89V0.57h5.69V5.68Zm-5-.7H94V1.27h-4.3V5Z"/><path class="cls-2" d="M108.37,29.07a10.14,10.14,0,0,1-5.18-1.35A9.66,9.66,0,0,1,99.55,24a10.32,10.32,0,0,1-1.31-5.14V18.84a10.39,10.39,0,0,1,1.3-5.13A9.68,9.68,0,0,1,103.2,10a10.44,10.44,0,0,1,5.34-1.38,11.29,11.29,0,0,1,4.45.78,10.83,10.83,0,0,1,3.34,2.26l-2.76,3.19a9.92,9.92,0,0,0-2.43-1.65,6.13,6.13,0,0,0-2.63-.57,5.32,5.32,0,0,0-4.1,1.78,6.23,6.23,0,0,0-1.63,4.36v0.06a6.38,6.38,0,0,0,1.62,4.4,5.29,5.29,0,0,0,4.12,1.81,6.16,6.16,0,0,0,2.73-.57,10.94,10.94,0,0,0,2.47-1.75l2.77,2.8A11.46,11.46,0,0,1,113,28.19,10.72,10.72,0,0,1,108.37,29.07Z"/><path class="cls-2" d="M123.41,28.72V13h-6V9h16.36v4h-6V28.72h-4.34Z"/><path class="cls-2" d="M139.72,29.07a7.75,7.75,0,0,1-5.66-2.19,7.55,7.55,0,0,1-2.23-5.64V21.18a8.33,8.33,0,0,1,.94-3.94,7.34,7.34,0,0,1,2.67-2.86,7.2,7.2,0,0,1,3.87-1.07,7.63,7.63,0,0,1,3.27.68,6.08,6.08,0,0,1,2.32,1.83,8.4,8.4,0,0,1,1.32,2.61,10.5,10.5,0,0,1,.45,3.09c0,0.22,0,.6-0.05,1.13H136.08a3.68,3.68,0,0,0,1.29,2.21,3.82,3.82,0,0,0,2.42.76,4.78,4.78,0,0,0,1.92-.37,6.27,6.27,0,0,0,1.74-1.19l2.46,2.18A7.52,7.52,0,0,1,139.72,29.07ZM136,20h6.47a4,4,0,0,0-1-2.34,2.85,2.85,0,0,0-2.16-.87,2.92,2.92,0,0,0-2.16.86A4.3,4.3,0,0,0,136,20Z"/></svg>