<svg id="Camada_1" data-name="Camada 1" xmlns="http://www.w3.org/2000/svg" viewBox="0 0 160 30"><defs><style>.cls-1{fill:#1d1d1b;}.cls-2{fill:#169fdb;}</style></defs><title>Marca_Multisoftware-Sistema</title><polygon class="cls-1" points="32.38 0.55 24.39 12.96 16.4 0.55 10.83 0.55 10.83 29.09 16.18 29.09 16.18 9.73 24.05 21.52 24.58 21.52 32.53 9.65 32.53 29.09 37.96 29.09 37.96 0.55 32.38 0.55"/><path class="cls-1" d="M42.22,21.35V8.45h4.65V20c0,3.15,1.57,5,4.34,5s4.57-1.88,4.57-5V8.45h4.65V28.73H55.78V25.58a7.3,7.3,0,0,1-6.34,3.57C44.87,29.15,42.22,26.08,42.22,21.35Z"/><path class="cls-1" d="M49.44,29.5c-4.67,0-7.57-3.12-7.57-8.15V8.1h5.35V20c0,3,1.42,4.61,4,4.61s4.22-1.84,4.22-4.68V8.1h5.35v21H55.43V26.63A7.4,7.4,0,0,1,49.44,29.5ZM42.57,8.8V21.35c0,4.66,2.57,7.45,6.87,7.45a6.9,6.9,0,0,0,6-3.42l0.64-.94v3.93h4V8.8h-4v11.1c0,3.27-1.93,5.38-4.92,5.38s-4.69-2-4.69-5.3V8.8h-4Z"/><path class="cls-1" d="M65,0.85h4.65V28.73H65V0.85Z"/><path class="cls-1" d="M70,29.08H64.65V0.5H70V29.08Zm-4.65-.69h4V1.19h-4V28.38Z"/><path class="cls-1" d="M74,23.12V2.88h4.65V8.45H84.1v4H78.65v9.95a2.21,2.21,0,0,0,2.5,2.53A6.24,6.24,0,0,0,84,24.23V28a8.13,8.13,0,0,1-4.19,1C76.42,29.07,74,27.58,74,23.12Z"/><path class="cls-1" d="M79.84,29.42c-4.11,0-6.19-2.12-6.19-6.3V2.53H79V8.1h5.45v4.69H79v9.6a1.87,1.87,0,0,0,2.15,2.19,5.88,5.88,0,0,0,2.72-.65l0.5-.25v4.57l-0.18.1A8.49,8.49,0,0,1,79.84,29.42ZM74.35,3.23V23.12c0,3.77,1.8,5.61,5.49,5.61a7.87,7.87,0,0,0,3.84-.89V24.78a6.47,6.47,0,0,1-2.53.5,2.56,2.56,0,0,1-2.85-2.88V12.09h5.45V8.8H78.3V3.23h-4Z"/><path class="cls-1" d="M87.33,0.92h5V5.34h-5V0.92Zm0.19,7.53h4.65V28.73H87.52V8.45Z"/><path class="cls-1" d="M92.52,29.08H87.17V8.1h5.35v21Zm-4.65-.7h4V8.8h-4V28.38Zm4.8-22.7H87V0.57h5.69V5.68Zm-5-.7H92V1.27h-4.3V5Z"/><path class="cls-2" d="M101.27,29.09V13.34h-6v-4h16.36v4h-6V29.09h-4.34Z"/><path class="cls-2" d="M113.83,29.09V9.33h4.69l5.2,8.37,5.2-8.37h4.69V29.09h-4.33V16.19l-5.56,8.44h-0.11l-5.51-8.35V29.09h-4.26Z"/><path class="cls-2" d="M144.23,29.37a12.87,12.87,0,0,1-4.47-.8,12,12,0,0,1-3.91-2.36l2.56-3.07a9.29,9.29,0,0,0,5.9,2.4,3.8,3.8,0,0,0,2.1-.5,1.55,1.55,0,0,0,.76-1.36V23.62a1.52,1.52,0,0,0-.3-1,3.07,3.07,0,0,0-1.16-.76,16.71,16.71,0,0,0-2.52-.79q-0.94-.23-1.62-0.45t-1.41-.51a7.63,7.63,0,0,1-1.23-.61,6.21,6.21,0,0,1-1-.76,3.71,3.71,0,0,1-.74-1,5.12,5.12,0,0,1-.43-1.22,6.83,6.83,0,0,1-.16-1.52V15a5.38,5.38,0,0,1,1.94-4.31,7.44,7.44,0,0,1,5-1.64,11.34,11.34,0,0,1,7.33,2.51l-2.26,3.28a9.28,9.28,0,0,0-5.13-2,3.18,3.18,0,0,0-1.88.48,1.47,1.47,0,0,0-.67,1.24v0.06a1.59,1.59,0,0,0,.83,1.45,15.08,15.08,0,0,0,3.45,1.16,18.57,18.57,0,0,1,2.68.89,8.11,8.11,0,0,1,1.94,1.16A4.2,4.2,0,0,1,151.08,21a5.75,5.75,0,0,1,.4,2.23v0.05a5.48,5.48,0,0,1-2,4.5A8.08,8.08,0,0,1,144.23,29.37Z"/></svg>