<svg id="Camada_1" data-name="Camada 1" xmlns="http://www.w3.org/2000/svg" viewBox="0 0 39 30"><defs><style>.cls-1{fill:#e73f20;}</style></defs><title>Marca_Multisoftware-Sistema</title><path class="cls-1" d="M18.46,25.87a19.93,19.93,0,0,1-11-3.45C4.12,20.18.39,16,0,12A6.31,6.31,0,0,1,2,6.69c2.57-2.51,6.21-2.27,10.5.71,1.11,0.77,2,1.4,3,2A12.66,12.66,0,0,0,22,11.19a11.39,11.39,0,0,0,4.9-1.09,11.45,11.45,0,0,0,3.34-2.41,14.4,14.4,0,0,0,1-1.26,12.64,12.64,0,0,1,1.39-1.61,4.31,4.31,0,0,1,2.7-1.27,2.31,2.31,0,0,1,1.19.33,4.66,4.66,0,0,1,2.19,2.48c0.79,2.29-.59,5.14-1.87,7.12C34,18,29.78,23.36,23.34,25.2A17.75,17.75,0,0,1,18.46,25.87ZM6.2,5.86A4.92,4.92,0,0,0,2.67,7.34,5.45,5.45,0,0,0,.92,11.89c0.35,3.94,4.39,8,7,9.79A19,19,0,0,0,18.46,25a16.87,16.87,0,0,0,4.63-.64c6.15-1.76,10.2-7,13-11.36,1.18-1.81,2.45-4.39,1.78-6.34a3.81,3.81,0,0,0-1.8-2,1.4,1.4,0,0,0-.73-0.2,3.35,3.35,0,0,0-2.09,1A11.79,11.79,0,0,0,32,7a15.32,15.32,0,0,1-1.11,1.34,12.34,12.34,0,0,1-3.6,2.6A12.28,12.28,0,0,1,22,12.08a13.56,13.56,0,0,1-6.88-1.92c-1-.6-2-1.24-3.08-2A10.68,10.68,0,0,0,6.2,5.86Z"/><path class="cls-1" d="M39,7.33a4.54,4.54,0,0,0-2.44-3.47A3,3,0,0,0,33.68,4l-0.23.13A10.58,10.58,0,0,0,31,6.48l-0.14.17a8.76,8.76,0,0,1-6.67,3.43h0c-4.19,0-8-3.29-9.85-5.25C12,2.3,9.81,1,8,1A3.86,3.86,0,0,0,4.82,2.77,8.88,8.88,0,0,0,3.57,5.16a6,6,0,0,1,1.11-.39,8.09,8.09,0,0,1,.86-1.47A3,3,0,0,1,8,1.91c1.56,0,3.49,1.19,5.74,3.54,2,2.06,6,5.52,10.49,5.52h0a9.61,9.61,0,0,0,7.34-3.74L31.73,7a9.77,9.77,0,0,1,2.2-2.11l0.19-.11a2.08,2.08,0,0,1,2-.17,3.64,3.64,0,0,1,2,2.82c0.6,3.87-3,10.07-5.46,13.07C28.81,25.24,23.83,28,19.3,28h0a10.67,10.67,0,0,1-7.14-2.77C8.08,21.75,2.82,13.27,4,6.79a4.91,4.91,0,0,0-1,.71C2.39,14.21,7.52,22.44,11.57,26a11.55,11.55,0,0,0,7.73,3h0c4.8,0,10-2.93,14-7.85C35.15,18.85,39.71,12,39,7.33Z"/><path class="cls-1" d="M3.59,14.31a5.93,5.93,0,0,0-1.07,3l0.89,0.06a5,5,0,0,1,.56-2C3.84,15,3.71,14.67,3.59,14.31Z"/><path class="cls-1" d="M36.68,12.1l-0.2.27a6.36,6.36,0,0,1-1.81,1.84c-7.8,4.31-14.59,1.2-19.54-1.07-2.3-1.05-4.27-2-5.9-1.94a6.63,6.63,0,0,0-4.38,1.7c0.09,0.32.19,0.64,0.29,1l0.22-.22a5.77,5.77,0,0,1,3.88-1.54c1.41,0,3.32.85,5.52,1.86,5.13,2.35,12.15,5.57,20.35,1a4.51,4.51,0,0,0,1-.82c0.29-.62.56-1.25,0.79-1.87Z"/></svg>