<?xml version="1.0" encoding="utf-8"?>
<!-- Generator: Adobe Illustrator 28.1.0, SVG Export Plug-In . SVG Version: 6.00 Build 0)  -->
<svg version="1.1" id="Camada_1" xmlns="http://www.w3.org/2000/svg" xmlns:xlink="http://www.w3.org/1999/xlink" x="0px" y="0px"
	 viewBox="0 0 929.36 475.09" style="enable-background:new 0 0 929.36 475.09;" xml:space="preserve">
<style type="text/css">
	.st0{clip-path:url(#SVGID_00000007420831706064701220000006281450266667484593_);fill:#24A4B1;}
</style>
<g>
	<defs>
		<rect id="SVGID_1_" x="8.69" y="7.91" width="909.99" height="463.17"/>
	</defs>
	<clipPath id="SVGID_00000059995381760922636770000017315492521081055106_">
		<use xlink:href="#SVGID_1_"  style="overflow:visible;"/>
	</clipPath>
	<path style="clip-path:url(#SVGID_00000059995381760922636770000017315492521081055106_);fill:#24A4B1;" d="M252.59,347.12
		L118.56,212.89L252.33,78.92c16.37-16.4,16.37-42.32,0-58.7c-16.37-16.41-42.24-16.41-58.62,0l-25.29,25.33L30.63,183.54
		l-0.25,0.25c-16.37,16.4-16.37,42.3-0.02,58.72L168.17,380.5c0.86,0.86,1.85,1.51,2.78,2.27l23.01,23.06
		c16.37,16.38,42.26,16.38,58.63,0C268.95,389.43,268.95,363.51,252.59,347.12"/>
	<path style="clip-path:url(#SVGID_00000059995381760922636770000017315492521081055106_);fill:#24A4B1;" d="M672.2,347.12
		l134.04-134.23L672.47,78.92c-16.39-16.4-16.39-42.32,0-58.7c16.36-16.41,42.24-16.41,58.62,0l25.29,25.33l137.79,137.99l0.25,0.25
		c16.38,16.4,16.38,42.3,0,58.72L756.62,380.5c-0.86,0.86-1.87,1.51-2.78,2.27l-23.02,23.06c-16.36,16.38-42.24,16.38-58.62,0
		C655.84,389.43,655.84,363.51,672.2,347.12"/>
	<path style="clip-path:url(#SVGID_00000059995381760922636770000017315492521081055106_);fill:#24A4B1;" d="M596.3,228.86
		L462.27,363.1L328.5,229.11c-16.37-16.4-42.26-16.4-58.62,0c-16.39,16.4-16.39,42.3,0,58.7l25.29,25.34l137.79,137.99l0.25,0.25
		c16.37,16.4,42.24,16.4,58.63,0l137.79-137.99c0.86-0.88,1.51-1.87,2.27-2.78l23.02-23.06c16.36-16.38,16.36-42.32,0-58.7
		C638.55,212.47,612.66,212.47,596.3,228.86"/>
</g>
</svg>
