<svg width="32" height="32" viewBox="0 0 32 32" fill="none" xmlns="http://www.w3.org/2000/svg">
<g opacity="0.1">
<path opacity="0.1" d="M15.734 12.4238C14.4948 12.4238 13.1256 12.6559 11.4409 13.1548C10.9234 13.2848 10.4082 13.431 9.86521 13.5864C8.1967 14.0575 6.46785 14.5449 4.70883 14.5449C3.22644 14.5583 1.76981 14.1564 0.503906 13.3846V13.8487C1.76981 14.6205 3.22644 15.0224 4.70883 15.009C6.46785 15.009 8.18973 14.5193 9.86521 14.0459C10.4082 13.8928 10.9211 13.7466 11.4409 13.6166C13.1256 13.12 14.4948 12.8856 15.734 12.8856C17.4072 12.8856 18.8111 13.3289 19.997 14.2316V13.7675C18.8111 12.8647 17.4071 12.4238 15.734 12.4238Z" fill="black"/>
</g>
<path d="M30.8114 6.08551C28.8637 4.07389 26.4579 3.09668 23.4623 3.09668C21.6629 3.09668 19.6749 3.43362 17.2286 4.15474C16.4772 4.34679 15.6955 4.56584 14.944 4.78147C12.5179 5.45536 10.0076 6.17983 7.45345 6.17983C5.30028 6.19734 3.18521 5.61135 1.34778 4.48827V3.77057C1.34778 3.39826 1.0462 3.09668 0.673889 3.09668C0.301576 3.09668 0 3.39826 0 3.77057V26.7841C0 27.1564 0.127687 27 0.5 27C0.872313 27 1.36179 26.5365 1.36179 26.1642L1.34778 26.2052C3.22769 27.2013 5.32623 27.7131 7.45345 27.6945C10.1963 27.6945 12.8043 26.9566 15.3113 26.2456C16.0897 26.0232 16.8276 25.8143 17.5858 25.6222C19.4872 25.0096 21.4655 24.6693 23.4623 24.6113C26.0737 24.6113 28.1595 25.4537 29.8409 27.189C30.0993 27.4569 30.5259 27.465 30.7938 27.2066C30.9258 27.0795 31.0003 26.9039 31 26.7207V6.55046C30.9994 6.37697 30.9316 6.21052 30.8114 6.08551ZM29.6522 25.2213C27.9304 23.9071 25.8918 23.267 23.4623 23.267C21.6629 23.267 19.6749 23.6039 17.2286 24.3284C16.4772 24.5171 15.7292 24.7294 14.9407 24.9517C12.5179 25.6392 10.0076 26.3468 7.45345 26.3468C5.30098 26.3663 3.1859 25.7827 1.34778 24.662V6.0417C3.22832 7.03537 5.32658 7.54484 7.45345 7.52433C10.1963 7.52433 12.8043 6.80321 15.3113 6.07539C16.0897 5.853 16.8276 5.64406 17.5858 5.45201C19.4872 4.84042 21.4659 4.50145 23.4623 4.44453C25.976 4.44453 28.0045 5.22292 29.6522 6.83021V25.2213Z" fill="#171C1F"/>
<path d="M15.4999 5.66113C13.9263 6.10592 12.356 6.55406 10.7824 6.85062V11.969C12.356 11.6725 13.9263 11.2243 15.4999 10.7795V5.66113ZM1.34766 5.66113V10.7795C2.79491 11.6091 4.40387 12.1169 6.06509 12.2689V7.14033C4.40457 6.99139 2.79589 6.48702 1.34766 5.66113ZM29.6521 25.4641V20.3457C28.2048 19.5161 26.5959 19.0083 24.9347 18.8564V23.9883C26.5949 24.1361 28.2039 24.6393 29.6521 25.4641ZM29.6521 15.5643V10.7795C28.2048 9.94988 26.5959 9.44209 24.9347 9.29015V14.075C26.5959 14.2269 28.2048 14.7347 29.6521 15.5643ZM1.34766 15.5643V20.3457C2.79491 21.1753 4.40387 21.6831 6.06509 21.835V17.0502C4.40422 16.8993 2.79526 16.3926 1.34766 15.5643ZM15.4999 25.1272C17.0735 24.6824 18.6437 24.2342 20.2173 23.9377V19.1563C18.6437 19.4528 17.0735 19.901 15.4999 20.3458V25.1272ZM10.7824 16.7538V21.5352C12.356 21.2386 13.9263 20.7905 15.4999 20.3457V15.5643C13.9263 16.0091 12.356 16.4572 10.7824 16.7538ZM6.06509 21.8351V26.9434L6.45596 26.9804C7.90656 27.0502 9.36017 26.937 10.7825 26.6435V21.5352C9.23216 21.857 7.6437 21.9581 6.06509 21.8351ZM24.9347 9.2935V4.17173C23.3561 4.0477 21.768 4.14746 20.2172 4.46829V9.59005C21.768 9.26922 23.3561 9.16953 24.9347 9.2935ZM20.2173 14.3715V19.1563C21.768 18.8355 23.3561 18.7358 24.9347 18.8597V14.0749C23.3561 13.9509 21.768 14.0507 20.2173 14.3715ZM10.7824 16.7538V11.969C9.23174 12.2897 7.6437 12.3895 6.06502 12.2655V17.0503C7.6437 17.1743 9.23181 17.0745 10.7824 16.7538ZM20.2173 14.3715V9.59005C18.6437 9.88661 17.0735 10.3347 15.4999 10.7795V15.5644C17.0735 15.1162 18.6437 14.6714 20.2173 14.3715Z" fill="#171C1F"/>
</svg>
