<svg width="24" height="24" viewBox="0 0 24 24" fill="none" xmlns="http://www.w3.org/2000/svg">
<path fill-rule="evenodd" clip-rule="evenodd" d="M4.20779 2H9.4026C10.6219 2 11.6104 2.98846 11.6104 4.20779V9.4026C11.6104 10.6219 10.6219 11.6104 9.4026 11.6104H4.20779C2.98846 11.6104 2 10.6219 2 9.4026V4.20779C2 2.98846 2.98846 2 4.20779 2ZM4.20779 3.81818C3.99262 3.81818 3.81818 3.99262 3.81818 4.20779V9.4026C3.81818 9.61777 3.99262 9.79221 4.20779 9.79221H9.4026C9.61777 9.79221 9.79221 9.61777 9.79221 9.4026V4.20779C9.79221 3.99262 9.61777 3.81818 9.4026 3.81818H4.20779ZM14.5974 12.3896H19.7922C21.0115 12.3896 22 13.3781 22 14.5974V19.7922C22 21.0115 21.0115 22 19.7922 22H14.5974C13.3781 22 12.3896 21.0115 12.3896 19.7922V14.5974C12.3896 13.3781 13.3781 12.3896 14.5974 12.3896ZM14.5974 14.2078C14.3822 14.2078 14.2078 14.3822 14.2078 14.5974V19.7922C14.2078 20.0074 14.3822 20.1818 14.5974 20.1818H19.7922C20.0074 20.1818 20.1818 20.0074 20.1818 19.7922V14.5974C20.1818 14.3822 20.0074 14.2078 19.7922 14.2078H14.5974ZM14.5974 2H19.7922C21.0115 2 22 2.98846 22 4.20779V9.4026C22 10.6219 21.0115 11.6104 19.7922 11.6104H14.5974C13.3781 11.6104 12.3896 10.6219 12.3896 9.4026V4.20779C12.3896 2.98846 13.3781 2 14.5974 2ZM14.5974 3.81818C14.3822 3.81818 14.2078 3.99262 14.2078 4.20779V9.4026C14.2078 9.61777 14.3822 9.79221 14.5974 9.79221H19.7922C20.0074 9.79221 20.1818 9.61777 20.1818 9.4026V4.20779C20.1818 3.99262 20.0074 3.81818 19.7922 3.81818H14.5974ZM4.20779 12.3896H9.4026C10.6219 12.3896 11.6104 13.3781 11.6104 14.5974V19.7922C11.6104 21.0115 10.6219 22 9.4026 22H4.20779C2.98846 22 2 21.0115 2 19.7922V14.5974C2 13.3781 2.98846 12.3896 4.20779 12.3896ZM4.20779 14.2078C3.99262 14.2078 3.81818 14.3822 3.81818 14.5974V19.7922C3.81818 20.0074 3.99262 20.1818 4.20779 20.1818H9.4026C9.61777 20.1818 9.79221 20.0074 9.79221 19.7922V14.5974C9.79221 14.3822 9.61777 14.2078 9.4026 14.2078H4.20779Z" fill="#9BAFB9"/>
</svg>
