<svg width="16" height="16" viewBox="0 0 16 16" fill="none" xmlns="http://www.w3.org/2000/svg">
<path d="M9.1795 9.18221V2.69796C9.1795 2.31614 9.02782 1.94996 8.75783 1.67997C8.48784 1.40998 8.12166 1.2583 7.73983 1.2583C7.35801 1.2583 6.99183 1.40998 6.72184 1.67997C6.45185 1.94996 6.30017 2.31614 6.30017 2.69796V9.18221C5.83791 9.49107 5.48723 9.94041 5.29993 10.4639C5.11263 10.9873 5.09864 11.5571 5.26002 12.0891C5.42139 12.6211 5.74959 13.0871 6.19613 13.4183C6.64267 13.7495 7.18388 13.9283 7.73983 13.9283C8.29578 13.9283 8.83699 13.7495 9.28353 13.4183C9.73008 13.0871 10.0583 12.6211 10.2197 12.0891C10.381 11.5571 10.367 10.9873 10.1797 10.4639C9.99243 9.94041 9.64176 9.49107 9.1795 9.18221Z" stroke="#E0861B" stroke-width="1.33333" stroke-linecap="round" stroke-linejoin="round"/>
</svg>
