<svg width="17" height="16" viewBox="0 0 17 16" fill="none" xmlns="http://www.w3.org/2000/svg">
<path d="M8.26253 0.932617C7.26813 0.932617 6.31915 1.12624 5.41558 1.51348C4.51201 1.90073 3.73274 2.42183 3.07778 3.0768C2.42281 3.73177 1.9017 4.51342 1.51446 5.42177C1.12722 6.33012 0.933594 7.2815 0.933594 8.2759C0.933594 9.53803 1.23717 10.7189 1.84433 11.8185C2.45149 12.918 3.2953 13.8073 4.37576 14.4861C4.48093 14.5531 4.59567 14.5722 4.71997 14.5435C4.84427 14.5148 4.93989 14.4479 5.00682 14.3427C5.07375 14.2375 5.09288 14.1228 5.06419 13.9985C5.03551 13.8742 4.96857 13.7786 4.8634 13.7116C4.08891 13.224 3.44829 12.6073 2.94152 11.8615L3.42916 11.5746C3.53434 11.5173 3.60366 11.4264 3.63713 11.3021C3.67059 11.1778 3.65625 11.0607 3.5941 10.9507C3.53195 10.8408 3.43872 10.7691 3.31442 10.7356C3.19012 10.7021 3.07538 10.7189 2.97021 10.7858L2.48257 11.0583C2.31046 10.695 2.17182 10.3173 2.06664 9.92527C1.96146 9.53325 1.89453 9.13166 1.86585 8.72051H2.36783C2.50169 8.72051 2.61165 8.67509 2.6977 8.58426C2.78376 8.49342 2.82678 8.38586 2.82678 8.26156C2.82678 8.13726 2.78376 8.02969 2.6977 7.93885C2.61165 7.84802 2.50169 7.8026 2.36783 7.8026H1.86585C1.92322 6.97075 2.13835 6.18192 2.51125 5.43611L2.97021 5.70862C3.03714 5.74687 3.11363 5.76599 3.19968 5.76599C3.37179 5.76599 3.50087 5.6895 3.58693 5.53651C3.65386 5.43133 3.67059 5.3166 3.63713 5.19229C3.60366 5.06799 3.53434 4.97716 3.42916 4.91979L2.97021 4.64729C3.43872 3.96841 4.01242 3.3995 4.69129 2.94055L4.94945 3.38516C5.03551 3.53814 5.16937 3.61464 5.35104 3.61464C5.42753 3.61464 5.50402 3.59551 5.58051 3.55727C5.62832 3.52858 5.67135 3.48795 5.7096 3.43536C5.74784 3.38277 5.77414 3.33018 5.78848 3.27759C5.80282 3.225 5.8076 3.16763 5.80282 3.10548C5.79804 3.04333 5.77653 2.98357 5.73828 2.9262L5.48012 2.48159C5.84346 2.30948 6.21875 2.17323 6.60599 2.07283C6.99324 1.97244 7.38765 1.90312 7.78924 1.86487V2.43856C7.78924 2.57243 7.83465 2.68238 7.92549 2.76844C8.01632 2.85449 8.12628 2.89752 8.25536 2.89752C8.38444 2.89752 8.49201 2.85449 8.57807 2.76844C8.66412 2.68238 8.70715 2.57243 8.70715 2.43856V1.86487C9.539 1.92224 10.3278 2.13259 11.0736 2.49593L10.8155 2.9262C10.8059 2.95489 10.7963 2.98118 10.7868 3.00509C10.7772 3.02899 10.7701 3.05528 10.7653 3.08397C10.7605 3.11265 10.7581 3.13895 10.7581 3.16285C10.7581 3.18676 10.7605 3.21305 10.7653 3.24174C10.7701 3.27042 10.7772 3.29671 10.7868 3.32062C10.7963 3.34452 10.8083 3.36843 10.8226 3.39233C10.837 3.41623 10.8513 3.43775 10.8657 3.45687C10.88 3.47599 10.8967 3.49512 10.9159 3.51424C10.935 3.53336 10.9589 3.54771 10.9876 3.55727L11.0449 3.58595L11.1023 3.60747L11.1597 3.61464H11.2171C11.2553 3.61464 11.2936 3.60986 11.3318 3.60029C11.37 3.59073 11.4059 3.57639 11.4394 3.55727C11.4728 3.53814 11.5063 3.51424 11.5398 3.48556C11.5732 3.45687 11.5995 3.4234 11.6186 3.38516L11.8625 2.95489C12.5413 3.4234 13.1102 3.99232 13.5692 4.66163L13.1389 4.91979C13.0816 4.94847 13.0361 4.98672 13.0027 5.03453C12.9692 5.08234 12.9429 5.13493 12.9238 5.19229C12.9047 5.24966 12.8999 5.30942 12.9095 5.37157C12.919 5.43372 12.9381 5.4887 12.9668 5.53651C13.0146 5.613 13.0744 5.67037 13.1461 5.70862C13.2178 5.74687 13.2919 5.76599 13.3684 5.76599C13.4067 5.76599 13.4449 5.76121 13.4831 5.75165C13.5214 5.74208 13.5596 5.72774 13.5979 5.70862L14.0282 5.4648C14.3915 6.20104 14.6019 6.98509 14.6592 7.81694H14.1572C14.0329 7.81694 13.9254 7.86236 13.8345 7.9532C13.7437 8.04403 13.6983 8.1516 13.6983 8.2759C13.6983 8.4002 13.7437 8.50777 13.8345 8.5986C13.9254 8.68944 14.0329 8.73485 14.1572 8.73485H14.6592C14.6019 9.54759 14.4011 10.3173 14.0568 11.044L13.5979 10.7858C13.4831 10.7189 13.366 10.7021 13.2465 10.7356C13.127 10.7691 13.0338 10.8432 12.9668 10.9579C12.9381 11.0057 12.919 11.0607 12.9095 11.1229C12.8999 11.185 12.9047 11.2448 12.9238 11.3021C12.9429 11.3595 12.9692 11.4121 13.0027 11.4599C13.0361 11.5077 13.0816 11.546 13.1389 11.5746L13.5979 11.8471C13.0816 12.6121 12.4218 13.2431 11.6186 13.7403C11.5135 13.8073 11.4465 13.9005 11.4179 14.02C11.3892 14.1395 11.4083 14.2567 11.4752 14.3714C11.5039 14.4096 11.5398 14.4455 11.5828 14.479C11.6258 14.5124 11.6712 14.5387 11.719 14.5578C11.7668 14.577 11.8147 14.5865 11.8625 14.5865C11.9485 14.5865 12.0298 14.5626 12.1063 14.5148C13.1963 13.8455 14.0497 12.9587 14.6664 11.8543C15.2831 10.75 15.5915 9.55237 15.5915 8.26156C15.5915 7.27672 15.3979 6.33012 15.0106 5.42177C14.6234 4.51342 14.1023 3.73177 13.4473 3.0768C12.7923 2.42183 12.0131 1.90073 11.1095 1.51348C10.2059 1.12624 9.25694 0.932617 8.26253 0.932617ZM11.6473 6.84166C11.7238 6.79386 11.7812 6.7341 11.8194 6.66239C11.8577 6.59067 11.8768 6.51657 11.8768 6.44008C11.8768 6.36359 11.8577 6.28709 11.8194 6.2106C11.7525 6.10542 11.6593 6.0361 11.5398 6.00264C11.4202 5.96917 11.3031 5.98112 11.1884 6.03849L8.6928 7.48707C8.54938 7.40102 8.40118 7.35799 8.24819 7.35799C7.99959 7.35799 7.78446 7.44882 7.60279 7.63049C7.42112 7.81216 7.33028 8.0273 7.33028 8.2759C7.33028 8.43845 7.37092 8.59143 7.45219 8.73485C7.53346 8.87828 7.64581 8.99063 7.78924 9.0719C7.93266 9.15317 8.08565 9.19381 8.24819 9.19381C8.49679 9.19381 8.71193 9.10297 8.8936 8.92131C9.07527 8.73964 9.1661 8.5245 9.1661 8.2759L11.6473 6.84166Z" fill="#FF4E4E"/>
</svg>
