<?xml version="1.0" encoding="UTF-8"?>
<svg xmlns="http://www.w3.org/2000/svg" xmlns:xlink="http://www.w3.org/1999/xlink" viewBox="0 0 40 40" width="40px" height="40px">
<g id="surface11041733">
<path style=" stroke:none;fill-rule:nonzero;fill:rgb(90.588236%,29.803923%,23.529412%);fill-opacity:1;" d="M 20 40 C 8.953125 40 0 31.046875 0 20 C 0 8.953125 8.953125 0 20 0 C 31.046875 0 40 8.953125 40 20 C 40 31.046875 31.046875 40 20 40 Z M 20 40 "/>
<path style=" stroke:none;fill-rule:nonzero;fill:rgb(54.509807%,71.764708%,94.117647%);fill-opacity:1;" d="M 20 34.800781 C 11.839844 34.800781 5.199219 28.160156 5.199219 20 C 5.199219 11.839844 11.839844 5.199219 20 5.199219 C 28.160156 5.199219 34.800781 11.839844 34.800781 20 C 34.800781 28.160156 28.160156 34.800781 20 34.800781 Z M 20 34.800781 "/>
<path style=" stroke:none;fill-rule:nonzero;fill:rgb(30.588236%,47.843137%,70.980394%);fill-opacity:1;" d="M 20 5.601562 C 27.941406 5.601562 34.398438 12.058594 34.398438 20 C 34.398438 27.941406 27.941406 34.398438 20 34.398438 C 12.058594 34.398438 5.601562 27.941406 5.601562 20 C 5.601562 12.058594 12.058594 5.601562 20 5.601562 M 20 4.800781 C 11.605469 4.800781 4.800781 11.605469 4.800781 20 C 4.800781 28.394531 11.605469 35.199219 20 35.199219 C 28.394531 35.199219 35.199219 28.394531 35.199219 20 C 35.199219 11.605469 28.394531 4.800781 20 4.800781 Z M 20 4.800781 "/>
<path style=" stroke:none;fill-rule:nonzero;fill:rgb(100%,100%,100%);fill-opacity:1;" d="M 20 32.398438 C 13.164062 32.398438 7.601562 26.835938 7.601562 20 C 7.601562 13.164062 13.164062 7.601562 20 7.601562 C 26.835938 7.601562 32.398438 13.164062 32.398438 20 C 32.398438 26.835938 26.835938 32.398438 20 32.398438 Z M 20 32.398438 "/>
<path style=" stroke:none;fill-rule:nonzero;fill:rgb(30.588236%,47.843137%,70.980394%);fill-opacity:1;" d="M 20 8 C 26.617188 8 32 13.382812 32 20 C 32 26.617188 26.617188 32 20 32 C 13.382812 32 8 26.617188 8 20 C 8 13.382812 13.382812 8 20 8 M 20 7.199219 C 12.929688 7.199219 7.199219 12.929688 7.199219 20 C 7.199219 27.070312 12.929688 32.800781 20 32.800781 C 27.070312 32.800781 32.800781 27.070312 32.800781 20 C 32.800781 12.929688 27.070312 7.199219 20 7.199219 Z M 20 7.199219 "/>
<path style="fill:none;stroke-width:8.6;stroke-linecap:round;stroke-linejoin:miter;stroke:rgb(40.000001%,47.450981%,56.078434%);stroke-opacity:1;stroke-miterlimit:10;" d="M 110.069922 50.441016 L 86 86 L 106.105859 106.105859 " transform="matrix(0.232558,0,0,0.232558,0,0)"/>
<path style=" stroke:none;fill-rule:nonzero;fill:rgb(40.000001%,47.450981%,56.078434%);fill-opacity:1;" d="M 20 18.800781 C 19.335938 18.800781 18.800781 19.335938 18.800781 20 C 18.800781 20.664062 19.335938 21.199219 20 21.199219 C 20.664062 21.199219 21.199219 20.664062 21.199219 20 C 21.199219 19.335938 20.664062 18.800781 20 18.800781 Z M 20 18.800781 "/>
<path style=" stroke:none;fill-rule:nonzero;fill:rgb(77.254903%,83.137256%,87.058824%);fill-opacity:1;" d="M 20 8.800781 C 19.558594 8.800781 19.199219 9.15625 19.199219 9.601562 C 19.199219 10.042969 19.558594 10.398438 20 10.398438 C 20.441406 10.398438 20.800781 10.042969 20.800781 9.601562 C 20.800781 9.15625 20.441406 8.800781 20 8.800781 Z M 20 29.601562 C 19.558594 29.601562 19.199219 29.957031 19.199219 30.398438 C 19.199219 30.84375 19.558594 31.199219 20 31.199219 C 20.441406 31.199219 20.800781 30.84375 20.800781 30.398438 C 20.800781 29.957031 20.441406 29.601562 20 29.601562 Z M 20 29.601562 "/>
<path style=" stroke:none;fill-rule:nonzero;fill:rgb(77.254903%,83.137256%,87.058824%);fill-opacity:1;" d="M 30.398438 19.199219 C 29.957031 19.199219 29.601562 19.558594 29.601562 20 C 29.601562 20.441406 29.957031 20.800781 30.398438 20.800781 C 30.84375 20.800781 31.199219 20.441406 31.199219 20 C 31.199219 19.558594 30.84375 19.199219 30.398438 19.199219 Z M 30.398438 19.199219 "/>
<path style=" stroke:none;fill-rule:nonzero;fill:rgb(77.254903%,83.137256%,87.058824%);fill-opacity:1;" d="M 9.601562 19.199219 C 9.15625 19.199219 8.800781 19.558594 8.800781 20 C 8.800781 20.441406 9.15625 20.800781 9.601562 20.800781 C 10.042969 20.800781 10.398438 20.441406 10.398438 20 C 10.398438 19.558594 10.042969 19.199219 9.601562 19.199219 Z M 9.601562 19.199219 "/>
</g>
</svg>
