<svg width="24" height="24" viewBox="0 0 24 24" fill="none" xmlns="http://www.w3.org/2000/svg">
<path d="M5 6H19C19.5523 6 20 5.55228 20 5C20 4.44772 19.5523 4 19 4H5C4.44772 4 4 4.44772 4 5C4 5.55228 4.44772 6 5 6Z" fill="#9BAFB9"/>
<path d="M5 20H19C19.5523 20 20 19.5523 20 19C20 18.4477 19.5523 18 19 18H5C4.44772 18 4 18.4477 4 19C4 19.5523 4.44772 20 5 20Z" fill="#9BAFB9"/>
<path d="M19 13H5C4.44772 13 4 12.5523 4 12C4 11.4477 4.44772 11 5 11H19C19.5523 11 20 11.4477 20 12C20 12.5523 19.5523 13 19 13Z" fill="#9BAFB9"/>
<path d="M5 6H19C19.5523 6 20 5.55228 20 5C20 4.44772 19.5523 4 19 4H5C4.44772 4 4 4.44772 4 5C4 5.55228 4.44772 6 5 6Z" stroke="#9BAFB9"/>
<path d="M5 20H19C19.5523 20 20 19.5523 20 19C20 18.4477 19.5523 18 19 18H5C4.44772 18 4 18.4477 4 19C4 19.5523 4.44772 20 5 20Z" stroke="#9BAFB9"/>
<path d="M19 13H5C4.44772 13 4 12.5523 4 12C4 11.4477 4.44772 11 5 11H19C19.5523 11 20 11.4477 20 12C20 12.5523 19.5523 13 19 13Z" stroke="#9BAFB9"/>
</svg>
