<svg width="20" height="20" viewBox="0 0 20 20" fill="none" xmlns="http://www.w3.org/2000/svg">
<path d="M12.2851 0.902528C12.3672 0.902381 12.4486 0.918424 12.5245 0.949738C12.6004 0.981053 12.6694 1.02703 12.7276 1.08503L18.9151 7.27253C19.0322 7.38973 19.0981 7.54868 19.0981 7.7144C19.0981 7.88013 19.0322 8.03907 18.9151 8.15628C18.3151 8.75628 17.5751 8.89128 17.0363 8.89128C16.8151 8.89128 16.6176 8.86878 16.4613 8.84253L12.5438 12.76C12.6469 13.1755 12.7139 13.5992 12.7438 14.0263C12.8013 14.9038 12.7038 16.135 11.8438 16.995C11.7266 17.1122 11.5677 17.178 11.4019 17.178C11.2362 17.178 11.0773 17.1122 10.9601 16.995L7.42382 13.46L3.44632 17.4375C3.20257 17.6813 1.92257 18.565 1.67882 18.3213C1.43507 18.0775 2.31882 16.7963 2.56257 16.5538L6.54007 12.5763L3.00507 9.04003C2.8879 8.92282 2.82208 8.76388 2.82208 8.59815C2.82208 8.43243 2.8879 8.27348 3.00507 8.15628C3.86507 7.29628 5.09632 7.19753 5.97382 7.25628C6.40089 7.2862 6.82456 7.35312 7.24007 7.45628L11.1576 3.54003C11.1249 3.34967 11.1081 3.15692 11.1076 2.96378C11.1076 2.42628 11.2426 1.68628 11.8438 1.08503C11.9609 0.968192 12.1196 0.902563 12.2851 0.902528ZM12.4376 3.54003V3.54253C12.4737 3.65249 12.4785 3.77031 12.4516 3.88287C12.4247 3.99543 12.367 4.09831 12.2851 4.18003L7.86632 8.59753C7.78421 8.67928 7.681 8.7366 7.56821 8.76309C7.45541 8.78958 7.33748 8.78419 7.22757 8.74753H7.22507L7.20757 8.74253C7.08865 8.7069 6.96858 8.67522 6.84757 8.64753C6.53312 8.57418 6.21338 8.52569 5.89132 8.50253C5.36382 8.46753 4.84632 8.51253 4.42257 8.69003L11.3101 15.5763C11.4863 15.1513 11.5313 14.635 11.4963 14.1075C11.4645 13.6609 11.384 13.2192 11.2563 12.79L11.2513 12.7738C11.2144 12.6637 11.2089 12.5443 11.2354 12.4312C11.2619 12.3182 11.3193 12.2147 11.4013 12.1325L15.8213 7.71378C15.9064 7.62815 16.0145 7.569 16.1325 7.54349C16.2506 7.51798 16.3734 7.5272 16.4863 7.57003L16.6063 7.59753C16.7151 7.61878 16.8663 7.64003 17.0363 7.64003C17.1788 7.64003 17.3238 7.62628 17.4651 7.59003L12.4088 2.53503C12.3726 2.67628 12.3588 2.82253 12.3588 2.96378C12.3594 3.15801 12.3855 3.35132 12.4363 3.53878L12.4376 3.54003Z" fill="#1C75BA"/>
<path d="M3.75003 8.74995L7.50012 8.12506L11.2502 4.37506L11.8751 1.87506L15.0001 4.37506L17.5001 6.87506L17.5001 7.50006L13.1251 11.25L11.2502 16.25L3.75003 8.74995Z" fill="#1C75BA"/>
</svg>
