<svg width="20" height="20" viewBox="0 0 20 20" fill="none" xmlns="http://www.w3.org/2000/svg">
<path fill-rule="evenodd" clip-rule="evenodd" d="M3.90177 3.90226C0.920765 6.88326 0.920765 11.7164 3.90177 14.6974C6.88277 17.6784 11.7159 17.6784 14.6969 14.6974C17.6779 11.7164 17.6779 6.88326 14.6969 3.90226C11.7159 0.921253 6.88277 0.921253 3.90177 3.90226ZM5.08028 5.08077C7.41041 2.75064 11.1883 2.75064 13.5184 5.08077C15.8485 7.4109 15.8485 11.1888 13.5184 13.5189C11.1883 15.849 7.41041 15.849 5.08028 13.5189C2.75015 11.1888 2.75015 7.4109 5.08028 5.08077Z" fill="#9BAFB9"/>
<path d="M18.4113 16.9019L14.9701 13.4607C14.1844 12.675 13.0059 13.8535 13.7916 14.6392L17.2328 18.0804C18.0185 18.8661 19.197 17.6876 18.4113 16.9019Z" fill="#9BAFB9"/>
<path fill-rule="evenodd" clip-rule="evenodd" d="M3.90177 3.90226C0.920765 6.88326 0.920765 11.7164 3.90177 14.6974C6.88277 17.6784 11.7159 17.6784 14.6969 14.6974C17.6779 11.7164 17.6779 6.88326 14.6969 3.90226C11.7159 0.921253 6.88277 0.921253 3.90177 3.90226ZM5.08028 5.08077C7.41041 2.75064 11.1883 2.75064 13.5184 5.08077C15.8485 7.4109 15.8485 11.1888 13.5184 13.5189C11.1883 15.849 7.41041 15.849 5.08028 13.5189C2.75015 11.1888 2.75015 7.4109 5.08028 5.08077Z" stroke="#9BAFB9"/>
<path d="M18.4113 16.9019L14.9701 13.4607C14.1844 12.675 13.0059 13.8535 13.7916 14.6392L17.2328 18.0804C18.0185 18.8661 19.197 17.6876 18.4113 16.9019Z" stroke="#9BAFB9"/>
</svg>
