<svg width="24" height="24" viewBox="0 0 24 24" fill="none" xmlns="http://www.w3.org/2000/svg">
<path d="M2.4152 20.8914L3.05612 20.187L3.05612 20.187L2.4152 20.8914ZM2.33061 20.8068L1.62624 21.4477L1.62625 21.4477L2.33061 20.8068ZM19.1539 20.726L19.7948 21.4304L19.7948 21.4304L19.1539 20.726ZM19.2807 20.5992L19.9851 21.2401L19.9851 21.2401L19.2807 20.5992ZM2.49591 4.06811L3.20027 4.70903L3.20028 4.70903L2.49591 4.06811ZM2.62279 3.94122L3.26372 4.64559L3.26372 4.64559L2.62279 3.94122ZM16.0816 20.2696H4.46333V22.1743H16.0816V20.2696ZM2.95232 18.7586V7.14031H1.04768V18.7586H2.95232ZM5.695 4.39763H9.936V2.49299H5.695V4.39763ZM20.729 17.527V13.6034H18.8243V17.527H20.729ZM4.46333 20.2696C3.87655 20.2696 3.52646 20.2678 3.274 20.2359C3.15822 20.2212 3.09897 20.2038 3.07139 20.1932C3.06499 20.1908 3.06069 20.1889 3.05812 20.1876C3.05557 20.1864 3.05439 20.1857 3.05424 20.1856C3.05411 20.1855 3.05449 20.1857 3.05514 20.1862C3.0558 20.1867 3.05616 20.187 3.05612 20.187L1.77427 21.5957C2.15909 21.9459 2.61049 22.0717 3.03463 22.1254C3.4346 22.1761 3.92692 22.1743 4.46333 22.1743V20.2696ZM1.04768 18.7586C1.04768 19.295 1.04589 19.7874 1.09656 20.1873C1.15029 20.6115 1.27608 21.0629 1.62624 21.4477L3.03497 20.1658C3.03493 20.1658 3.03526 20.1662 3.03575 20.1668C3.03624 20.1675 3.03647 20.1679 3.03639 20.1677C3.0363 20.1676 3.03559 20.1664 3.03435 20.1638C3.0331 20.1613 3.03116 20.157 3.02871 20.1506C3.01814 20.123 3.00076 20.0637 2.9861 19.948C2.95411 19.6955 2.95232 19.3454 2.95232 18.7586H1.04768ZM3.05612 20.187C3.04875 20.1803 3.04169 20.1732 3.03496 20.1658L1.62625 21.4477C1.67323 21.4993 1.72262 21.5487 1.77428 21.5957L3.05612 20.187ZM16.0816 22.1743C16.8989 22.1743 17.6018 22.1761 18.1649 22.1047C18.7521 22.0303 19.3191 21.8632 19.7948 21.4304L18.5129 20.0217C18.4436 20.0848 18.3169 20.1656 17.9255 20.2152C17.5099 20.2678 16.9492 20.2696 16.0816 20.2696V22.1743ZM18.8243 17.527C18.8243 18.3945 18.8225 18.9552 18.7699 19.3708C18.7203 19.7622 18.6395 19.8889 18.5764 19.9582L19.9851 21.2401C20.4179 20.7644 20.585 20.1974 20.6594 19.6102C20.7308 19.0471 20.729 18.3442 20.729 17.527H18.8243ZM19.7948 21.4304C19.8612 21.37 19.9247 21.3065 19.9851 21.2401L18.5764 19.9582C18.5562 19.9804 18.5351 20.0016 18.5129 20.0217L19.7948 21.4304ZM2.95232 7.14031C2.95232 6.27273 2.95411 5.71204 3.00676 5.29647C3.05634 4.90506 3.13717 4.77838 3.20027 4.70903L1.79154 3.42718C1.35873 3.90283 1.19161 4.46985 1.11722 5.0571C1.04589 5.62018 1.04768 6.3231 1.04768 7.14031H2.95232ZM5.695 2.49299C4.87778 2.49299 4.17487 2.4912 3.61178 2.56253C3.02454 2.63692 2.45752 2.80405 1.98187 3.23686L3.26372 4.64559C3.33306 4.58249 3.45974 4.50166 3.85115 4.45207C4.26672 4.39943 4.82741 4.39763 5.695 4.39763V2.49299ZM3.20028 4.70903C3.22041 4.6869 3.24158 4.66573 3.26372 4.64559L1.98187 3.23686C1.91547 3.29727 1.85196 3.36079 1.79154 3.42718L3.20028 4.70903Z" fill="#9BAFB9"/>
<path d="M21.7729 6.9719L17.2226 3.5592C17.052 3.42951 16.8199 3.40904 16.6277 3.50573C16.4343 3.60242 16.3126 3.79922 16.3126 4.01422V5.72057H14.6062C11.156 5.72057 8.34961 8.52695 8.34961 11.9772C8.34961 12.2411 8.53162 12.4709 8.78757 12.5312C8.8308 12.5414 8.87517 12.546 8.91839 12.546C9.12998 12.546 9.32905 12.4277 9.42689 12.232L9.56112 11.9647C10.4336 10.2185 12.1878 9.13328 14.1398 9.13328H16.3126V10.8396C16.3126 11.0546 16.4343 11.2514 16.6265 11.3481C16.8188 11.4448 17.0509 11.4243 17.2226 11.2947L21.7729 7.88195C21.9162 7.77502 22.0004 7.60552 22.0004 7.42693C22.0004 7.24833 21.9162 7.07883 21.7729 6.9719Z" fill="#9BAFB9"/>
</svg>
