<svg width="11" height="12" viewBox="0 0 11 12" fill="none" xmlns="http://www.w3.org/2000/svg">
<g clip-path="url(#clip0_608_6165)">
<path d="M6.9572 2.27197H0.574219V7.80389H6.9572V2.27197Z" stroke="#1C75BA" stroke-width="1.02128" stroke-linecap="round" stroke-linejoin="round"/>
<path d="M6.95703 4.3999H8.65916L9.93575 5.6765V7.80416H6.95703V4.3999Z" stroke="#1C75BA" stroke-width="1.02128" stroke-linecap="round" stroke-linejoin="round"/>
<path d="M2.48961 9.93186C3.07715 9.93186 3.55344 9.45557 3.55344 8.86803C3.55344 8.28049 3.07715 7.8042 2.48961 7.8042C1.90207 7.8042 1.42578 8.28049 1.42578 8.86803C1.42578 9.45557 1.90207 9.93186 2.48961 9.93186Z" stroke="#1C75BA" stroke-width="1.02128" stroke-linecap="round" stroke-linejoin="round"/>
<path d="M8.02086 9.93186C8.6084 9.93186 9.08469 9.45557 9.08469 8.86803C9.08469 8.28049 8.6084 7.8042 8.02086 7.8042C7.43332 7.8042 6.95703 8.28049 6.95703 8.86803C6.95703 9.45557 7.43332 9.93186 8.02086 9.93186Z" stroke="#1C75BA" stroke-width="1.02128" stroke-linecap="round" stroke-linejoin="round"/>
</g>
<defs>
<clipPath id="clip0_608_6165">
<rect width="10.2128" height="10.2128" fill="white" transform="translate(0.148438 0.995605)"/>
</clipPath>
</defs>
</svg>
